<?xml version="1.0" encoding="iso-8859-1"?>
<!-- Uploaded to: SVG Repo, www.svgrepo.com, Generator: SVG Repo Mixer Tools -->
<svg fill="#ffffff" height="800px" width="800px" version="1.1" id="Layer_1" xmlns="http://www.w3.org/2000/svg" xmlns:xlink="http://www.w3.org/1999/xlink"
	 viewBox="0 0 512.002 512.002" xml:space="preserve">
<g>
	<g>
		<g>
			<path d="M413.245,315.734h-30.326c-3.168-12.263-12.996-21.875-25.386-24.73c-3.49-15.147-17.075-26.47-33.263-26.47
				c-15.113,0-28.237,9.702-32.649,24.149c-0.247,0.828-1.246,1.451-2.313,1.451c-1.254,0-2.116-1.169-2.432-1.673
				c0-0.009-0.009-0.009-0.009-0.009c-4.574-7.347-13.389-12.757-23.228-14.652c-0.572-2.435-1.409-4.768-2.472-6.973
				c1.255-4.766,2.142-9.588,2.719-14.41c9.838-6.869,18.28-16.893,22.365-22.158c26.469-1.594,55.348-17.828,55.348-59.591
				c0-4.71-3.814-8.533-8.533-8.533c-38.102,0-58.684,19.645-59.685,56.859c-1.745,2.289-4.893,6.224-8.795,10.279
				c-0.797-16.33-3.953-31.524-6.558-43.161c10.037-3.262,17.717-11.201,20.47-21.326c11.017,3.729,22.801,1.092,31.889-7.996
				c9.088-9.079,11.725-20.872,7.996-31.889c13.38-3.635,22.955-15.855,22.955-30.763c0-14.891-9.557-27.102-22.912-30.763
				c3.857-11.187,1.203-23.185-8.038-32.427c-9.267-9.267-18.842-10.24-25.225-9.395c-2.27,0.29-4.531,0.853-6.741,1.664
				C274.641,9.839,262.319,0,247.735,0c-14.601,0-26.948,9.873-30.703,23.296c-10.351-3.84-22.204-2.628-32.486,7.654
				c-10.283,10.283-11.494,22.135-7.654,32.486c-13.414,3.755-23.287,16.094-23.287,30.703c0,14.592,9.856,26.931,23.262,30.694
				c-4.019,11.085-1.502,22.775,7.68,31.957c9.882,9.882,21.905,11.383,32.384,7.851c3.02,11.277,12.127,19.853,23.806,22.337
				c3.587,15.885,8.459,37.849,6.621,59.603c-0.018,0.173-0.035,0.345-0.042,0.519c-0.137,1.527-0.312,3.051-0.518,4.573
				c-4.869-2.678-10.456-4.207-16.394-4.207c-5.777,0-11.315,1.434-16.239,4.13c-6.366-7.842-16.034-12.663-26.428-12.663
				c-16.188,0-29.79,11.332-33.263,26.479c-6.485,1.502-12.467,4.881-17.101,9.762c-6.511,6.861-9.813,15.846-9.318,25.31
				c0.29,5.551,1.961,10.73,4.677,15.249H98.757c-12.1,0-21.956,9.847-21.956,21.956v7.287c0,12.109,9.856,21.956,21.956,21.956
				h6.793l51.152,44.758c2.236,1.86,8.934,6.443,20.002,6.443c3.635,0,7.723-2.816,12.041-5.794
				c3.439-2.381,6.997-4.83,11.128-6.528c15.863-6.554,28.527-7.791,42.598,6.289l33.399,35.422
				c2.842,3.379,8.073,4.992,14.362,4.736c8.431-0.358,15.394-4.753,19.746-8.38l12.971-10.812
				c9.02-7.518,21.837-8.516,31.915-2.475l16.521,9.566l6.101,3.635l27.128-76.861h8.63c12.109,0,21.956-9.847,21.956-21.956v-7.287
				C435.201,325.582,425.353,315.734,413.245,315.734z M323.928,179.68c-3.388,23.791-20.275,30.985-33.033,32.964
				C293.199,192.455,303.704,181.967,323.928,179.68z M232.922,156.39c0-1.28,0.435-3.209,0.631-4.241
				c1.203-6.238-2.125-9.028-4.215-10.138c-1.263-0.666-2.628-0.99-3.994-0.99c-2.21,0-4.403,0.862-6.042,2.5
				c-5.504,5.513-14.754,9.139-22.69,1.203c-8.431-8.439-3.712-16.7,1.741-22.153c2.645-2.654,3.26-6.724,1.51-10.035
				c-1.109-2.091-3.891-5.427-10.129-4.224c-1.041,0.205-2.97,0.64-4.25,0.64c-8.166,0-14.814-6.647-14.814-14.814
				c0-8.166,6.647-14.814,14.814-14.814c1.271,0,3.183,0.427,4.224,0.631c6.221,1.161,9.003-2.099,10.121-4.156
				c1.792-3.32,1.195-7.433-1.476-10.104c-3.669-3.669-11.196-13.227-1.741-22.682c9.464-9.464,19.021-1.929,22.69,1.732
				c2.637,2.637,6.665,3.26,9.967,1.545c2.116-1.101,5.495-3.883,4.284-10.163c-0.196-1.033-0.631-2.97-0.631-4.25
				c0-8.166,6.647-14.814,14.814-14.814s14.814,6.647,14.814,14.814c0,1.271-0.427,3.183-0.631,4.233
				c-1.195,6.246,2.133,9.045,4.224,10.146c3.319,1.766,7.381,1.143,10.035-1.51c3.575-3.575,7.543-5.803,11.17-6.272
				c3.814-0.521,7.432,0.99,10.974,4.54c9.694,9.694,2.398,19.089-1.195,22.682c-2.654,2.654-3.268,6.724-1.51,10.035
				c1.109,2.091,3.883,5.436,10.146,4.224c1.041-0.205,2.961-0.631,4.233-0.631c8.004,0,14.276,6.511,14.276,14.814
				c0,8.303-6.272,14.814-14.276,14.814c-1.28,0-3.226-0.444-4.258-0.64c-6.298-1.22-9.062,2.176-10.155,4.284
				c-1.715,3.311-1.092,7.347,1.545,9.975c2.731,2.739,10.914,12.433,1.195,22.153c-9.711,9.702-19.413,1.536-22.144-1.203
				c-2.671-2.662-6.775-3.277-10.103-1.476c-2.057,1.118-5.342,3.917-4.156,10.129c0.205,1.041,0.631,2.953,0.631,4.216
				c0,8.004-6.511,14.276-14.814,14.276S232.922,164.395,232.922,156.39z M145.095,299.598c-0.247-4.745,1.399-9.25,4.659-12.672
				c3.251-3.43,7.654-5.325,12.382-5.325c4.71,0,8.533-3.823,8.533-8.533c0-9.412,7.654-17.067,17.067-17.067
				c7.066,0,13.466,4.497,15.932,11.196c1.024,2.79,3.43,4.838,6.332,5.419c2.918,0.606,5.914-0.384,7.936-2.56
				c3.302-3.558,7.731-5.521,12.467-5.521c9.412,0,17.067,7.654,17.067,17.067c0,4.71,3.823,8.533,8.533,8.533
				c7.39,0,14.131,3.729,16.384,7.339c3.789,6.093,10.112,9.728,16.922,9.728c8.533,0,16.205-5.564,18.637-13.525
				c2.202-7.228,8.764-12.075,16.324-12.075c9.412,0,17.067,7.654,17.067,17.067c0,4.71,3.823,8.533,8.533,8.533
				c6.306,0,11.819,3.439,14.771,8.533H163.587C153.859,315.734,145.564,308.498,145.095,299.598z M418.134,344.978
				c0,2.697-2.193,4.89-4.89,4.89H98.757c-2.697,0-4.89-2.193-4.89-4.89v-7.287c0-2.697,2.193-4.89,4.89-4.89h64.829h211.883h37.775
				c2.697,0,4.89,2.193,4.89,4.89V344.978z"/>
			<path d="M409.603,494.934h-50.17l12.195-34.551l-25.429-15.087c-3.977-2.381-8.875-1.997-12.314,0.879l-12.979,10.812
				c-9.148,7.629-19.507,11.887-29.961,12.322c-11.75,0.546-21.888-3.319-27.836-10.47l-32.879-34.85
				c-6.673-6.665-10.65-7.842-23.851-2.406c-2.449,1.007-5.111,2.85-7.945,4.804c-5.99,4.13-12.774,8.815-21.726,8.815
				c-16.648,0-27.273-7.347-31.061-10.513l-31.275-27.162l-1.707-1.502l34.91,98.909H93.869c-4.71,0-8.533,3.823-8.533,8.533
				s3.823,8.533,8.533,8.533h59.731l0,0.001h199.808l0-0.001h56.193c4.71,0,8.533-3.823,8.533-8.533
				S414.313,494.934,409.603,494.934z"/>
			<path d="M281.869,93.868c0-18.825-15.309-34.133-34.133-34.133s-34.133,15.309-34.133,34.133
				c0,18.825,15.309,34.133,34.133,34.133S281.869,112.692,281.869,93.868z M230.669,93.868c0-9.412,7.654-17.067,17.067-17.067
				c9.412,0,17.067,7.654,17.067,17.067c0,9.412-7.654,17.067-17.067,17.067C238.323,110.934,230.669,103.28,230.669,93.868z"/>
		</g>
	</g>
</g>
</svg>