<?xml version="1.0" encoding="iso-8859-1"?>
<!-- Uploaded to: SVG Repo, www.svgrepo.com, Generator: SVG Repo Mixer Tools -->
<svg fill="#ffffff" height="800px" width="800px" version="1.1" id="Layer_1" xmlns="http://www.w3.org/2000/svg" xmlns:xlink="http://www.w3.org/1999/xlink"
	 viewBox="0 0 479.704 479.704" xml:space="preserve">
<g>
	<g>
		<path d="M476.31,9.735c-0.96-4.907-5.013-8.427-10.027-8.64C205.27-10.959,104.897,78.855,66.497,156.188
			c-9.92,20.053-16.107,42.773-19.947,64.853c-5.013-2.987-11.627-1.387-14.613,3.627c-0.32,0.427-0.533,0.96-0.747,1.387
			c-37.547,90.133-13.44,191.467-10.667,202.133c-13.227,22.72-19.413,36.16-19.627,36.693c-2.24,5.44,0.213,11.733,5.653,13.973
			c5.227,2.24,11.307-0.107,13.76-5.227c0.213-0.533,6.507-13.973,19.84-36.587c124.8-3.307,201.493-20.587,263.04-59.093
			C517.271,243.761,476.737,11.975,476.31,9.735z M37.164,401.521c-3.627-21.547-7.36-56.427-3.627-94.507
			c2.453,8.853,6.08,16.853,11.2,22.613c3.947,4.373,10.667,4.8,15.04,0.96c2.56-2.24,3.84-5.547,3.52-8.96
			c-0.107-0.96-8.107-94.827,22.187-156.053c34.24-69.013,123.413-148.587,352.213-144.213
			c-58.453,35.733-114.347,75.733-166.933,119.68c-0.533,0.32-0.96,0.747-1.387,1.173c-8.107,6.72-15.893,13.547-23.573,20.267
			c-1.067-19.733-0.853-53.547,9.6-84.48c1.92-5.547-1.067-11.627-6.72-13.547c-5.547-1.92-11.627,1.067-13.547,6.72
			c-15.893,46.933-10.773,97.707-9.28,109.227c-34.24,31.36-66.667,64.64-97.173,99.627c-1.6-32.747-2.24-102.827,18.987-135.68
			c3.2-5.013,1.707-11.52-3.307-14.72c-4.907-3.093-11.413-1.707-14.613,3.2c-31.893,49.707-21.547,162.027-21.013,166.827
			c0.107,1.067,0.427,2.133,0.853,3.093C83.457,334.215,59.35,367.175,37.164,401.521z M292.097,359.815
			c-55.787,34.987-125.867,51.413-238.4,55.467c22.187-34.88,56.32-82.88,105.173-137.067c11.093,6.187,41.28,20.373,85.76,20.373
			c23.04-0.107,45.973-3.627,67.947-10.56c5.653-1.6,9.067-7.467,7.467-13.12c-1.6-5.653-7.467-9.067-13.12-7.467
			c-0.213,0-0.427,0.107-0.533,0.213c-67.627,20.587-114.88,3.093-132.587-5.653c33.387-35.627,68.8-69.227,106.133-100.693
			c19.627,6.08,40.107,9.173,60.693,9.28c18.667,0,39.253-2.88,58.667-11.627c5.333-2.453,7.68-8.853,5.227-14.187
			c-2.453-5.227-8.64-7.573-13.973-5.333c-31.893,14.293-68.587,9.813-90.24,5.013c50.027-40.427,102.72-77.227,157.867-110.293
			C462.764,91.655,459.457,254.961,292.097,359.815z"/>
	</g>
</g>
</svg>