<?xml version="1.0" standalone="no"?>
<!DOCTYPE svg PUBLIC "-//W3C//DTD SVG 1.1//EN" "http://www.w3.org/Graphics/SVG/1.1/DTD/svg11.dtd" >
<svg>
<metadata>
Created by FontForge 20090914 at Sun Jan 29 09:55:07 2023
 By www-data
Copyright ? 1997, 2001, Berthold LLC. All rights reserved. Akzidenz-Grotesk is a trademark of Berthold Types Limited.
</metadata>
<defs>
<font id="AkzidenzGroteskBQ-BdCndAlt" horiz-adv-x="396" >
  <font-face 
    font-family="Akzidenz-Grotesk BQ"
    font-weight="700"
    font-stretch="condensed"
    units-per-em="1000"
    panose-1="0 0 0 0 0 0 0 0 0 0"
    ascent="800"
    descent="-200"
    x-height="512"
    cap-height="706"
    bbox="-51 -221 974.006 919.001"
    underline-thickness="92"
    underline-position="-130"
    unicode-range="U+0020-U+2122"
  />
<missing-glyph horiz-adv-x="500" 
 />
    <glyph glyph-name=".notdef" horiz-adv-x="500" 
 />
    <glyph glyph-name="space" unicode=" " horiz-adv-x="229" 
 />
    <glyph glyph-name="space" unicode="&#xa0;" horiz-adv-x="229" 
 />
    <glyph glyph-name="exclam" unicode="!" horiz-adv-x="229" 
d="M75 0v132h119v-132h-119zM172 190h-78l-16 197v319h113v-313z" />
    <glyph glyph-name="quotedbl" unicode="&#x22;" horiz-adv-x="300" 
d="M95 452h-33l-37 289h104zM242 452h-33l-38 289h105z" />
    <glyph glyph-name="numbersign" unicode="#" horiz-adv-x="537" 
d="M245 405l-7 -89h71l8 89h-72zM413 405l-9 -89h106v-96h-114l-21 -220h-95l20 220h-71l-21 -220h-96l20 220h-117v96h126l8 89h-122v96h132l19 205h96l-19 -205h71l19 205h96l-20 -205h101v-96h-109z" />
    <glyph glyph-name="dollar" unicode="$" horiz-adv-x="417" 
d="M384 176c0 -40 -4.83398 -70.8291 -14.501 -92.4961s-21.834 -39.167 -36.501 -52.5c-18.667 -16 -36.667 -25.833 -54 -29.5s-30.666 -6.16699 -39.999 -7.5v-94h-51v94c-19.333 1.33301 -37.333 4.16602 -54 8.49902s-32.667 13.166 -48 26.499
c-11.333 10 -19.666 20 -24.999 30s-9 17.667 -11 23c-3.33301 9.33301 -5.83301 19.166 -7.5 29.499s-2.5 25.166 -2.5 44.499v78h111v-79c0 -3.33301 0.166992 -7.83301 0.5 -13.5s1.83301 -12.167 4.5 -19.5c2.66699 -8 6.66699 -14.167 12 -18.5s10.833 -7.5 16.5 -9.5
s11 -3.33301 16 -4s8.5 -1 10.5 -1c9.33301 0 16.833 1.16699 22.5 3.5s9.83398 4.16602 12.501 5.49902c12 8.66699 19.167 20.334 21.5 35.001s3.5 28.334 3.5 41.001c0 24 -3.33301 41.5 -10 52.5s-14 20.5 -22 28.5l-141 144c-4 4 -8.5 8.83301 -13.5 14.5
s-11.167 13.5 -18.5 23.5c-7.33301 10.667 -14 23.167 -20 37.5s-9 35.166 -9 62.499c0 2.66699 0.166992 8.16699 0.5 16.5s1.5 18 3.5 29s5.16699 22.667 9.5 35s10.5 23.5 18.5 33.5c9.33301 12 20.166 21.333 32.499 28s24.166 11.667 35.499 15s21.666 5.5 30.999 6.5
s16 1.5 20 1.5v81h51v-81l34 -6.5c15.333 -3 31 -11.167 47 -24.5c16.667 -13.333 29.334 -30.666 38.001 -51.999s13 -52.666 13 -93.999c0 -7.33301 -0.166992 -14.833 -0.5 -22.5s-0.5 -15.167 -0.5 -22.5h-112v66c0 9.33301 -0.5 18.666 -1.5 27.999
s-5.16699 17.666 -12.5 24.999s-14.666 11.5 -21.999 12.5s-12.666 1.5 -15.999 1.5c-15.333 0 -26.5 -3.33301 -33.5 -10s-11.833 -12.667 -14.5 -18c-1.33301 -2 -2.5 -5.5 -3.5 -10.5s-1.83301 -10.833 -2.5 -17.5c0 -3.33301 -0.166992 -6.5 -0.5 -9.5
s-0.5 -6.16699 -0.5 -9.5c0 -17.333 3 -30 9 -38s11.667 -15 17 -21l149 -155c6 -6 11.167 -11.5 15.5 -16.5s9.16602 -11.167 14.499 -18.5c12.667 -18 20.5 -35.833 23.5 -53.5s4.5 -37.5 4.5 -59.5z" />
    <glyph glyph-name="percent" unicode="%" horiz-adv-x="708" 
d="M185 562v14c0 5.33301 -1.16699 10.5 -3.5 15.5s-6.16602 9.16699 -11.499 12.5s-13.333 5 -24 5s-18.834 -1.83301 -24.501 -5.5s-9.66699 -8 -12 -13s-3.5 -10.333 -3.5 -16v-13.5v-241c0 -8.66699 1.16699 -15.834 3.5 -21.501s7.83301 -10.167 16.5 -13.5
c4 -1.33301 8.16699 -2.16602 12.5 -2.49902s6.83301 -0.5 7.5 -0.5c2.66699 0 6 0.166992 10 0.5s8.66699 1.83301 14 4.5c6 3.33301 10 7.5 12 12.5s3 13.5 3 25.5v237zM601 338v14c0 5.33301 -1.16699 10.5 -3.5 15.5s-6.16602 9.16699 -11.499 12.5s-13.333 5 -24 5
s-18.834 -1.83301 -24.501 -5.5s-9.66699 -8 -12 -13s-3.5 -10.333 -3.5 -16v-13.5v-241c0 -8.66699 1.16699 -15.834 3.5 -21.501s7.83301 -10.167 16.5 -13.5c4 -1.33301 8.16699 -2.16602 12.5 -2.49902s6.83301 -0.5 7.5 -0.5c2.66699 0 6 0.166992 10 0.5
s8.66699 1.83301 14 4.5c6 3.33301 10 7.5 12 12.5s3 13.5 3 25.5v237zM266 326c0 -6 -1 -16.165 -3 -30.498s-9 -28.5 -21 -42.5c-8 -9.33301 -16.667 -16.333 -26 -21s-18.5 -8 -27.5 -10s-17 -3.16699 -24 -3.5s-12.5 -0.5 -16.5 -0.5
c-3.33301 0 -10.333 0.166992 -21 0.5s-22.167 2.5 -34.5 6.5s-24.333 10.5 -36 19.5s-20.167 22.167 -25.5 39.5c-3.33301 9.33301 -5 18.333 -5 27v17v226c0 9.33301 0.166992 17.833 0.5 25.5s2.16602 16.167 5.49902 25.5c8.66699 25.333 23.834 42.666 45.501 51.999
s44.167 14 67.5 14c2.66699 0 9 -0.333008 19 -1s21 -2.83398 33 -6.50098s23.667 -9.5 35 -17.5s20 -19.333 26 -34c3.33301 -8 5.5 -16.5 6.5 -25.5s1.5 -17.5 1.5 -25.5v-235zM254 -44.998l-64 22l266 738l63 -23zM683 102.002
c0 -13.333 -1.50098 -25.665 -4.50098 -36.998s-9.16699 -22.666 -18.5 -33.999c-8 -9.33301 -16.833 -16.5 -26.5 -21.5s-19 -8.66699 -28 -11s-17.167 -3.66602 -24.5 -3.99902s-12.666 -0.5 -15.999 -0.5h-17.5c-8.33301 0 -17.5 1.16699 -27.5 3.5
s-20.333 6.33301 -31 12s-20 13.834 -28 24.501c-1.33301 1.33301 -3.33301 4.16602 -6 8.49902s-5 9.16602 -7 14.499s-3.5 11.666 -4.5 18.999s-1.5 16.666 -1.5 27.999v226c0 9.33301 0.333008 18 1 26s2.66699 16.667 6 26c2.66699 7.33301 6.66699 14.833 12 22.5
s12.5 14.667 21.5 21s20 11.5 33 15.5s28.5 6 46.5 6c2.66699 0 9 -0.333008 19 -1s21 -2.83398 33 -6.50098s23.667 -9.5 35 -17.5s20 -19.667 26 -35c2.66699 -6 4.66699 -12.667 6 -20s2 -17.333 2 -30v-235z" />
    <glyph glyph-name="ampersand" unicode="&#x26;" horiz-adv-x="521" 
d="M196 302c-14 -18 -26.166 -36.166 -36.499 -54.499s-15.5 -39.833 -15.5 -64.5c0 -2.66699 0.166992 -7.5 0.5 -14.5s2.16602 -14.167 5.49902 -21.5c6 -16 16.5 -28.833 31.5 -38.5s31.167 -14.5 48.5 -14.5c7.33301 0 16.833 1.16699 28.5 3.5
s25.167 8.16602 40.5 17.499zM275.001 590.001c0 15.333 -4.16797 25.335 -12.501 30.002s-15.166 7 -20.499 7c-13.333 -0.666992 -22.833 -6.33398 -28.5 -17.001s-8.5 -21.667 -8.5 -33c0 -8 1.16699 -16.667 3.5 -26s5 -17.833 8 -25.5l8 -20
c2.33301 -5.66699 3.83301 -8.83398 4.5 -9.50098l13.5 20.5l13.5 20.5c8 13.333 13.167 23.5 15.5 30.5s3.5 14.5 3.5 22.5zM505 -2.99707l-21.499 -3.50293c-10.333 -1.66699 -21.833 -2.5 -34.5 -2.5c-25.333 0 -45 4.16699 -59 12.5s-25 16.5 -33 24.5
c-24 -13.333 -45.667 -23.333 -65 -30s-42.333 -10 -69 -10c-6.66699 0 -17.167 0.666992 -31.5 2s-29.833 5 -46.5 11c-39.333 14.667 -68.833 38.5 -88.5 71.5s-29.5 69.5 -29.5 109.5c0 19.333 1.5 35.5 4.5 48.5s6.16699 23.167 9.5 30.5
c6.66699 18.667 15.334 36.167 26.001 52.5s21.5 30.833 32.5 43.5s21.167 23.334 30.5 32.001s16 14.667 20 18c-5.33301 9.33301 -10 18 -14 26c-1.33301 2.66699 -4 8.5 -8 17.5s-8.33301 20 -13 33s-8.66699 27.167 -12 42.5s-5 30.333 -5 45
c0 26.667 6.5 52.667 19.5 78s32.167 44 57.5 56c14 6.66699 27.667 10.5 41 11.5s22.666 1.5 27.999 1.5c4.66699 0 13 -0.5 25 -1.5s24.667 -4.16699 38 -9.5c6.66699 -3.33301 14.167 -7.66602 22.5 -12.999s16.166 -12.666 23.499 -21.999
s13.666 -20.666 18.999 -33.999s8 -29 8 -47c0 -21.333 -3 -41 -9 -59s-13.833 -35 -23.5 -51s-20.667 -31.333 -33 -46l-37.5 -45l92 -180l6 15c4 10 7.33301 22.333 10 37s4.33398 34 5.00098 58h103c-1.33301 -28.667 -4 -53.667 -8 -75s-8.83301 -40.333 -14.5 -57
s-12 -31.334 -19 -44.001s-14.5 -24.667 -22.5 -36c4 -4.66699 8.16699 -8.66699 12.5 -12s9.33301 -6 15 -8s12.5 -3.5 20.5 -4.5s17.667 -1.5 29 -1.5z" />
    <glyph glyph-name="quotesingle" unicode="'" horiz-adv-x="154" 
d="M95 452h-33l-37 289h104z" />
    <glyph glyph-name="parenleft" unicode="(" horiz-adv-x="292" 
d="M272 -182c-33.333 12 -64.998 28.334 -94.998 49.001c-40 28 -70.5 59.667 -91.5 95s-31.5 77.666 -31.5 126.999v411c0 34.667 5.83301 66 17.5 94s27.5 53.167 47.5 75.5s43.167 42.166 69.5 59.499s54.166 32.333 83.499 45v-93
c-40 -22.667 -66.5 -51.167 -79.5 -85.5s-19.5 -72.833 -19.5 -115.5v-397c0 -21.333 2 -40.166 6 -56.499s10.167 -31.5 18.5 -45.5s18.666 -27.167 30.999 -39.5s26.833 -24.5 43.5 -36.5v-87z" />
    <glyph glyph-name="parenright" unicode=")" horiz-adv-x="292" 
d="M238 91c0 -34.667 -6.00293 -66.001 -18.0029 -94.001s-28 -53.167 -48 -75.5s-43.167 -42 -69.5 -59s-53.833 -31.833 -82.5 -44.5v93c20 10.667 36.5 23.334 49.5 38.001s23.167 30.5 30.5 47.5s12.333 35.167 15 54.5s4 39.666 4 60.999v397
c0 22 -2.16699 41.167 -6.5 57.5s-10.666 31.333 -18.999 45s-18.666 26.334 -30.999 38.001s-26.5 24.167 -42.5 37.5v87c17.333 -5.33301 33.833 -12.333 49.5 -21s30.834 -18.334 45.501 -29.001c40 -29.333 70.5 -61.166 91.5 -95.499s31.5 -76.5 31.5 -126.5v-411z" />
    <glyph glyph-name="asterisk" unicode="*" horiz-adv-x="378" 
d="M260 523l60 -79l-68 -53l-64 83l-58 -83l-70 51l56 80l-96 28l25 83l98 -28v103h87v-104l100 34l28 -81z" />
    <glyph glyph-name="plus" unicode="+" horiz-adv-x="558" 
d="M339 249v-158h-119v158h-138v100h138v157h119v-157h137v-100h-137z" />
    <glyph glyph-name="comma" unicode="," horiz-adv-x="187" 
d="M70 -135h-44l68 135h-58v129h117v-129z" />
    <glyph glyph-name="hyphen" unicode="-" horiz-adv-x="314" 
d="M33 242v99h248v-99h-248z" />
    <glyph glyph-name="period" unicode="." horiz-adv-x="187" 
d="M35 0v129h117v-129h-117z" />
    <glyph glyph-name="slash" unicode="/" horiz-adv-x="250" 
d="M111 0h-99l130 706h98z" />
    <glyph glyph-name="zero" unicode="0" 
d="M251 512l-0.000976562 5.49902v11.5c0 4.66699 -0.333008 9.33398 -1 14.001s-1.66699 9 -3 13c-3.33301 11.333 -9.33301 19.333 -18 24s-18.667 7 -30 7c-15.333 0 -26.666 -3 -33.999 -9s-12.5 -13 -15.5 -21s-4.5 -15.833 -4.5 -23.5v-16.5v-374
c0 -3.33301 0.166992 -8.5 0.5 -15.5s2 -14 5 -21s8 -13 15 -18s17.167 -7.5 30.5 -7.5c8.66699 0 15.667 1 21 3s9.66602 4 12.999 6c10.667 7.33301 16.834 16.5 18.501 27.5s2.5 22.167 2.5 33.5v361zM365.999 151.999c0 -10 -0.329102 -19 -0.996094 -27
s-2.33398 -16.667 -5.00098 -26c-1.33301 -6 -3.83301 -13.833 -7.5 -23.5s-9.33398 -19.334 -17.001 -29.001s-17.334 -19 -29.001 -28s-26.167 -15.833 -43.5 -20.5c-6 -1.33301 -14 -2.83301 -24 -4.5s-22.667 -2.5 -38 -2.5c-23.333 0 -46.666 2.66699 -69.999 8
s-44 16.666 -62 33.999c-4 4 -8.83301 9.83301 -14.5 17.5s-10.834 18.167 -15.501 31.5c-3.33301 9.33301 -5.83301 19 -7.5 29s-2.5 24.667 -2.5 44v344c0 4.66699 0.166992 9.16699 0.5 13.5s0.5 9.16602 0.5 14.499c1.33301 17.333 3.66602 33 6.99902 47
s10.333 28 21 42c10.667 14.667 23 25.834 37 33.501s27.667 13.334 41 17.001s25.5 5.83398 36.5 6.50098s18.833 1 23.5 1c25.333 0 47.166 -2.66699 65.499 -8s33.833 -12.166 46.5 -20.499s22.834 -17.833 30.501 -28.5s13.5 -21.334 17.5 -32.001
c3.33301 -9.33301 5.83301 -19.333 7.5 -30s2.5 -26 2.5 -46v-357z" />
    <glyph glyph-name="one" unicode="1" 
d="M148 0l-0.000976562 506.999c-2.66699 -2 -5.16699 -4 -7.5 -6s-5.16602 -4 -8.49902 -6c-6.66699 -4 -17.167 -9 -31.5 -15s-31.833 -10.667 -52.5 -14l1 92c2.66699 1.33301 6 2.33301 10 3s8.66699 2.33398 14 5.00098c2.66699 0.666992 7 2.66699 13 6
s12.833 7.33301 20.5 12s15.5 10 23.5 16s15.667 12.667 23 20c6 6.66699 11 12.667 15 18s10.333 14.333 19 27h78v-665h-117z" />
    <glyph glyph-name="two" unicode="2" 
d="M21 0v16.001c0 30 2.33301 58.5 7 85.5s13.667 54.5 27 82.5c13.333 26.667 28.5 49.334 45.5 68.001s36.167 38.334 57.5 59.001l15.5 15.5l15.5 15.5l29 29.5c10 10.333 17.667 21.833 23 34.5c3.33301 7.33301 5.5 14.666 6.5 21.999s1.5 15 1.5 23v76
c0 9.33301 -1 18.333 -3 27s-6.66699 16 -14 22c-6 4.66699 -12.167 7.33398 -18.5 8.00098s-10.833 1 -13.5 1c-1.33301 0 -5.16602 -0.166992 -11.499 -0.5s-12.166 -1.83301 -17.499 -4.5c-12 -6 -19.5 -14.5 -22.5 -25.5s-4.5 -22.167 -4.5 -33.5v-79h-109v81
c0 20 2 38.5 6 55.5s12.667 33.167 26 48.5c10.667 12 22.667 21.167 36 27.5s26.166 11 38.499 14s23.5 4.66699 33.5 5s17 0.5 21 0.5c3.33301 0 11.666 -0.333008 24.999 -1s28.333 -3.33398 45 -8.00098s32.834 -12.334 48.501 -23.001s27.834 -26 36.501 -46
c5.33301 -12.667 8.83301 -26.167 10.5 -40.5s2.5 -22.833 2.5 -25.5v-88c0 -17.333 -0.666992 -30 -2 -38s-3.66602 -16.333 -6.99902 -25c-6.66699 -20 -20.334 -41.333 -41.001 -64s-47.667 -50.334 -81 -83.001l-44.5 -46c-15.667 -16.667 -26.834 -35 -33.501 -55
c-1.33301 -5.33301 -2.33301 -9.5 -3 -12.5s-1.33398 -9.16699 -2.00098 -18.5h221v-100h-350z" />
    <glyph glyph-name="three" unicode="3" 
d="M367 143c0 -16 -0.832031 -28.3291 -2.49902 -36.9961s-3.83398 -16.667 -6.50098 -24c-4 -10 -10 -20.333 -18 -31s-18.333 -20.5 -31 -29.5s-28 -16.333 -46 -22s-39.333 -8.5 -64 -8.5c-4 0 -13 0.5 -27 1.5s-29.167 4.16699 -45.5 9.5s-32.666 13.666 -48.999 24.999
s-28.833 27.333 -37.5 48c-3.33301 7.33301 -6 14.333 -8 21s-3 17.334 -3 32.001v81h115v-71c0 -14.667 1 -24.334 3 -29.001c3.33301 -7.33301 9 -14 17 -20s20.333 -9 37 -9c2.66699 0 6.66699 0.333008 12 1s11 2.66699 17 6
c9.33301 5.33301 15.166 12.166 17.499 20.499s3.5 17.166 3.5 26.499v100c0 12 -0.666992 23.667 -2 35s-7.33301 21.666 -18 30.999c-9.33301 8 -19.833 12.667 -31.5 14s-23.167 2 -34.5 2h-24v78h24h10c5.33301 0 11.166 0.666992 17.499 2s13 3.5 20 6.5
s13.167 7.16699 18.5 12.5c8.66699 8.66699 13.5 18.167 14.5 28.5s1.5 21.166 1.5 32.499v50v10c0 4.66699 -0.666992 9.83398 -2 15.501s-4 11.167 -8 16.5s-10.333 9.33301 -19 12c-4.66699 1.33301 -9.16699 2.33301 -13.5 3s-7.16602 1 -8.49902 1
c-2 0 -5.16699 -0.333008 -9.5 -1s-9.16602 -2 -14.499 -4s-10.333 -5.16699 -15 -9.5s-8 -10.166 -10 -17.499c-1.33301 -3.33301 -2 -6.83301 -2 -10.5v-6.5v-69h-110v83c0 4 0.666992 11.5 2 22.5s5 22.167 11 33.5c6.66699 14 15.834 25.333 27.501 34
s24.5 15.667 38.5 21s28.5 9 43.5 11s29.5 3 43.5 3c22 0 41.333 -2.16699 58 -6.5s31 -10 43 -17s22 -15 30 -24s14 -18.167 18 -27.5c3.33301 -6.66699 6.33301 -14.834 9 -24.501s4 -22.167 4 -37.5v-75c0 -13.333 -0.833008 -25.833 -2.5 -37.5
s-7.5 -22.834 -17.5 -33.501c-10.667 -11.333 -22.334 -18.833 -35.001 -22.5s-26 -6.83398 -40 -9.50098c13.333 -2 28.333 -5.16699 45 -9.5s29.667 -13.166 39 -26.499c7.33301 -11.333 11.666 -24.166 12.999 -38.499s2 -27.833 2 -40.5v-101z" />
    <glyph glyph-name="four" unicode="4" 
d="M119 219h105l7 331zM331 126v-126h-107v126h-203v93l171 449h139v-449h40v-93h-40z" />
    <glyph glyph-name="five" unicode="5" 
d="M367 155c0 -18 -0.833008 -31.834 -2.5 -41.501s-3.83398 -19.167 -6.50098 -28.5c-7.33301 -24 -18.5 -42.333 -33.5 -55s-30.667 -21.834 -47 -27.501s-31.666 -9 -45.999 -10s-24.5 -1.5 -30.5 -1.5c-2.66699 0 -8.33398 0.166992 -17.001 0.5
s-18.834 1.33301 -30.501 3s-24.167 4.66699 -37.5 9s-25.333 10.5 -36 18.5c-12.667 8.66699 -22.5 19 -29.5 31s-12.167 23.5 -15.5 34.5s-5.33301 21.167 -6 30.5s-1 16 -1 20v69h115v-68v-10c0 -4.66699 0.666992 -9.66699 2 -15c2 -6.66699 6.5 -13.667 13.5 -21
s18.833 -11 35.5 -11c15.333 0 26.833 3 34.5 9s12.834 12 15.501 18c2 4.66699 3.33301 9.33398 4 14.001s1 9.33398 1 14.001v165c0 12 -0.833008 24.167 -2.5 36.5s-8.5 22.166 -20.5 29.499c-3.33301 2 -7.16602 3.83301 -11.499 5.5s-10.5 2.5 -18.5 2.5
c-6.66699 0 -15.834 -2.16699 -27.501 -6.5s-21.167 -14.833 -28.5 -31.5c-2 -4.66699 -3.5 -8.66699 -4.5 -12s-2.16699 -9 -3.5 -17h-92l7 356h310v-100h-216l-2 -136c7.33301 5.33301 19 12.5 35 21.5s37 13.5 63 13.5c20 0 37.333 -3 52 -9s26.834 -13.167 36.501 -21.5
s17.167 -17.333 22.5 -27s9.33301 -18.167 12 -25.5s4.5 -15.166 5.5 -23.499s1.5 -20.833 1.5 -37.5v-165z" />
    <glyph glyph-name="six" unicode="6" 
d="M253 263c0 17.333 -1.33301 30.5 -4 39.5s-7.66699 16.167 -15 21.5c-2.66699 2 -6.66699 4.16699 -12 6.5s-12 3.5 -20 3.5c-2.66699 0 -7 -0.5 -13 -1.5s-12.333 -3.16699 -19 -6.5c-12 -7.33301 -19.167 -15.833 -21.5 -25.5s-3.5 -20.5 -3.5 -32.5v-109
c0 -11.333 0.666992 -22.5 2 -33.5s6.33301 -20.833 15 -29.5c7.33301 -7.33301 14.833 -11.5 22.5 -12.5s13.5 -1.5 17.5 -1.5c15.333 0 26.333 3.5 33 10.5s11 13.167 13 18.5c1.33301 3.33301 2.5 7.5 3.5 12.5s1.5 11.167 1.5 18.5v121zM367 145
c0 -3.33301 -0.165039 -12.165 -0.498047 -26.498s-3.16602 -28.166 -8.49902 -41.499c-4 -10.667 -9.83301 -21.167 -17.5 -31.5s-17.834 -19.5 -30.501 -27.5s-28 -14.5 -46 -19.5s-39.333 -7.5 -64 -7.5c-4 0 -11 0.166992 -21 0.5s-21.333 2 -34 5
s-25.834 7.5 -39.501 13.5s-26.167 14.667 -37.5 26c-9.33301 9.33301 -16.166 18.166 -20.499 26.499s-7.16602 14.833 -8.49902 19.5c-5.33301 13.333 -8 26.666 -8 39.999v25v383c0 6.66699 1 17.667 3 33s8 31 18 47c8 12.667 17.833 23.167 29.5 31.5
s24.167 14.833 37.5 19.5s27.333 8 42 10s29 3 43 3c11.333 0 23.666 -0.833008 36.999 -2.5s26.333 -4.66699 39 -9s24.5 -10 35.5 -17s19.833 -15.833 26.5 -26.5s11.667 -21.834 15 -33.501s5 -28.5 5 -50.5v-46h-110v36c0 9.33301 -0.833008 19.333 -2.5 30
s-7.83398 18.667 -18.501 24c-6 3.33301 -12 5.16602 -18 5.49902s-10 0.5 -12 0.5c-14.667 0 -25.834 -2.5 -33.501 -7.5s-13.167 -11 -16.5 -18s-5.16602 -14.167 -5.49902 -21.5s-0.5 -13.333 -0.5 -18v-131c4 3.33301 9.16699 7.33301 15.5 12s13.833 9.16699 22.5 13.5
s18.667 8 30 11s24 4.5 38 4.5c19.333 0 35.666 -2.83301 48.999 -8.5s24.333 -12.667 33 -21s15.167 -17.166 19.5 -26.499s7.5 -17.333 9.5 -24c1.33301 -6 2.5 -12.667 3.5 -20s1.5 -17.333 1.5 -30v-155z" />
    <glyph glyph-name="seven" unicode="7" 
d="M379 566c-4.66699 -7.33301 -9.16895 -14.833 -13.502 -22.5s-8.5 -15.5 -12.5 -23.5c-9.33301 -17.333 -22.333 -44.5 -39 -81.5s-32.334 -80.5 -47.001 -130.5c-3.33301 -10 -7.66602 -25.333 -12.999 -46s-10.833 -44.667 -16.5 -72s-10.334 -57.333 -14.001 -90
s-5.5 -66 -5.5 -100h-125c0 10 0.5 20.167 1.5 30.5s2.33301 21.5 4 33.5s3.83398 25.5 6.50098 40.5s6.33398 32.5 11.001 52.5c9.33301 42 20 81.667 32 119s24 71.5 36 102.5s23.333 58.167 34 81.5s19.667 42 27 56c4.66699 9.33301 9.33398 18 14.001 26l14 25h-156
v-78h-97v176h359v-99z" />
    <glyph glyph-name="eight" unicode="8" 
d="M252 247c0 10.667 -0.832031 20.8281 -2.49902 30.4951s-7.5 18.167 -17.5 25.5c-6.66699 4.66699 -13.167 7.33398 -19.5 8.00098s-10.833 1 -13.5 1c-14.667 0 -25.834 -2.66699 -33.501 -8s-13.167 -11.666 -16.5 -18.999s-5.16602 -14.666 -5.49902 -21.999
s-0.5 -13 -0.5 -17v-93c0 -19.333 2.16699 -33.666 6.5 -42.999s10.5 -16 18.5 -20c9.33301 -4.66699 19 -7 29 -7c2.66699 0 7 0.333008 13 1s12 2.66699 18 6c11.333 6 18.166 14.333 20.499 25s3.5 21.334 3.5 32.001v100zM248.001 528.994
c0 10 -1.33594 19.001 -4.00293 27.001s-8.66699 14.667 -18 20c-6 3.33301 -11.5 5.33301 -16.5 6s-8.83301 1 -11.5 1c-10.667 0 -20.667 -2.33301 -30 -7s-15.666 -12.667 -18.999 -24c-1.33301 -4 -2 -7.83301 -2 -11.5v-7.5v-81c0 -10 0.666992 -18 2 -24
s3.33301 -11 6 -15c3.33301 -5.33301 8.33301 -9.66602 15 -12.999s16.334 -5 29.001 -5c7.33301 0 14 0.833008 20 2.5s11.667 5.5 17 11.5c6.66699 7.33301 10.334 15.166 11.001 23.499s1 17.166 1 26.499v70zM364.998 152.995
c0 -23.333 -2.16895 -44.6689 -6.50195 -64.002s-15.833 -37.666 -34.5 -54.999c-12 -10.667 -24.167 -19 -36.5 -25s-24.166 -10.333 -35.499 -13s-21.666 -4.16699 -30.999 -4.5s-16.666 -0.5 -21.999 -0.5c-23.333 0 -43.833 2.5 -61.5 7.5s-33 11.333 -46 19
s-23.5 16.334 -31.5 26.001s-14.333 19.5 -19 29.5c-3.33301 8.66699 -6.33301 18 -9 28s-4 24 -4 42v85c0 12.667 0.333008 22.167 1 28.5s1.66699 12.833 3 19.5c4.66699 22.667 13.167 39.167 25.5 49.5s28.166 20.166 47.499 29.499
c-0.666992 0.666992 -4.83398 2.83398 -12.501 6.50098s-14.5 7.83398 -20.5 12.501c-9.33301 7.33301 -16.333 15.333 -21 24s-8 17.167 -10 25.5s-3.16699 15.833 -3.5 22.5s-0.5 12 -0.5 16v70c0 17.333 1.5 33.5 4.5 48.5s10.167 29.5 21.5 43.5
c4.66699 6 9.83398 11.333 15.501 16s11.834 9 18.501 13c9.33301 5.33301 19.5 9.33301 30.5 12s21.167 4.66699 30.5 6s17.666 2.16602 24.999 2.49902s12.333 0.5 15 0.5c45.333 0 79.666 -7.83301 102.999 -23.5s39 -33.167 47 -52.5
c3.33301 -8 5.83301 -17.167 7.5 -27.5s2.5 -24.5 2.5 -42.5v-58c0 -19.333 -0.666992 -33.333 -2 -42s-4.66602 -17.667 -9.99902 -27s-12 -17 -20 -23s-20.667 -13.667 -38 -23c12.667 -5.33301 22.334 -10 29.001 -14s12.667 -8.33301 18 -13
c13.333 -11.333 21.666 -24.333 24.999 -39s5 -30 5 -46v-90z" />
    <glyph glyph-name="nine" unicode="9" 
d="M250 525c0 10.667 -0.999023 20.498 -2.99902 29.498s-8 16.833 -18 23.5c-3.33301 2 -7.5 4 -12.5 6s-11.5 3 -19.5 3c-14.667 0 -25.834 -3 -33.501 -9s-13.167 -12.667 -16.5 -20s-5.16602 -14.833 -5.49902 -22.5s-0.5 -13.5 -0.5 -17.5v-116
c0 -15.333 0.666992 -26.666 2 -33.999s5 -14.666 11 -21.999c3.33301 -3.33301 8 -6.66602 14 -9.99902s14.667 -5 26 -5c10 0 18 1.16699 24 3.5s10.667 5.16602 14 8.49902c9.33301 8 14.666 17 15.999 27s2 20.667 2 32v123zM364.001 141.998
c0 -17.333 -1.49902 -33.3311 -4.49902 -47.998s-9.83301 -29.334 -20.5 -44.001c-17.333 -24 -39.833 -39.833 -67.5 -47.5s-55.5 -11.5 -83.5 -11.5c-4 0 -11 0.166992 -21 0.5s-21.5 2 -34.5 5s-26.167 7.66699 -39.5 14s-25.333 15.5 -36 27.5
c-3.33301 4 -7.66602 9.83301 -12.999 17.5s-9.66602 17.5 -12.999 29.5c-3.33301 14.667 -5 28.334 -5 41.001v53h115v-42c0 -5.33301 0.333008 -10.5 1 -15.5s1.66699 -10.167 3 -15.5c2.66699 -6.66699 7.66699 -12.834 15 -18.501s18.666 -8.5 33.999 -8.5
c2 0 5.5 0.166992 10.5 0.5s10.333 1.5 16 3.5s11.167 5.33301 16.5 10s9 11 11 19c1.33301 3.33301 2 6.66602 2 9.99902v14v141c-9.33301 -6.66699 -21.833 -14.834 -37.5 -24.501s-36.834 -14.5 -63.501 -14.5c-18.667 0 -34.667 2.16699 -48 6.5
s-24.5 9.83301 -33.5 16.5s-16.167 14 -21.5 22s-9.33301 16 -12 24c-2 6 -3.83301 12.333 -5.5 19s-2.5 16.334 -2.5 29.001v164c0 17.333 1.33301 33.333 4 48s8.66699 29.667 18 45c4 7.33301 9 14 15 20s12.333 11.333 19 16c11.333 7.33301 26.166 13.5 44.499 18.5
s42.5 7.5 72.5 7.5c22.667 0 42.5 -2 59.5 -6s31.667 -9.5 44 -16.5s22.5 -14.833 30.5 -23.5s14.333 -18 19 -28c4 -9.33301 7 -18.833 9 -28.5s3 -24.167 3 -43.5v-386z" />
    <glyph glyph-name="colon" unicode=":" horiz-adv-x="229" 
d="M76 0v130h120v-130h-120zM76 381v131h120v-131h-120z" />
    <glyph glyph-name="semicolon" unicode=";" horiz-adv-x="229" 
d="M112 -135h-45l71 135h-63v130h119v-130zM75 382v130h119v-130h-119z" />
    <glyph glyph-name="less" unicode="&#x3c;" horiz-adv-x="559" 
d="M87 269v107l358 195v-114l-249 -130l249 -127v-124z" />
    <glyph glyph-name="equal" unicode="=" horiz-adv-x="559" 
d="M85 162v98h389v-98h-389zM85 354v98h389v-98h-389z" />
    <glyph glyph-name="greater" unicode="&#x3e;" horiz-adv-x="559" 
d="M114 76v113l249 131l-249 127v124l358 -194v-106z" />
    <glyph glyph-name="question" unicode="?" horiz-adv-x="417" 
d="M142 0v130h116v-130h-116zM389 521c0 -18 -2.16797 -35.833 -6.50098 -53.5s-9.83301 -31.167 -16.5 -40.5l-68 -99c-13.333 -20 -23.166 -35.5 -29.499 -46.5s-10.166 -22.5 -11.499 -34.5c-1.33301 -6 -2 -12 -2 -18v-17v-22h-113v35v20c0 4.66699 0.333008 9 1 13
c2 17.333 5.66699 31.333 11 42s12.666 23.334 21.999 38.001l66 102l11 17c3.33301 5.33301 6.33301 11 9 17s4.66699 12.667 6 20s2 16.666 2 27.999v63c0 2.66699 -0.333008 6.66699 -1 12s-2.5 10.833 -5.5 16.5s-7.5 10.5 -13.5 14.5s-14.333 6 -25 6
c-19.333 0 -32.333 -5 -39 -15s-10 -23 -10 -39v-117h-111v74c0 3.33301 0.166992 12 0.5 26s1.5 27.667 3.5 41c2.66699 14.667 7 28.667 13 42s15 25.166 27 35.499s27.833 18.5 47.5 24.5s44.5 9 74.5 9h17.5c8.33301 0 18 -1 29 -3s22.5 -5 34.5 -9s23.333 -10 34 -18
c3.33301 -2 8 -6.16699 14 -12.5s11.333 -14.166 16 -23.499s8 -20.833 10 -34.5s3 -31.5 3 -53.5v-40z" />
    <glyph glyph-name="at" unicode="@" horiz-adv-x="834" 
d="M490 350c0 26 -6.00195 46.667 -18.002 62s-28 23 -48 23c-15.333 0 -30.166 -5.5 -44.499 -16.5s-27.166 -25.5 -38.499 -43.5s-20.333 -38.833 -27 -62.5s-10 -47.834 -10 -72.501c0 -25.333 5.33301 -45.333 16 -60s25.667 -22 45 -22c13.333 0 27.333 4.5 42 13.5
s27.667 21.833 39 38.5c6 8.66699 11.667 18.834 17 30.501s10 23.667 14 36s7.16699 24.833 9.5 37.5s3.5 24.667 3.5 36zM792.998 432c0 -47.333 -6.6709 -92.9941 -20.0039 -136.994s-31.166 -82.833 -53.499 -116.5s-48.166 -60.5 -77.499 -80.5
s-59.666 -30 -90.999 -30c-24 0 -43.833 6 -59.5 18s-25.5 28.667 -29.5 50c-37.333 -45.333 -79.333 -68 -126 -68c-42 0 -75 14.667 -99 44s-36 69.333 -36 120c0 38.667 6 75.667 18 111s28.167 66.333 48.5 93s43.833 48 70.5 64s54.667 24 84 24c16 0 31.667 -3 47 -9
c11.333 -4.66699 20.833 -10.5 28.5 -17.5s16.834 -18.167 27.501 -33.5l10 40h89l-35 -159c-11.333 -50.667 -19.333 -88.5 -24 -113.5s-7 -42.5 -7 -52.5c0 -18 6.66699 -27 20 -27c11.333 0 26 9 44 27c12.667 14 24.5 30.5 35.5 49.5s20.167 39.167 27.5 60.5
s13.166 43.666 17.499 66.999s6.5 46.333 6.5 69c0 67.333 -19.5 119.833 -58.5 157.5s-93.167 56.5 -162.5 56.5c-49.333 0 -96 -10.833 -140 -32.5s-82.667 -50.834 -116 -87.501s-59.833 -79.334 -79.5 -128.001s-29.5 -100.334 -29.5 -155.001c0 -42 6.5 -80 19.5 -114
s31.5 -62.667 55.5 -86c26 -25.333 58.167 -45 96.5 -59s78.5 -21 120.5 -21c58 0 114.667 12.333 170 37s107 61 155 109l45 -62l-36.5 -32.5c-10.333 -9 -20 -17 -29 -24s-18 -13.333 -27 -19l-29.5 -18.5c-40 -23.333 -80.167 -40.5 -120.5 -51.5
s-84.5 -16.5 -132.5 -16.5c-22 0 -43 1.33301 -63 4s-39 6.66699 -57 12c-30 8.66699 -59.167 21 -87.5 37s-52.166 33.667 -71.499 53c-62 60 -93 143 -93 249c0 67.333 11.667 130.166 35 188.499s55.333 109.166 96 152.499s88.667 77.5 144 102.5
s114.666 37.5 177.999 37.5c44.667 0 85.5 -6.83301 122.5 -20.5s68.833 -33 95.5 -58s47.334 -54.667 62.001 -89s22 -72.5 22 -114.5z" />
    <glyph glyph-name="A" unicode="A" horiz-adv-x="437" 
d="M222 527l-47 -303h90zM296 0l-17 115h-120l-19 -115h-130l137 706h149l132 -706h-132z" />
    <glyph glyph-name="B" unicode="B" horiz-adv-x="479" 
d="M308 256c0 10.667 -0.168945 18.499 -0.501953 23.499s-1.5 10.167 -3.5 15.5c-5.33301 14.667 -14.666 23.334 -27.999 26.001s-26.666 4 -39.999 4h-56v-223h55h16.5c5.66699 0 11.167 0.666992 16.5 2c14 2 24.167 8 30.5 18s9.5 27 9.5 51v83zM298.998 539.999
c0 8.66699 -0.168945 14.832 -0.501953 18.499s-1.16602 7.83398 -2.49902 12.501c-4.66699 16.667 -13.167 26.5 -25.5 29.5s-25.166 4.5 -38.499 4.5h-52v-178h47c9.33301 0 16.5 0.166992 21.5 0.5s9.5 0.833008 13.5 1.5c12.667 2.66699 22 8.5 28 17.5s9 24.167 9 45.5
v48zM435.996 150.997c0 -5.33301 -0.168945 -10.665 -0.501953 -15.998s-0.5 -10.666 -0.5 -15.999c0 -4 -0.666992 -10.5 -2 -19.5s-4 -18.833 -8 -29.5s-10.167 -21 -18.5 -31s-19.5 -18.333 -33.5 -25c-15.333 -7.33301 -31.666 -11.5 -48.999 -12.5
s-34.333 -1.5 -51 -1.5h-223v706h219c21.333 0 41.833 -1 61.5 -3s38.167 -10 55.5 -24c20 -15.333 32 -33 36 -53s6 -41.333 6 -64v-63v-6c0 -3.33301 -0.166992 -7.5 -0.5 -12.5s-0.833008 -10.333 -1.5 -16s-1.33398 -10.834 -2.00098 -15.501
c-3.33301 -14.667 -8.33301 -26.334 -15 -35.001s-13.667 -15.334 -21 -20.001s-14.833 -8 -22.5 -10s-14.167 -3.33301 -19.5 -4c20.667 -4 35.834 -8.66699 45.501 -14s17.834 -12 24.501 -20c11.333 -14.667 17.5 -30 18.5 -46s1.5 -32.333 1.5 -49v-100z" />
    <glyph glyph-name="C" unicode="C" horiz-adv-x="458" 
d="M430 165c0 -14 -0.5 -28.167 -1.5 -42.5s-3.83301 -28.166 -8.5 -41.499c-8.66699 -24.667 -22.167 -43.5 -40.5 -56.5s-37.166 -22.5 -56.499 -28.5s-37 -9.33301 -53 -10s-26 -1 -30 -1c-15.333 0 -29.166 0.833008 -41.499 2.5s-20.833 3.16699 -25.5 4.5
c-26 5.33301 -49.667 14.333 -71 27s-37.333 31.667 -48 57c-5.33301 13.333 -8.33301 25.666 -9 36.999s-1 23.666 -1 36.999v384c0 6 0.166992 12.167 0.5 18.5s0.833008 12.5 1.5 18.5c1.33301 22.667 5.5 42.834 12.5 60.501s19.5 33.834 37.5 48.501
c14.667 11.333 32.834 21 54.501 29s52.167 12 91.5 12c22.667 0 45.5 -2 68.5 -6s44.167 -12.667 63.5 -26c9.33301 -6.66699 17.833 -14.334 25.5 -23.001s13.834 -18.334 18.501 -29.001c5.33301 -11.333 8.66602 -22.166 9.99902 -32.499s2 -26.166 2 -47.499v-108h-128
v89c0 13.333 -0.833008 25.166 -2.5 35.499s-4.83398 19 -9.50098 26s-11.334 12.333 -20.001 16s-20.334 5.5 -35.001 5.5c-25.333 0 -41.666 -7.16699 -48.999 -21.5s-11 -32.833 -11 -55.5v-378c0 -11.333 0.833008 -22 2.5 -32s4.83398 -18.5 9.50098 -25.5
s11.167 -12.5 19.5 -16.5s19.166 -6 32.499 -6c14.667 0 26.167 2 34.5 6s14.666 9.66699 18.999 17s7 16.5 8 27.5s1.5 23.167 1.5 36.5v92h128v-100z" />
    <glyph glyph-name="D" unicode="D" horiz-adv-x="479" 
d="M308 531c0 11.333 -0.667969 22.167 -2.00098 32.5s-6.66602 19.5 -15.999 27.5c-8.66699 7.33301 -18.167 11.166 -28.5 11.499s-20.5 0.5 -30.5 0.5h-51v-500h46h18.5c6.33301 0 12.5 0.666992 18.5 2c10.667 2 19 5.33301 25 10s10.5 10.334 13.5 17.001
s4.83301 14 5.5 22s1 16.333 1 25v352zM437.999 190.001v-19.502c0 -6.33301 -0.333008 -12.833 -1 -19.5c-2 -37.333 -10 -66.166 -24 -86.499s-28 -34.5 -42 -42.5c-18 -10.667 -36.333 -17 -55 -19s-37.667 -3 -57 -3h-209v706h239c9.33301 0 23 -1.83301 41 -5.5
s36.667 -13.5 56 -29.5c24 -20.667 38.667 -43.667 44 -69s8 -52.666 8 -81.999v-330z" />
    <glyph glyph-name="E" unicode="E" horiz-adv-x="417" 
d="M50 0v706h342v-107h-212v-166h200v-107h-200v-217h222v-109h-352z" />
    <glyph glyph-name="F" unicode="F" 
d="M181 597v-177h202v-105h-202v-315h-131v706h346v-109h-215z" />
    <glyph glyph-name="G" unicode="G" horiz-adv-x="479" 
d="M322 0l-0.00390625 41.999c-7.33301 -7.33301 -12.666 -12.833 -15.999 -16.5s-7.33301 -7.16699 -12 -10.5c-9.33301 -7.33301 -19 -13 -29 -17s-19.5 -7 -28.5 -9s-17 -3.16699 -24 -3.5s-12.5 -0.5 -16.5 -0.5c-22 0 -41.167 2.66699 -57.5 8s-30.166 12 -41.499 20
s-20.5 16.833 -27.5 26.5s-12.167 18.834 -15.5 27.501c-4 10 -6.66699 20.167 -8 30.5s-2 20.833 -2 31.5v402c0 16 0.833008 31.833 2.5 47.5s5.16699 31.167 10.5 46.5c7.33301 19.333 17.833 35.333 31.5 48s29.167 22.5 46.5 29.5s35.5 11.833 54.5 14.5s37.5 4 55.5 4
c14 0 29.167 -0.833008 45.5 -2.5s32.166 -5 47.499 -10s29.666 -11.667 42.999 -20s24.333 -19.166 33 -32.499c10 -15.333 15.667 -30.333 17 -45s2 -24.667 2 -30v-103h-130v68c0 12 -0.666992 23.667 -2 35s-8 20.666 -20 27.999
c-3.33301 2 -8.16602 4.16699 -14.499 6.5s-14.5 3.5 -24.5 3.5c-3.33301 0 -9.16602 -0.5 -17.499 -1.5s-16.166 -4.16699 -23.499 -9.5c-10 -7.33301 -16.667 -17 -20 -29s-5 -29 -5 -51v-373v-14c0 -7.33301 1.66699 -15 5 -23
c3.33301 -7.33301 8.83301 -14.5 16.5 -21.5s20.834 -10.5 39.501 -10.5c3.33301 0 10.5 0.5 21.5 1.5s20.833 6.5 29.5 16.5c8 8.66699 12.5 18.5 13.5 29.5s1.5 22.167 1.5 33.5v110h-80v106h210v-383h-111z" />
    <glyph glyph-name="H" unicode="H" horiz-adv-x="479" 
d="M299 0v323h-119v-323h-130v706h130v-277h119v277h130v-706h-130z" />
    <glyph glyph-name="I" unicode="I" horiz-adv-x="229" 
d="M50 0v706h129v-706h-129z" />
    <glyph glyph-name="J" unicode="J" 
d="M346 160c0 -3.33301 -0.335938 -12.833 -1.00293 -28.5s-3 -31.167 -7 -46.5c-7.33301 -26 -19.5 -45.833 -36.5 -59.5s-34.667 -23.5 -53 -29.5s-35.333 -9.33301 -51 -10s-26.167 -1 -31.5 -1c-3.33301 0 -9.16602 0.166992 -17.499 0.5s-18.166 1.5 -29.499 3.5
s-23.166 5 -35.499 9s-23.833 10 -34.5 18c-5.33301 4 -11.833 10.167 -19.5 18.5s-14.167 20.166 -19.5 35.499c-4 12.667 -6.5 24.5 -7.5 35.5s-1.5 18.833 -1.5 23.5v95h121v-67c0 -18 1.33301 -31.667 4 -41s8.66699 -16.666 18 -21.999c8 -4 16 -6 24 -6
c3.33301 0 7.5 0.5 12.5 1.5s10.167 3.5 15.5 7.5c8 6 13.167 13.833 15.5 23.5s3.5 23.167 3.5 40.5v545h131v-546z" />
    <glyph glyph-name="K" unicode="K" horiz-adv-x="458" 
d="M320 0l-138 345v-345h-132v706h132v-275l141 275h134l-161 -305l165 -401h-141z" />
    <glyph glyph-name="L" unicode="L" horiz-adv-x="375" 
d="M50 0v706h130v-599h191v-107h-321z" />
    <glyph glyph-name="M" unicode="M" horiz-adv-x="688" 
d="M508 0l12 612l-114 -612h-121l-117 612l10 -612h-128v706h212l83 -494l84 494h209v-706h-130z" />
    <glyph glyph-name="N" unicode="N" horiz-adv-x="500" 
d="M286 0l-125 529l11 -529h-122v706h167l127 -518l-13 518h119v-706h-164z" />
    <glyph glyph-name="O" unicode="O" horiz-adv-x="479" 
d="M304 535l-0.000976562 21.999c0 12.667 -2.66699 24.334 -8 35.001c-3.33301 6.66699 -9 13.5 -17 20.5s-20.333 10.5 -37 10.5c-3.33301 0 -9.16602 -0.666992 -17.499 -2s-16.5 -5 -24.5 -11c-7.33301 -5.33301 -12.666 -11 -15.999 -17s-5.66602 -12.5 -6.99902 -19.5
s-2 -14.167 -2 -21.5v-22v-357c0 -10.667 0.333008 -21.834 1 -33.501s4.33398 -22.167 11.001 -31.5c4 -5.33301 8.66699 -9.33301 14 -12s10.666 -4.66699 15.999 -6s10.166 -2.16602 14.499 -2.49902s7.16602 -0.5 8.49902 -0.5c3.33301 0 9 0.666992 17 2
s16 4.66602 24 9.99902c12 8.66699 18.833 19.334 20.5 32.001s2.5 25.667 2.5 39v365zM434.999 150.999c0 -22.667 -2.5 -44.0029 -7.5 -64.0029s-16.167 -38.333 -33.5 -55c-21.333 -19.333 -45.333 -32 -72 -38s-53.667 -9 -81 -9c-26 0 -51.667 2.5 -77 7.5
s-48.666 16.167 -69.999 33.5c-10.667 8.66699 -18.667 16.834 -24 24.501s-9 14.167 -11 19.5c-6 12.667 -10 26 -12 40s-3 27.667 -3 41v396c0 4 0.166992 10.833 0.5 20.5s1.66602 20.834 3.99902 33.501s6.5 25.5 12.5 38.5s15 24.833 27 35.5
c13.333 11.333 32.333 21.833 57 31.5s57 14.5 97 14.5c50.667 0 90.167 -8.66699 118.5 -26s47.833 -36.333 58.5 -57c5.33301 -11.333 9.33301 -23.666 12 -36.999s4 -32.333 4 -57v-393z" />
    <glyph glyph-name="P" unicode="P" horiz-adv-x="458" 
d="M303 530v29.999c0 10 -3.33301 19 -10 27c-4 4.66699 -8.5 8.16699 -13.5 10.5s-9.83301 3.83301 -14.5 4.5s-8.83398 0.833984 -12.501 0.500977s-6.16699 -0.5 -7.5 -0.5h-64v-207h63c13.333 0 24 1 32 3s14 5.66699 18 11c4.66699 6 7.33398 13.833 8.00098 23.5
s1 18.167 1 25.5v72zM431 453.999c0 -33.333 -1.33203 -59.168 -3.99902 -77.501s-9.66699 -34.166 -21 -47.499c-10.667 -13.333 -24.5 -22.5 -41.5 -27.5s-41.5 -7.5 -73.5 -7.5h-110v-294h-131v706h262c2 0 6.5 -0.166992 13.5 -0.5s14.167 -1.16602 21.5 -2.49902
c21.333 -4.66699 37.333 -12.334 48 -23.001s17.667 -19.667 21 -27c7.33301 -15.333 11.666 -33 12.999 -53s2 -37.667 2 -53v-93z" />
    <glyph glyph-name="Q" unicode="Q" horiz-adv-x="479" 
d="M302 558c0 4.66699 -0.499023 10.667 -1.49902 18s-3.5 14.5 -7.5 21.5s-10.167 12.833 -18.5 17.5s-19.833 7 -34.5 7c-3.33301 0 -8 -0.333008 -14 -1s-12.667 -2.66699 -20 -6c-15.333 -7.33301 -24.333 -18 -27 -32s-4 -28 -4 -42v-390c0 -6 0.5 -12.5 1.5 -19.5
s3.66699 -13.667 8 -20s10.666 -11.666 18.999 -15.999s19.833 -6.5 34.5 -6.5c16.667 0 29.5 3.16699 38.5 9.5s15.333 13.666 19 21.999s5.66699 16.833 6 25.5s0.5 15.667 0.5 21v391zM405.001 -93l-89.0039 90.998l-6 -2l-6 -2
c-6 -1.33301 -15.833 -3.16602 -29.5 -5.49902s-29.167 -3.5 -46.5 -3.5c-26 0 -52.167 3.5 -78.5 10.5s-49.166 20.167 -68.499 39.5c-7.33301 8 -13 15.333 -17 22s-6.66699 12 -8 16c-6 13.333 -9.5 26.5 -10.5 39.5s-1.5 21.5 -1.5 25.5v412
c0 15.333 0.833008 29.833 2.5 43.5s5.83398 27.5 12.501 41.5c5.33301 10.667 12.833 21.167 22.5 31.5s21.834 19.5 36.501 27.5s32.167 14.5 52.5 19.5s43.5 7.5 69.5 7.5c24.667 0 49.834 -3 75.501 -9s48.5 -17.333 68.5 -34c3.33301 -2.66699 8.33301 -7.5 15 -14.5
s12.667 -15.833 18 -26.5c5.33301 -11.333 9.33301 -23.5 12 -36.5s4 -31.833 4 -56.5v-397c0 -24 -1.66699 -41.667 -5 -53s-8 -22.666 -14 -33.999l71 -74z" />
    <glyph glyph-name="R" unicode="R" horiz-adv-x="479" 
d="M308 547c0 13.333 -1.16797 23.168 -3.50098 29.501s-6.16602 12.166 -11.499 17.499c-7.33301 6 -14.5 9.33301 -21.5 10s-14.833 1 -23.5 1h-68v-193h68c8.66699 0 17.5 1 26.5 3s16.5 6.66699 22.5 14c5.33301 6 8.5 12.333 9.5 19s1.5 17 1.5 31v68z
M328.999 0.00195312c-1.33301 2 -2.33496 3.83301 -3.00195 5.5s-1.66699 3.5 -3 5.5c-2.66699 5.33301 -5.5 12.666 -8.5 21.999s-4.5 21 -4.5 35v161v16.5c0 5.66699 -0.333008 11.5 -1 17.5c-2 19.333 -9.33301 32.166 -22 38.499s-27.667 9.5 -45 9.5h-62v-311h-130v706
h260c15.333 0 30.166 -1.33301 44.499 -4s28.166 -9 41.499 -19c10.667 -8 18.667 -16.833 24 -26.5s9.33301 -20 12 -31s4.16699 -22.333 4.5 -34s0.5 -23.167 0.5 -34.5v-76v-10.5c0 -5.66699 -0.5 -12.167 -1.5 -19.5s-2.33301 -15.166 -4 -23.499
s-4.5 -15.833 -8.5 -22.5c-1.33301 -1.33301 -3.16602 -4 -5.49902 -8s-5.5 -7.66699 -9.5 -11c-7.33301 -6 -15.166 -10.667 -23.499 -14s-21.166 -7 -38.499 -11c1.33301 0 6.33301 -1.33301 15 -4s16.667 -6 24 -10c14 -7.33301 24.833 -16.333 32.5 -27
s13.334 -21.167 17.001 -31.5s5.83398 -20.166 6.50098 -29.499s1 -16.333 1 -21v-144v-10c0 -6 0.5 -13.333 1.5 -22s2.66699 -17.667 5 -27s6.16602 -17.333 11.499 -24c1.33301 -2.66699 3 -4.66699 5 -6s4.33301 -3 7 -5h-143z" />
    <glyph glyph-name="S" unicode="S" horiz-adv-x="458" 
d="M424 197l-0.00585938 -34.998c0 -10 -0.333008 -19 -1 -27s-1.33398 -15.333 -2.00098 -22s-2 -13.334 -4 -20.001c-4 -14 -10.167 -27.5 -18.5 -40.5s-19.666 -24.5 -33.999 -34.5s-32.166 -18 -53.499 -24s-47 -9 -77 -9c-25.333 0 -50.5 2.5 -75.5 7.5
s-48.167 15.833 -69.5 32.5c-11.333 9.33301 -19.666 18.333 -24.999 27s-9.33301 15.667 -12 21c-4 10 -7.33301 19.667 -10 29s-4 24 -4 44v103h129v-82c0 -13.333 0.666992 -26.666 2 -39.999s8.33301 -24 21 -32c4 -2.66699 9.16699 -5 15.5 -7s14.5 -3 24.5 -3
c11.333 0 20.5 1.16699 27.5 3.5s12.833 5.5 17.5 9.5c9.33301 7.33301 14.833 18.833 16.5 34.5s2.5 35.5 2.5 59.5c0 4.66699 -0.333008 13.667 -1 27s-5 26 -13 38c-5.33301 7.33301 -11 13.333 -17 18l-13 10l-123 83c-13.333 9.33301 -24.166 17.666 -32.499 24.999
s-17.166 18.333 -26.499 33c-7.33301 12.667 -13.333 27 -18 43s-7 39 -7 69v14.5c0 7 0.5 15 1.5 24s2.66699 18.667 5 29s5.83301 20.166 10.5 29.499c10 21.333 24 37.833 42 49.5s36.333 20.167 55 25.5s35.5 8.5 50.5 9.5s24.167 1.5 27.5 1.5
c5.33301 0 15.5 -0.5 30.5 -1.5s31.333 -4.33301 49 -10s35 -14.834 52 -27.501s30.167 -30.667 39.5 -54l5 -12c1.33301 -3.33301 2.5 -7.16602 3.5 -11.499s1.66699 -9.16602 2 -14.499s0.5 -12.333 0.5 -21v-70h-130v72c0 5.33301 -0.666992 11 -2 17s-4 11.5 -8 16.5
s-9.83301 9.16699 -17.5 12.5s-17.834 5 -30.501 5c-15.333 0 -28.833 -4.33301 -40.5 -13s-17.5 -27.667 -17.5 -57v-8.5c0 -5 0.333008 -11 1 -18s2 -14.167 4 -21.5s5 -14 9 -20c3.33301 -4.66699 12.333 -12.334 27 -23.001l126 -87
c4.66699 -3.33301 12.834 -9.83301 24.501 -19.5s22.834 -21.5 33.501 -35.5c8 -10 13.833 -19.667 17.5 -29s6.33398 -18.833 8.00098 -28.5s2.5 -19.667 2.5 -30v-34.5z" />
    <glyph glyph-name="T" unicode="T" 
d="M263 604v-604h-131v604h-130v102h392v-102h-131z" />
    <glyph glyph-name="U" unicode="U" horiz-adv-x="479" 
d="M431 159c0 -21.333 -1.83008 -41.001 -5.49707 -59.001s-12.5 -36 -26.5 -54c-12.667 -16 -27.5 -28.333 -44.5 -37s-33.5 -14.667 -49.5 -18s-30.5 -5.16602 -43.5 -5.49902s-21.5 -0.5 -25.5 -0.5c-26 0 -51.667 3.5 -77 10.5s-47.666 20.5 -66.999 40.5
c-3.33301 3.33301 -8 9.16602 -14 17.499s-11.333 18.5 -16 30.5c-5.33301 12.667 -8.83301 25.667 -10.5 39s-2.5 26.333 -2.5 39v544h130v-525c0 -9.33301 0.333008 -18.666 1 -27.999s2.66699 -18.333 6 -27c3.33301 -7.33301 7.66602 -13 12.999 -17
s10.666 -7 15.999 -9s10.333 -3.16699 15 -3.5s8 -0.5 10 -0.5c3.33301 0 8.66602 0.5 15.999 1.5s14.666 4.16699 21.999 9.5c12.667 8.66699 19.5 20.167 20.5 34.5s1.5 27.833 1.5 40.5v524h131v-547z" />
    <glyph glyph-name="V" unicode="V" horiz-adv-x="417" 
d="M277 0h-131l-140 706h138l69 -467l64 467h133z" />
    <glyph glyph-name="W" unicode="W" horiz-adv-x="708" 
d="M561 0h-137l-68 482l-76 -482h-139l-129 706h135l71 -532l76 532h123l74 -532l74 532h132z" />
    <glyph glyph-name="X" unicode="X" horiz-adv-x="479" 
d="M322 0l-83 245l-84 -245h-141l156 376l-139 330h142l67 -199l68 199h142l-141 -334l156 -372h-143z" />
    <glyph glyph-name="Y" unicode="Y" horiz-adv-x="417" 
d="M275 209v-209h-133v218l-141 488h137l72 -356l69 356h137z" />
    <glyph glyph-name="Z" unicode="Z" horiz-adv-x="417" 
d="M165 110h227v-110h-369v82l225 515h-196v109h344v-70z" />
    <glyph glyph-name="bracketleft" unicode="[" horiz-adv-x="333" 
d="M50 -172v931h240v-89h-122v-752h123v-90h-241z" />
    <glyph glyph-name="backslash" unicode="\" horiz-adv-x="250" 
d="M142 0l-130 706h99l129 -706h-98z" />
    <glyph glyph-name="bracketright" unicode="]" horiz-adv-x="333" 
d="M44 -172v90h122v752h-123v89h241v-931h-240z" />
    <glyph glyph-name="asciicircum" unicode="^" horiz-adv-x="559" 
d="M386 358l-105 242l-107 -242h-123l174 348h110l173 -348h-122z" />
    <glyph glyph-name="underscore" unicode="_" horiz-adv-x="500" 
d="M-10 -221v92h520v-92h-520z" />
    <glyph glyph-name="grave" unicode="`" horiz-adv-x="250" 
d="M148 574l-133 132h153l67 -132h-87z" />
    <glyph glyph-name="a" unicode="a" 
d="M233 258l-58.0029 -38.001c-5.33301 -4 -8.66602 -6.66699 -9.99902 -8c-7.33301 -7.33301 -12 -16.5 -14 -27.5s-3 -26.5 -3 -46.5c0 -19.333 1.83301 -34.166 5.5 -44.499s11.5 -15.166 23.5 -14.499c8.66699 0 16.334 1.66699 23.001 5s13.334 7.66602 20.001 12.999
l13 11v150zM249.997 -0.000976562c-5.33301 5.33301 -8.66699 10.999 -10 16.999s-2.66602 15.333 -3.99902 28c-3.33301 -3.33301 -6.33301 -6.5 -9 -9.5s-5.66699 -6.16699 -9 -9.5c-6.66699 -6.66699 -16.667 -14.5 -30 -23.5s-31.666 -13.5 -54.999 -13.5
c-5.33301 0 -14 0.833008 -26 2.5s-24 7.16699 -36 16.5c-10.667 8 -18.667 17.5 -24 28.5s-9.16602 22.667 -11.499 35s-3.5 24.833 -3.5 37.5v36c0 18.667 0.666992 37 2 55s8.66602 34.667 21.999 50c7.33301 8.66699 15.666 15.834 24.999 21.501s19 11.167 29 16.5
l124 62v30c0 15.333 -1 27 -3 35s-6.33301 14.333 -13 19c-2.66699 1.33301 -6 2.83301 -10 4.5s-9.33301 2.5 -16 2.5c-2.66699 0 -8.33398 -0.833008 -17.001 -2.5s-15.334 -7.5 -20.001 -17.5c-2 -4.66699 -3.16699 -11 -3.5 -19s-0.5 -17.667 -0.5 -29v-19h-109v58
c0 6 1.5 16.333 4.5 31s11.167 28.667 24.5 42c10.667 10.667 26.5 19.667 47.5 27s48.167 11 81.5 11c4 0 11.833 -0.333008 23.5 -1s24.667 -3 39 -7s28.5 -10.333 42.5 -19s25.667 -21 35 -37c6 -10.667 9.5 -20.334 10.5 -29.001s1.5 -15.334 1.5 -20.001v-285v-26.5
c0 -10.333 0.333008 -21.166 1 -32.499s2 -22.166 4 -32.499s5.33301 -18.5 10 -24.5c0.666992 -2.66699 3.33398 -5.66699 8.00098 -9h-125z" />
    <glyph glyph-name="b" unicode="b" horiz-adv-x="417" 
d="M258 373c0 8.66699 -0.668945 16.999 -2.00195 24.999s-5.33301 15 -12 21c-8 8 -18.333 12 -31 12c-5.33301 0 -13.166 -1.5 -23.499 -4.5s-18.166 -11.833 -23.499 -26.5c-1.33301 -4.66699 -2.33301 -9.33398 -3 -14.001s-1 -11.667 -1 -21v-207v-9
c0 -4 0.333008 -8.66699 1 -14c2 -15.333 6.66699 -26.666 14 -33.999s19 -11 35 -11c3.33301 0 8.33301 0.5 15 1.5s12.667 5.16699 18 12.5c5.33301 6.66699 8.83301 13.834 10.5 21.501s2.5 18.5 2.5 32.5v215zM378.998 112.999c0 -14 -0.833008 -24.835 -2.5 -32.502
s-3.5 -14.5 -5.5 -20.5c-8 -22 -21.333 -39.333 -40 -52s-39.667 -19 -63 -19c-7.33301 0 -19.5 2 -36.5 6s-33.5 13.667 -49.5 29c-5.33301 5.33301 -9.33301 9.83301 -12 13.5s-4.66699 6.83398 -6 9.50098l-1 -47h-119v706h119v-234
c3.33301 3.33301 6.66602 6.33301 9.99902 9l10 8l11.5 7.5c5.66699 3.66699 12.334 7.33398 20.001 11.001s16.334 7 26.001 10s19.5 4.5 29.5 4.5c21.333 0 41.5 -6.16699 60.5 -18.5s32.167 -28.833 39.5 -49.5c3.33301 -9.33301 5.66602 -17.833 6.99902 -25.5
s2 -16.167 2 -25.5v-290z" />
    <glyph glyph-name="c" unicode="c" 
d="M367 145v-17.5059c0 -7.66699 -0.833008 -16.167 -2.5 -25.5s-4.5 -19.166 -8.5 -29.499s-10 -20.5 -18 -30.5c-10.667 -13.333 -22.834 -23.666 -36.501 -30.999s-27 -12.5 -40 -15.5s-24.667 -4.66699 -35 -5s-17.5 -0.5 -21.5 -0.5
c-37.333 0 -66.5 4.83301 -87.5 14.5s-37.167 20.834 -48.5 33.501l-9 13c-4.66699 6.66699 -8.66699 14.334 -12 23.001c-4 10.667 -6.66699 21.334 -8 32.001s-2 21.667 -2 33v227c0 18.667 1.83301 35.834 5.5 51.501s11.167 31.167 22.5 46.5
c10.667 14 23.334 25 38.001 33s28.667 13.833 42 17.5s25.5 5.83398 36.5 6.50098s18.5 1 22.5 1c2.66699 0 10.667 -0.333008 24 -1s28 -3.5 44 -8.5s32 -12.667 48 -23s28 -25.166 36 -44.499c3.33301 -7.33301 5.83301 -15.833 7.5 -25.5s2.5 -23.167 2.5 -40.5v-61
h-117v62c0 6.66699 -0.166992 11.667 -0.5 15s-0.833008 6.66602 -1.5 9.99902c-1.33301 5.33301 -5.16602 12.166 -11.499 20.499s-16.833 12.166 -31.5 11.499c-7.33301 0 -13.166 -0.833008 -17.499 -2.5s-7.83301 -3.16699 -10.5 -4.5
c-8 -5.33301 -13.5 -12.666 -16.5 -21.999s-4.5 -22.666 -4.5 -39.999v-223c0 -9.33301 0.166992 -16.333 0.5 -21s1.16602 -9.33398 2.49902 -14.001c3.33301 -10.667 8.83301 -18.667 16.5 -24s16.834 -8 27.501 -8c1.33301 0 4.66602 0.333008 9.99902 1
s10.666 2.66699 15.999 6c9.33301 6.66699 15 15.667 17 27s3 22 3 32v59h118v-58z" />
    <glyph glyph-name="d" unicode="d" horiz-adv-x="417" 
d="M253 372c0 11.333 -0.99707 21.168 -2.99707 29.501s-8.33301 15.5 -19 21.5c-6.66699 3.33301 -12.334 5.5 -17.001 6.5s-8.66699 1.5 -12 1.5c-2.66699 0 -6.33398 -0.5 -11.001 -1.5s-9.66699 -3.16699 -15 -6.5c-10 -7.33301 -15.667 -15.833 -17 -25.5
s-2 -20.167 -2 -31.5v-218c0 -15.333 1 -26.333 3 -33s6.66699 -12.334 14 -17.001c2 -1.33301 5.66699 -3 11 -5s11.333 -3 18 -3c18 0 31.667 6.66699 41 20c3.33301 5.33301 5.66602 10.833 6.99902 16.5s2 14.167 2 25.5v220zM252.003 0.00195312l0.999023 50
c-3.33301 -4 -7.33301 -9.5 -12 -16.5s-11 -13.833 -19 -20.5s-17.667 -12.167 -29 -16.5s-24.666 -6.5 -39.999 -6.5c-18 0 -32.833 2.66699 -44.5 8s-20.5 10 -26.5 14c-9.33301 6.66699 -16.833 14.167 -22.5 22.5s-10 18 -13 29s-5 23.833 -6 38.5s-1.5 32 -1.5 52v233
v21.5c0 9.66699 1.5 20.167 4.5 31.5s8.16699 23 15.5 35s18 22.333 32 31c4.66699 2.66699 12 6.16699 22 10.5s22.333 6.5 37 6.5c22 0 41 -5.33301 57 -16s31.333 -22.667 46 -36v235h119v-706h-120z" />
    <glyph glyph-name="e" unicode="e" 
d="M242 377c0 2.66699 -0.166016 6.83301 -0.499023 12.5s-1.66602 11.334 -3.99902 17.001s-6.33301 10.667 -12 15s-13.834 6.5 -24.501 6.5s-19 -2 -25 -6s-10.333 -8.83301 -13 -14.5s-4.33398 -11.334 -5.00098 -17.001s-1 -10.167 -1 -13.5v-63h85v63z
M157.001 229.999l-0.00195312 -84.002c0 -9.33301 0.166992 -16.166 0.5 -20.499s1.16602 -8.83301 2.49902 -13.5c4 -13.333 10.5 -21.5 19.5 -24.5s16.167 -4.5 21.5 -4.5c19.333 0 32 9.33301 38 28c1.33301 3.33301 2.33301 8 3 14s1 12 1 18v16v10h115v-41
c0 -9.33301 -0.166992 -17.166 -0.5 -23.499s-1.83301 -13.833 -4.5 -22.5c-5.33301 -18 -13 -33 -23 -45s-21.667 -21.5 -35 -28.5s-28.166 -11.833 -44.499 -14.5s-32.833 -4 -49.5 -4c-26 0 -48 3 -66 9s-33 13.667 -45 23s-21.333 19.833 -28 31.5
s-11.667 23.167 -15 34.5c-3.33301 12.667 -5.66602 26.167 -6.99902 40.5s-2 23.166 -2 26.499v216c0 4 0.666992 13.167 2 27.5s5 28.166 11 41.499c6 14.667 14.5 27.334 25.5 38.001s23.333 19.167 37 25.5s28 11 43 14s30.167 4.5 45.5 4.5
c20.667 0 39.167 -2.33301 55.5 -7s30.333 -10.667 42 -18s21.334 -15.166 29.001 -23.499s13.5 -16.5 17.5 -24.5c4.66699 -9.33301 8.16699 -19 10.5 -29s3.5 -24.667 3.5 -44v-146h-203z" />
    <glyph glyph-name="f" unicode="f" horiz-adv-x="250" 
d="M240 608c-18 2 -29.6641 2.32715 -34.9971 0.994141s-9.5 -3.66602 -12.5 -6.99902s-5.16699 -6.66602 -6.5 -9.99902s-2.16602 -6.66602 -2.49902 -9.99902s-0.5 -5.66602 -0.5 -6.99902v-63h53v-79h-54v-433h-118v433h-53v79h53v59v27.5
c0 5.66699 0.166992 9.83398 0.5 12.501s1.16602 7.66699 2.49902 15c2 16 6.16699 28.333 12.5 37s12.166 15.334 17.499 20.001c14 12 29.5 19.167 46.5 21.5s34.5 3.5 52.5 3.5c7.33301 0 14.666 -0.166992 21.999 -0.5s14.666 -0.833008 21.999 -1.5v-98z" />
    <glyph glyph-name="g" unicode="g" horiz-adv-x="417" 
d="M252 370v14.0049c0 6.66699 -1.5 13.5 -4.5 20.5s-7.83301 13.333 -14.5 19s-16.334 8.5 -29.001 8.5c-2 0 -6 -0.333008 -12 -1s-11.667 -3.33398 -17 -8.00098c-6.66699 -5.33301 -11.5 -11.5 -14.5 -18.5s-4.5 -18.167 -4.5 -33.5v-228
c0 -7.33301 0.333008 -13.333 1 -18s1.66699 -8.66699 3 -12c2 -6.66699 5 -11.834 9 -15.501s8.16699 -6.33398 12.5 -8.00098s8.5 -2.66699 12.5 -3s7 -0.5 9 -0.5c12.667 0 22.334 2.33301 29.001 7s11.5 10.167 14.5 16.5s4.66699 12.666 5 18.999
s0.5 11.166 0.5 14.499v227zM373 -17.9951c0 -5.33301 -0.166016 -10.833 -0.499023 -16.5s-0.833008 -11.167 -1.5 -16.5c0 -4.66699 -0.666992 -11 -2 -19s-3.66602 -16.833 -6.99902 -26.5s-8.33301 -19.334 -15 -29.001s-16 -18.5 -28 -26.5
c-10 -7.33301 -25.167 -14.166 -45.5 -20.499s-45.5 -9.5 -75.5 -9.5c-10.667 0 -18.834 0.333008 -24.501 1l-16.5 2c-4 0.666992 -10.833 2 -20.5 4s-20 5.66699 -31 11s-21.667 12.666 -32 21.999s-18.5 21.666 -24.5 36.999c-3.33301 10 -5.5 20.333 -6.5 31
s-1.5 21.334 -1.5 32.001h118v-9.5c0 -5 0.666992 -9.83301 2 -14.5c1.33301 -5.33301 5.16602 -11.666 11.499 -18.999s17.166 -11 32.499 -11c7.33301 0 13 0.833008 17 2.5s7.33301 3.16699 10 4.5c10 5.33301 16 13.166 18 23.499s3 20.5 3 30.5v79
c-4 -4.66699 -8.83301 -9.83398 -14.5 -15.501s-12.5 -11 -20.5 -16s-17.667 -9.33301 -29 -13s-24.666 -5.5 -39.999 -5.5s-28 1.83301 -38 5.5s-17.667 6.83398 -23 9.50098c-23.333 12.667 -37.5 29 -42.5 49s-7.5 41.333 -7.5 64v271c0 10 0.333008 19.5 1 28.5
s2.66699 18.167 6 27.5c2 6 5.16699 13.167 9.5 21.5s10.5 16.333 18.5 24s18 14.167 30 19.5s26.667 8 44 8c23.333 0 42.833 -4.66699 58.5 -14s31.5 -21.666 47.5 -36.999v41h120v-530z" />
    <glyph glyph-name="h" unicode="h" horiz-adv-x="417" 
d="M254 0l-0.00292969 363.999c0 10.667 -0.166992 18.667 -0.5 24s-1.5 10.666 -3.5 15.999c-3.33301 7.33301 -8.66602 13 -15.999 17s-15.333 6 -24 6c-16 0 -27.167 -4.5 -33.5 -13.5s-10.166 -16.167 -11.499 -21.5c-1.33301 -4 -2 -7.33301 -2 -10v-11v-371h-119v706
h117l1 -235l13.5 13.5c5.66699 5.66699 12.667 11.334 21 17.001s18.333 10.5 30 14.5s24.834 6 39.501 6c23.333 0 44 -6 62 -18s30.667 -29.333 38 -52c2 -6 3.66699 -12.667 5 -20s2 -17.666 2 -30.999v-401h-119z" />
    <glyph glyph-name="i" unicode="i" horiz-adv-x="208" 
d="M44 0v512h120v-512h-120zM44 586v120h120v-120h-120z" />
    <glyph glyph-name="j" unicode="j" horiz-adv-x="208" 
d="M164 -48l0.000976562 -17.5c0 -9 -1.33301 -19.167 -4 -30.5s-7.16699 -22.833 -13.5 -34.5s-15.5 -21.5 -27.5 -29.5c-12 -7.33301 -24.833 -12 -38.5 -14s-27.167 -3 -40.5 -3c-4.66699 0 -11 0.166992 -19 0.5s-17.667 1.16602 -29 2.49902v99c12 0 20.667 0.5 26 1.5
s10.666 3.83301 15.999 8.5c6.66699 6 10.167 12.333 10.5 19s0.5 17.334 0.5 32.001v526h119v-560zM45.001 587v119h119v-119h-119z" />
    <glyph glyph-name="k" unicode="k" 
d="M272 0l-110 261v-261h-118v706h118v-369l98 175h132l-131 -213l145 -299h-134z" />
    <glyph glyph-name="l" unicode="l" horiz-adv-x="208" 
d="M44 0v706h120v-706h-120z" />
    <glyph glyph-name="m" unicode="m" horiz-adv-x="625" 
d="M462 0l-0.00195312 379.003c0 10 -0.666992 19.5 -2 28.5s-6.66602 16.833 -15.999 23.5c-2.66699 1.33301 -6 2.83301 -10 4.5s-9 2.5 -15 2.5c-20 0 -33 -6.83301 -39 -20.5s-9 -28.5 -9 -44.5v-373h-118v376c0 10.667 -0.333008 20.667 -1 30
s-5.66699 17.666 -15 24.999c-6.66699 6 -16 9 -28 9s-21.167 -2.83301 -27.5 -8.5s-10.833 -12 -13.5 -19s-4.16699 -13.833 -4.5 -20.5s-0.5 -11 -0.5 -13v-379h-118v512h119v-34c3.33301 2.66699 7.83301 6.66699 13.5 12s12.834 10.333 21.501 15
s18.5 8.83398 29.5 12.501s23.167 5.5 36.5 5.5c14 0 26.167 -2 36.5 -6s19.5 -8.83301 27.5 -14.5s14.5 -11.334 19.5 -17.001s9.16699 -10.167 12.5 -13.5c10 8.66699 18.667 15.667 26 21s14.166 9.66602 20.499 12.999s12.333 6 18 8s12.167 3.66699 19.5 5
c8.66699 1.33301 15.334 2.16602 20.001 2.49902s9 0.5 13 0.5c23.333 0 44 -6 62 -18s30 -29.333 36 -52c2 -6.66699 3.33301 -13 4 -19s1 -15 1 -27v-406h-119z" />
    <glyph glyph-name="n" unicode="n" horiz-adv-x="417" 
d="M255 0v376.999c0 16 -1 27.833 -3 35.5s-7 14.167 -15 19.5c-2 1.33301 -4.83301 2.66602 -8.5 3.99902s-8.5 2 -14.5 2c-14 0 -24.5 -3.16699 -31.5 -9.5s-12 -13.5 -15 -21.5s-4.5 -15.667 -4.5 -23v-15v-369h-119v512h121l-1 -37c15.333 15.333 30.333 27 45 35
s33.667 12 57 12s44.833 -6 64.5 -18s32.5 -30 38.5 -54c2 -7.33301 3.16699 -14.166 3.5 -20.499s0.5 -16.166 0.5 -29.499v-400h-118z" />
    <glyph glyph-name="o" unicode="o" 
d="M240 386c0 16 -1.16797 28.002 -3.50098 36.002s-7.5 14.667 -15.5 20c-4 3.33301 -8.16699 5.16602 -12.5 5.49902s-7.5 0.5 -9.5 0.5c-6.66699 0 -11.834 -0.833008 -15.501 -2.5s-6.5 -3.16699 -8.5 -4.5c-9.33301 -7.33301 -14.666 -15.833 -15.999 -25.5
s-2 -19.834 -2 -30.501v-260c0 -2 0.166992 -6 0.5 -12s1.66602 -12 3.99902 -18s6.33301 -11.333 12 -16s13.834 -7 24.501 -7c11.333 0 19.833 2.5 25.5 7.5s9.83398 10.5 12.501 16.5s4 12 4 18v12v260zM357.999 132.002c0 -18 -1.83008 -34.0029 -5.49707 -48.0029
s-11.5 -28 -23.5 -42c-11.333 -13.333 -23.833 -23.666 -37.5 -30.999s-27 -12.5 -40 -15.5s-24.833 -4.66699 -35.5 -5s-18.334 -0.5 -23.001 -0.5c-12 0 -22.333 0.5 -31 1.5s-15.334 2.16699 -20.001 3.5c-5.33301 0.666992 -12.166 2.5 -20.499 5.5
s-17.333 7.66699 -27 14s-18.834 14.333 -27.501 24s-15.334 22.167 -20.001 37.5c-3.33301 8.66699 -5.66602 17.834 -6.99902 27.501s-2 23.5 -2 41.5v229c0 17.333 0.833008 30.5 2.5 39.5s4.16699 17.5 7.5 25.5c6 16 14.5 29.333 25.5 40s23.333 19.167 37 25.5
s28.167 10.833 43.5 13.5s30.666 4 45.999 4c4 0 12.333 -0.333008 25 -1s26.667 -3.33398 42 -8.00098s30.333 -12.167 45 -22.5s26 -24.833 34 -43.5c4 -9.33301 7 -18.666 9 -27.999s3 -22.666 3 -39.999v-247z" />
    <glyph glyph-name="p" unicode="p" horiz-adv-x="417" 
d="M259 377c0 14.667 -1.66797 25.335 -5.00098 32.002s-8.66602 12.334 -15.999 17.001c-2 1.33301 -5.16699 2.83301 -9.5 4.5s-9.83301 2.5 -16.5 2.5c-10.667 0 -19.667 -2.33301 -27 -7c-10 -6 -16.167 -13.5 -18.5 -22.5s-3.5 -18.833 -3.5 -29.5v-230v-11.5
c0 -5.66699 1.33301 -11.5 4 -17.5c5.33301 -13.333 13.166 -21.333 23.499 -24s17.5 -4 21.5 -4c12.667 0 22.334 2.66699 29.001 8s11 10.666 13 15.999c2.66699 5.33301 4.16699 11.166 4.5 17.499s0.5 10.166 0.5 11.499v237zM378.999 115.001
c0 -4.66699 -0.834961 -14.6689 -2.50195 -30.002s-6.5 -30.666 -14.5 -45.999c-5.33301 -9.33301 -12.666 -18.333 -21.999 -27c-5.33301 -4.66699 -13.333 -9.5 -24 -14.5s-24.667 -7.5 -42 -7.5c-24.667 0 -45 5 -61 15s-32.667 22.667 -50 38v-220h-119v689h119v-39
c2.66699 2.66699 7.33398 6.66699 14.001 12s14.5 10.833 23.5 16.5s19.333 10.5 31 14.5s24.5 6 38.5 6c3.33301 0 8.33301 -0.333008 15 -1s14 -2.5 22 -5.5s16.167 -7.16699 24.5 -12.5s16.166 -12.666 23.499 -21.999c10.667 -14.667 17.334 -30 20.001 -46s4 -32 4 -48
v-272z" />
    <glyph glyph-name="q" unicode="q" horiz-adv-x="417" 
d="M254 385c0 1.33301 -0.167969 4.16797 -0.500977 8.50098s-1.16602 8.5 -2.49902 12.5c-3.33301 10 -9.33301 17.5 -18 22.5s-18 7.5 -28 7.5c-5.33301 0 -10 -0.5 -14 -1.5s-7 -2.16699 -9 -3.5c-10.667 -4.66699 -17.5 -10.834 -20.5 -18.501
s-4.5 -16.834 -4.5 -27.501v-243c0 -3.33301 0.166992 -8 0.5 -14s2 -12 5 -18s7.66699 -11.167 14 -15.5s15.5 -6.5 27.5 -6.5c13.333 0 23.333 2.66699 30 8s11.5 11.333 14.5 18s4.66699 13.334 5 20.001s0.5 11.667 0.5 15v236zM254.999 -176.998v220
c-4 -3.33301 -8 -7 -12 -11s-8.33301 -7.66699 -13 -11c-13.333 -11.333 -26.5 -19.5 -39.5 -24.5s-28.167 -7.5 -45.5 -7.5s-32 2.83301 -44 8.5s-21.833 12.334 -29.5 20.001s-13.5 15.5 -17.5 23.5s-7 15 -9 21c-3.33301 10.667 -5.33301 20.834 -6 30.501
s-1 16.167 -1 19.5v279c0 9.33301 0.5 18.666 1.5 27.999s3.16699 18.666 6.5 27.999c8 24 22 42.5 42 55.5s42.667 19.5 68 19.5c13.333 0 25.5 -1.83301 36.5 -5.5s20.5 -8 28.5 -13s14.833 -10 20.5 -15s10.167 -9.16699 13.5 -12.5v36h118v-689h-118z" />
    <glyph glyph-name="r" unicode="r" horiz-adv-x="292" 
d="M278 403c-4.66699 2 -9.83301 3.83301 -15.5 5.5s-13.5 2.5 -23.5 2.5c-3.33301 0 -9.33301 -0.5 -18 -1.5s-17.667 -4.5 -27 -10.5c-8 -6 -14.167 -12.833 -18.5 -20.5s-7.5 -15.667 -9.5 -24s-3.16699 -17 -3.5 -26s-0.5 -17.833 -0.5 -26.5v-302h-118v512h119l-1 -65
l6 12c2.66699 5.33301 6.66699 11.333 12 18c8 10.667 16.667 19.167 26 25.5s18.5 10.833 27.5 13.5s17.5 4.16699 25.5 4.5s14.667 0.5 20 0.5z" />
    <glyph glyph-name="s" unicode="s" horiz-adv-x="375" 
d="M341 148c0 -19.333 -1.16699 -38.666 -3.5 -57.999s-10.166 -37.333 -23.499 -54c-11.333 -13.333 -26.833 -24.333 -46.5 -33s-47.834 -13 -84.501 -13c-14 0 -28.333 0.833008 -43 2.5s-28.5 5.16699 -41.5 10.5s-24.833 12.5 -35.5 21.5s-19 21.167 -25 36.5
c-5.33301 13.333 -8.5 26.5 -9.5 39.5s-1.5 21.833 -1.5 26.5v53h110v-40c0 -8.66699 0.166992 -15 0.5 -19s1.16602 -8.33301 2.49902 -13c1.33301 -6 5 -13 11 -21s16.667 -12 32 -12c2 0 5.66699 0.333008 11 1s10.666 2.66699 15.999 6s10 9 14 17s6 18.667 6 32
c0 9.33301 -0.5 17 -1.5 23s-2.66699 11.333 -5 16s-5.83301 9 -10.5 13s-10.667 8.66699 -18 14l-100 71c-24 16.667 -40.167 34 -48.5 52s-12.5 41.667 -12.5 71c0 25.333 3.83301 46.5 11.5 63.5s18.334 30.5 32.001 40.5s29.834 17 48.501 21s39.667 6 63 6
c38 0 67.5 -5.5 88.5 -16.5s35.5 -23.833 43.5 -38.5c6 -10 9.83301 -20.167 11.5 -30.5s2.5 -20.833 2.5 -31.5v-57h-103v37c0 2 -0.166992 6 -0.5 12s-1.83301 12.333 -4.5 19s-7 12.5 -13 17.5s-14.667 7.5 -26 7.5c-2.66699 0 -5.66699 -0.166992 -9 -0.5
s-7.66602 -1.83301 -12.999 -4.5c-7.33301 -4.66699 -12.333 -10.667 -15 -18s-4 -15 -4 -23c0 -15.333 2.83301 -26.5 8.5 -33.5s14.167 -14.5 25.5 -22.5l110 -77c5.33301 -3.33301 10.666 -8 15.999 -14l15 -17c6 -8.66699 10.667 -19.334 14 -32.001s5 -29.667 5 -51z
" />
    <glyph glyph-name="t" unicode="t" horiz-adv-x="271" 
d="M263 1c-6.66699 -1.33301 -14.665 -2.66797 -23.998 -4.00098s-21.666 -2 -36.999 -2c-34.667 0 -61.5 3.83301 -80.5 11.5s-32.167 19.834 -39.5 36.501c-4.66699 9.33301 -7.5 19 -8.5 29s-1.5 20 -1.5 30v331h-65v79h64v186h118v-186h71v-79h-71v-292
c0 -8 0.166992 -13.667 0.5 -17s1.16602 -7 2.49902 -11c3.33301 -12 10 -19.667 20 -23s20.333 -5 31 -5c3.33301 0 6.66602 0.166992 9.99902 0.5s6.66602 0.833008 9.99902 1.5v-86z" />
    <glyph glyph-name="u" unicode="u" horiz-adv-x="417" 
d="M253 0l-0.00390625 41.9971c-3.33301 -3.33301 -8.16602 -7.83301 -14.499 -13.5s-14.166 -11.167 -23.499 -16.5s-20 -10.166 -32 -14.499s-25 -6.5 -39 -6.5c-5.33301 0 -13.666 1 -24.999 3s-23 7 -35 15c-10 7.33301 -17.833 15.5 -23.5 24.5s-9.66699 18.5 -12 28.5
s-3.66602 20.5 -3.99902 31.5s-0.5 21.833 -0.5 32.5v386h120v-368c0 -9.33301 0.166992 -18.166 0.5 -26.499s3.83301 -15.833 10.5 -22.5c8.66699 -8.66699 19.334 -13 32.001 -13c2 0 6.16699 0.5 12.5 1.5s12.166 3.83301 17.499 8.5
c4.66699 4 8.16699 9.16699 10.5 15.5s4 12.5 5 18.5s1.33301 11.333 1 16s-0.5 7.33398 -0.5 8.00098v362h120v-512h-120z" />
    <glyph glyph-name="v" unicode="v" horiz-adv-x="354" 
d="M230 0h-116l-113 512h119l53 -355l61 355h119z" />
    <glyph glyph-name="w" unicode="w" horiz-adv-x="562" 
d="M443 0h-112l-50 304l-60 -304h-113l-104 512h116l54 -338l60 338h97l54 -338l58 338h116z" />
    <glyph glyph-name="x" unicode="x" horiz-adv-x="375" 
d="M243 0l-58 207l-58 -207h-123l111 278l-90 234h123l44 -171l46 171h115l-92 -234l110 -278h-128z" />
    <glyph glyph-name="y" unicode="y" horiz-adv-x="354" 
d="M236 -37c-5.33301 -26.667 -11.168 -47.832 -17.501 -63.499s-13.833 -28.834 -22.5 -39.501c-9.33301 -11.333 -21.5 -20.333 -36.5 -27s-37.167 -10 -66.5 -10c-15.333 0 -28.166 0.833008 -38.499 2.5l-38.5 6.5l18 94c4 -1.33301 9.66699 -2.83301 17 -4.5
s16.666 -2.5 27.999 -2.5c10 0 18.5 2.33301 25.5 7s12.5 10.5 16.5 17.5s6.83301 14.333 8.5 22s2.83398 14.5 3.50098 20.5l1 14l-133 512h118l66 -329l51 329h117z" />
    <glyph glyph-name="z" unicode="z" horiz-adv-x="354" 
d="M24 0v100l179 316h-160v96h282v-96l-177 -316h185v-100h-309z" />
    <glyph glyph-name="braceleft" unicode="{" horiz-adv-x="354" 
d="M312 -182c-21.333 0 -41.8301 1.16602 -61.4971 3.49902s-37.5 7.16602 -53.5 14.499s-30 18.166 -42 32.499s-20.667 33.5 -26 57.5c-2.66699 11.333 -4.5 25 -5.5 41s-1.5 32.667 -1.5 50s0.166992 34 0.5 50s0.5 29.667 0.5 41c0 18 -0.333008 35.333 -1 52
s-3.66699 31.834 -9 45.501s-13.666 25 -24.999 34s-28 14.833 -50 17.5v77c7.33301 1.33301 15.166 3 23.499 5s15.833 5 22.5 9c10 6.66699 17.667 15.334 23 26.001s9.16602 22.167 11.499 34.5s3.66602 25 3.99902 38s0.5 24.833 0.5 35.5v91
c0 15.333 0.166992 31.666 0.5 48.999s2.5 33.666 6.5 48.999c6 22.667 15 40.834 27 54.501s26 24 42 31s33.667 11.667 53 14s39.333 3.5 60 3.5h24v-75c-9.33301 -0.666992 -19.333 -1.5 -30 -2.5s-20.667 -3.16699 -30 -6.5c-10 -4 -17.667 -10.167 -23 -18.5
s-9.16602 -17.833 -11.499 -28.5s-3.66602 -21.5 -3.99902 -32.5s-0.5 -20.833 -0.5 -29.5c0 -22.667 0.166992 -45.167 0.5 -67.5s-0.166992 -44.833 -1.5 -67.5c-0.666992 -18 -2.33398 -35.167 -5.00098 -51.5s-7.5 -31.166 -14.5 -44.499s-16.833 -24.5 -29.5 -33.5
s-29.334 -15.167 -50.001 -18.5v-5c22 -3.33301 39.5 -10.166 52.5 -20.499s22.833 -22.666 29.5 -36.999s11 -30.333 13 -48s3.33301 -35.834 4 -54.501c0.666992 -21.333 1 -42.5 1 -63.5v-63.5c0 -10 0.166992 -20.5 0.5 -31.5s2 -21.5 5 -31.5s7.66699 -19 14 -27
s15.166 -13.667 26.499 -17c8.66699 -2.66699 17.5 -4.16699 26.5 -4.5s17.833 -0.833008 26.5 -1.5v-75h-24z" />
    <glyph glyph-name="bar" unicode="|" horiz-adv-x="205" 
d="M46 -168v930h114v-930h-114z" />
    <glyph glyph-name="braceright" unicode="}" horiz-adv-x="354" 
d="M336 257c-6.66699 -1.33301 -13.6738 -2.49512 -21.0068 -3.49512s-13.666 -3.16699 -18.999 -6.5c-12 -6.66699 -21.167 -15.334 -27.5 -26.001s-10.666 -22.334 -12.999 -35.001s-3.66602 -25.667 -3.99902 -39s-0.5 -26 -0.5 -38v-99
c0 -14.667 -0.166992 -29.5 -0.5 -44.5s-2.16602 -29.5 -5.49902 -43.5c-6 -22.667 -14.833 -40.834 -26.5 -54.501s-25.334 -24.167 -41.001 -31.5s-33 -12.166 -52 -14.499s-38.833 -3.5 -59.5 -3.5h-28v75c9.33301 0.666992 19.166 1.33398 29.499 2.00098
s19.833 2.66699 28.5 6c10.667 4 18.834 10.167 24.501 18.5s9.83398 17.666 12.501 27.999s4.16699 21.166 4.5 32.499s0.5 21.666 0.5 30.999v66.5c0 22.333 0.333008 44.5 1 66.5c0.666992 18 2.33398 35.167 5.00098 51.5s7.5 31.166 14.5 44.499
s16.833 24.666 29.5 33.999s29.334 15.666 50.001 18.999v5c-21.333 3.33301 -38.166 9.66602 -50.499 18.999s-22 20.5 -29 33.5s-11.833 27.833 -14.5 44.5s-4.33398 34 -5.00098 52c-1.33301 23.333 -1.83301 46.333 -1.5 69s0.5 45.667 0.5 69
c0 8.66699 -0.166992 17.834 -0.5 27.501s-1.5 19 -3.5 28s-5.33301 17.5 -10 25.5s-11 14.667 -19 20c-10 6.66699 -20.833 10.334 -32.5 11.001l-34.5 2v75h24c21.333 0 41.833 -1.16699 61.5 -3.5s37.667 -7.33301 54 -15s30.333 -18.667 42 -33s20.5 -33.5 26.5 -57.5
c2 -10 3.5 -23.167 4.5 -39.5s1.5 -33.5 1.5 -51.5s-0.166992 -35.167 -0.5 -51.5s-0.5 -29.166 -0.5 -38.499c0 -11.333 0.166992 -23.833 0.5 -37.5s2 -27.167 5 -40.5s7.5 -25.5 13.5 -36.5s15 -19.5 27 -25.5c6 -3.33301 12.333 -5.5 19 -6.5
s13.334 -2.16699 20.001 -3.5v-77z" />
    <glyph glyph-name="asciitilde" unicode="~" horiz-adv-x="563" 
d="M502 288c-23.333 -24.667 -44.998 -42.668 -64.998 -54.001s-40.667 -17 -62 -17c-12 0 -24.5 2 -37.5 6s-30.167 11 -51.5 21l-26 12c-16.667 7.33301 -30.5 12.833 -41.5 16.5s-21.5 5.5 -31.5 5.5c-19.333 0 -37.333 -6.66699 -54 -20
c-2.66699 -2.66699 -5 -4.83398 -7 -6.50098s-4 -3.66699 -6 -6l-7 -8l-10 -11.5l-42 91c11.333 13.333 19.666 22.5 24.999 27.5s12 10.5 20 16.5c22.667 18 48.667 27 78 27c12 0 23.667 -1.5 35 -4.5s26.333 -8.5 45 -16.5l50 -22
c17.333 -7.33301 29.666 -12.166 36.999 -14.499s15 -3.5 23 -3.5c13.333 0 26.5 3.83301 39.5 11.5s28.167 20.834 45.5 39.501z" />
    <glyph glyph-name="exclamdown" unicode="&#xa1;" horiz-adv-x="229" 
d="M38 0v313l19 203h78l16 -197v-319h-113zM35 574v132h119v-132h-119z" />
    <glyph glyph-name="cent" unicode="&#xa2;" 
d="M249 317v64.001c0 2 -0.166992 6 -0.5 12s-1.66602 12.167 -3.99902 18.5s-6.66602 11.833 -12.999 16.5s-15.5 7 -27.5 7c-14 0 -24.333 -3.16699 -31 -9.5s-11.334 -13.333 -14.001 -21s-3.83398 -15 -3.50098 -22s0.5 -10.833 0.5 -11.5v-234c0 -22 4.5 -37 13.5 -45
s20.167 -12.333 33.5 -13c12.667 0 22.334 2.5 29.001 7.5s11.167 11 13.5 18s3.5 13.5 3.5 19.5v12v68h117v-67c0 -10.667 -1 -24 -3 -40s-7.5 -31.667 -16.5 -47s-22.5 -28.833 -40.5 -40.5s-43.333 -18.834 -76 -21.501v-99h-50v99c-32.667 4 -58.334 11.333 -77.001 22
s-32.834 23.167 -42.501 37.5s-15.667 29.333 -18 45s-3.5 30.167 -3.5 43.5v242c0 1.33301 0.166992 6.66602 0.5 15.999s1.5 18.333 3.5 27c6 24 16 42.5 30 55.5s28.5 22.833 43.5 29.5s28.667 10.834 41 12.501s19.833 2.5 22.5 2.5v83h50v-83
c10 -1.33301 22.833 -3.33301 38.5 -6s30.834 -8.66699 45.501 -18s27.167 -23 37.5 -41s15.5 -42.333 15.5 -73v-66h-118z" />
    <glyph glyph-name="sterling" unicode="&#xa3;" horiz-adv-x="479" 
d="M149 74c-8.66699 7.33301 -17.167 12.5 -25.5 15.5s-14.5 4.5 -18.5 4.5c-7.33301 0 -13.5 -2.5 -18.5 -7.5s-7.5 -10.833 -7.5 -17.5c0.666992 -7.33301 3.5 -13.333 8.5 -18s11.167 -7 18.5 -7c10 0.666992 18.167 4.16699 24.5 10.5s12.5 12.833 18.5 19.5zM457 122
c0 -2 -0.335938 -8.82422 -1.00293 -20.4912s-2.33398 -22.5 -5.00098 -32.5c-2 -7.33301 -5.16699 -15.5 -9.5 -24.5s-10.5 -17.833 -18.5 -26.5s-18.5 -15.834 -31.5 -21.501s-29.167 -8.5 -48.5 -8.5c-4 0 -9.83301 0.333008 -17.5 1s-16.167 2.66699 -25.5 6
c-8.66699 2.66699 -21.167 7.5 -37.5 14.5s-33.833 16.833 -52.5 29.5l-12.5 -12.5c-5.66699 -5.66699 -12.667 -11.334 -21 -17.001s-18 -10.667 -29 -15s-23.5 -6.5 -37.5 -6.5c-3.33301 0 -8.33301 0.333008 -15 1s-14 2.66699 -22 6c-4 2 -9 4.83301 -15 8.5
s-11.667 8.5 -17 14.5s-9.83301 13.5 -13.5 22.5s-5.5 19.5 -5.5 31.5c0 25.333 8.5 45.833 25.5 61.5s37.833 23.5 62.5 23.5c8 0 16 -0.833008 24 -2.5s15.5 -3.66699 22.5 -6s13.167 -4.5 18.5 -6.5s8.66602 -3.33301 9.99902 -4l5.5 13.5
c2.33301 5.66699 3.5 13.167 3.5 22.5c0 11.333 -3 25.666 -9 42.999s-15.333 37.666 -28 60.999h-111v61h86l-18 42c-2 5.33301 -5 12.666 -9 21.999s-7.66699 20.333 -11 33s-6.33301 26.667 -9 42s-4 31.666 -4 48.999c0 37.333 5.33301 66.166 16 86.499
s22.334 36.166 35.001 47.499c10.667 9.33301 25.834 18.666 45.501 27.999s45.834 14 78.501 14c21.333 0 42.833 -2.83301 64.5 -8.5s40.834 -15.167 57.501 -28.5c10 -8 18.333 -17.167 25 -27.5s12.334 -21.5 17.001 -33.5
c4.66699 -13.333 7.83398 -25.833 9.50098 -37.5s2.5 -24.167 2.5 -37.5v-49h-115v41c0 10 -0.5 20 -1.5 30s-3.5 19 -7.5 27s-9.83301 14.667 -17.5 20s-17.834 8 -30.501 8c-3.33301 0 -8.33301 -0.5 -15 -1.5s-13.667 -4.5 -21 -10.5
c-8.66699 -7.33301 -15 -16.666 -19 -27.999s-6 -27.666 -6 -48.999c0 -34 5.33301 -64.833 16 -92.5l35 -86.5h106v-61h-84c1.33301 -5.33301 3.16602 -12 5.49902 -20s3.5 -18.667 3.5 -32c0 -14 -1.33301 -27.333 -4 -40s-5.66699 -24.167 -9 -34.5
s-6.5 -19.333 -9.5 -27s-5.5 -13.5 -7.5 -17.5l6 -4l6 -4c6.66699 -3.33301 15 -7 25 -11s18.667 -6 26 -6c2 0 5 0.166992 9 0.5s8 2.16602 12 5.49902c8.66699 6.66699 14.334 16.167 17.001 28.5s4 23.166 4 32.499v48h101v-75z" />
    <glyph glyph-name="currency" unicode="&#xa4;" horiz-adv-x="658" 
d="M482 337c0 24 -4.00195 46.165 -12.002 66.498s-18.833 38.166 -32.5 53.499s-29.667 27.333 -48 36s-38.166 13 -59.499 13c-22 0 -42.333 -4.33301 -61 -13s-34.834 -20.5 -48.501 -35.5s-24.5 -32.667 -32.5 -53s-12 -42.166 -12 -65.499
s3.83301 -45.166 11.5 -65.499s18.5 -38 32.5 -53s30.333 -26.667 49 -35s39 -12.5 61 -12.5c20.667 0 40.334 4.33301 59.001 13s34.834 20.334 48.501 35.001s24.5 32 32.5 52s12 41.333 12 64zM550.998 21.998l-77.002 81.001
c-27.333 -17.333 -51.666 -29.166 -72.999 -35.499s-45.333 -9.5 -72 -9.5c-28.667 0 -54 3.5 -76 10.5s-45.667 18.833 -71 35.5l-76 -80l-80 83l77 80c-15.333 23.333 -26.666 46.833 -33.999 70.5s-11 50.5 -11 80.5s3.5 56.667 10.5 80s18.167 47.666 33.5 72.999
l-75 79l80 83l75 -78c42.667 30 92 45 148 45c28 0 52.833 -3.5 74.5 -10.5s45.167 -18.5 70.5 -34.5l77 79l80 -84l-76 -79c16 -28 27.167 -53.333 33.5 -76s9.5 -48 9.5 -76c0 -28.667 -3.33301 -54.834 -10 -78.501s-18 -48.5 -34 -74.5l77 -81z" />
    <glyph glyph-name="yen" unicode="&#xa5;" horiz-adv-x="417" 
d="M314 351h79v-73h-99l-18 -57h117v-71h-120v-150h-131v150h-120v71h118l-16 57h-102v73h81l-91 314h133l64 -316l60 316h135z" />
    <glyph glyph-name="brokenbar" unicode="&#xa6;" horiz-adv-x="205" 
d="M46 -168v402h114v-402h-114zM46 361v401h114v-401h-114z" />
    <glyph glyph-name="section" unicode="&#xa7;" horiz-adv-x="437" 
d="M316 233c0 10 -2.00098 18.668 -6.00098 26.001s-9.33301 14.666 -16 21.999c-9.33301 10 -19 19.333 -29 28l-31 26l-40 33l-40 33c-7.33301 -9.33301 -14.666 -19.833 -21.999 -31.5s-11 -23.834 -11 -36.501c0 -7.33301 1.66699 -14.166 5 -20.499
s7 -12.166 11 -17.499c6 -8 15.333 -17.833 28 -29.5s26.334 -23.5 41.001 -35.5l43.5 -34.5l33.5 -25.5c7.33301 9.33301 14.666 19.166 21.999 29.499s11 21.5 11 33.5zM420.999 260.001c0 -16.667 -2.16797 -31.667 -6.50098 -45s-10 -26 -17 -38
s-15.333 -23.5 -25 -34.5s-19.834 -21.833 -30.501 -32.5c10.667 -11.333 19.167 -21.666 25.5 -30.999s11 -18.833 14 -28.5s5 -20.167 6 -31.5s1.5 -25 1.5 -41c0 -55.333 -15.333 -94.666 -46 -117.999s-72.667 -35 -126 -35c-14.667 0 -30 1.16699 -46 3.5
s-31.5 6.5 -46.5 12.5s-28.5 13.833 -40.5 23.5s-21.333 22.167 -28 37.5c-4 8.66699 -6.66699 18.834 -8 30.501s-2 22.167 -2 31.5v85h115v-71c0 -18 3.83301 -32.667 11.5 -44s21.5 -17 41.5 -17c16.667 0 29.667 4.16699 39 12.5s14 21.166 14 38.499
c0 15.333 -0.833008 27.666 -2.5 36.999s-4.5 17.333 -8.5 24s-9.5 13.167 -16.5 19.5s-16.167 14.166 -27.5 23.499l-126 108c-20 17.333 -37 36.333 -51 57s-21 45 -21 73c0 30.667 8.33301 57.667 25 81s35.334 45.333 56.001 66c-7.33301 8.66699 -13.333 16.5 -18 23.5
s-8.5 14 -11.5 21s-5.16699 14.833 -6.5 23.5s-2 18.667 -2 30c0 29.333 3 54.333 9 75s15.833 37.5 29.5 50.5s31.167 22.5 52.5 28.5s47 9 77 9c14.667 0 30.167 -0.833008 46.5 -2.5s31.833 -5.16699 46.5 -10.5s28 -12.833 40 -22.5s21 -22.167 27 -37.5
c3.33301 -8.66699 5.5 -17.5 6.5 -26.5s1.5 -18.167 1.5 -27.5v-79h-113v59c0 18.667 -4.33301 33.167 -13 43.5s-23 15.5 -43 15.5c-17.333 0 -29.666 -4.83301 -36.999 -14.5s-11 -22.834 -11 -39.501c0 -11.333 2 -21.166 6 -29.499s9 -16 15 -23
s12.833 -13.667 20.5 -20l22.5 -19.5l120 -103c19.333 -16 34.333 -33.833 45 -53.5s16 -42.167 16 -67.5z" />
    <glyph glyph-name="dieresis" unicode="&#xa8;" horiz-adv-x="250" 
d="M-26 595v124h119v-124h-119zM157 595v124h119v-124h-119z" />
    <glyph glyph-name="copyright" unicode="&#xa9;" horiz-adv-x="799" 
d="M534 265c0 -52 -10.168 -88.8359 -30.501 -110.503s-54.5 -32.5 -102.5 -32.5c-26 0 -49.333 4 -70 12c-25.333 9.33301 -43.5 25 -54.5 47s-16.5 54 -16.5 96v158c0 28.667 2 51.334 6 68.001s11.333 31.334 22 44.001c22.667 28.667 60.334 43 113.001 43
c48 0 82.167 -10.833 102.5 -32.5s30.5 -58.167 30.5 -109.5v-35h-92v40c0 19.333 -3.33301 33.166 -10 41.499s-17.667 12.5 -33 12.5c-20 0 -33.333 -7 -40 -21c-2.66699 -5.33301 -4.33398 -11.166 -5.00098 -17.499s-1 -16.833 -1 -31.5v-162
c0 -14.667 0.333008 -25.167 1 -31.5s2.33398 -12.166 5.00098 -17.499c6.66699 -13.333 20 -20 40 -20c15.333 0 26.333 4 33 12s10 22 10 42v44h92v-39zM709.999 352.997c0 44 -7.99805 85.333 -23.998 124s-38 72.167 -66 100.5s-60.833 50.666 -98.5 66.999
s-78.167 24.5 -121.5 24.5c-42.667 0 -82.834 -8.33301 -120.501 -25s-70.5 -39.334 -98.5 -68.001s-50.167 -62.167 -66.5 -100.5s-24.5 -79.5 -24.5 -123.5s8 -85.167 24 -123.5s38 -71.666 66 -99.999s60.667 -50.666 98 -66.999s77.666 -24.5 120.999 -24.5
c42.667 0 83 8.16699 121 24.5s71 38.833 99 67.5s50.167 62.167 66.5 100.5s24.5 79.5 24.5 123.5zM756.001 353.997c0 -50 -9.16602 -96.832 -27.499 -140.499s-43.5 -81.5 -75.5 -113.5s-69.833 -57.167 -113.5 -75.5s-90.5 -27.5 -140.5 -27.5
c-49.333 0 -95.5 9.33301 -138.5 28s-80.5 44 -112.5 76s-57.333 69.667 -76 113s-28 89.666 -28 138.999s9.33301 95.666 28 138.999s44 81 76 113s69.667 57.333 113 76s89.666 28 138.999 28c50 0 96.667 -9.16699 140 -27.5s81 -43.5 113 -75.5
s57.167 -69.667 75.5 -113s27.5 -89.666 27.5 -138.999z" />
    <glyph glyph-name="ordfeminine" unicode="&#xaa;" horiz-adv-x="229" 
d="M131 561l-27.999 -19.001c-7.33301 -5.33301 -11.833 -10.333 -13.5 -15s-2.5 -13 -2.5 -25c0 -9.33301 0.666992 -17.666 2 -24.999s5.66602 -11 12.999 -11c4 0 9 1.83301 15 5.5s10.667 7.16699 14 10.5v79zM142.001 419.999
c-3.33301 5.33301 -5.33301 8.83789 -6 10.5049s-1.66699 6.5 -3 14.5c-9.33301 -11.333 -17.833 -19 -25.5 -23s-16.834 -6 -27.501 -6c-15.333 0 -27 2.83301 -35 8.5s-13.667 12.834 -17 21.501s-5.16602 18.167 -5.49902 28.5s-0.5 20.166 -0.5 29.499
c0 12 0.5 22 1.5 30s4 15.333 9 22s12.667 13.167 23 19.5s24.833 14.166 43.5 23.499c4 1.33301 8 3 12 5c8.66699 3.33301 15.667 7 21 11v23c0 8 -1.33301 14.333 -4 19s-8.66699 7 -18 7c-6 0 -10.5 -1.5 -13.5 -4.5s-5.16699 -6.5 -6.5 -10.5s-2 -8.16699 -2 -12.5
v-10.5v-10h-61v17c0 5.33301 0.166992 11.666 0.5 18.999s1.83301 13.666 4.5 18.999c8.66699 17.333 20.667 28.5 36 33.5s29 7.5 41 7.5c9.33301 0 19.333 -0.833008 30 -2.5s20.5 -5 29.5 -10s16.5 -11.667 22.5 -20s9 -19.5 9 -33.5v-174
c0 -6.66699 0.333008 -15.334 1 -26.001s3.66699 -19.334 9 -26.001h-68z" />
    <glyph glyph-name="guillemotleft" unicode="&#xab;" horiz-adv-x="313" 
d="M31 220v92l102 97v-97l-39 -45l39 -40v-100zM176 221v94l102 94v-97l-43 -45l43 -42v-98z" />
    <glyph glyph-name="logicalnot" unicode="&#xac;" horiz-adv-x="559" 
d="M354 63v186h-298v99h418v-285h-120z" />
    <glyph glyph-name="registered" unicode="&#xae;" horiz-adv-x="799" 
d="M443 466c0 24.667 -14 37 -42 37h-48v-107h44c17.333 0 29.333 3.5 36 10.5s10 19.167 10 36.5v23zM458 130l-79 190.002h-26v-190h-91v449h150c44 0 75.167 -6.83301 93.5 -20.5s27.5 -37.167 27.5 -70.5v-69c0 -24.667 -5 -43.834 -15 -57.501
s-26.667 -23.834 -50 -30.501l90 -201h-100zM710 353.002c0 44 -7.99805 85.333 -23.998 124s-38 72.167 -66 100.5s-60.833 50.666 -98.5 66.999s-78.167 24.5 -121.5 24.5c-42.667 0 -82.834 -8.33301 -120.501 -25s-70.5 -39.334 -98.5 -68.001
s-50.167 -62.167 -66.5 -100.5s-24.5 -79.5 -24.5 -123.5s8 -85.167 24 -123.5s38 -71.666 66 -99.999s60.667 -50.666 98 -66.999s77.666 -24.5 120.999 -24.5c42.667 0 83 8.16699 121 24.5s71 38.833 99 67.5s50.167 62.167 66.5 100.5s24.5 79.5 24.5 123.5z
M756.002 354.002c0 -50 -9.16602 -96.832 -27.499 -140.499s-43.5 -81.5 -75.5 -113.5s-69.833 -57.167 -113.5 -75.5s-90.5 -27.5 -140.5 -27.5c-49.333 0 -95.5 9.33301 -138.5 28s-80.5 44 -112.5 76s-57.333 69.667 -76 113s-28 89.666 -28 138.999
s9.33301 95.666 28 138.999s44 81 76 113s69.667 57.333 113 76s89.666 28 138.999 28c50 0 96.667 -9.16699 140 -27.5s81 -43.5 113 -75.5s57.167 -69.667 75.5 -113s27.5 -89.666 27.5 -138.999z" />
    <glyph glyph-name="macron" unicode="&#xaf;" horiz-adv-x="250" 
d="M-9 590v81h268v-81h-268z" />
    <glyph glyph-name="degree" unicode="&#xb0;" horiz-adv-x="354" 
d="M256 596c0 22 -7.66699 40.667 -23 56s-34 23 -56 23s-40.667 -7.66699 -56 -23s-23 -34 -23 -56c0 -21.333 7.83301 -39.833 23.5 -55.5s34.167 -23.5 55.5 -23.5c22 0 40.667 7.66699 56 23s23 34 23 56zM338 594c0 -22 -4.16797 -42.834 -12.501 -62.501
s-19.833 -36.834 -34.5 -51.501s-31.667 -26.334 -51 -35.001s-40.333 -13 -63 -13s-43.834 4.33301 -63.501 13s-36.667 20.334 -51 35.001s-25.666 31.834 -33.999 51.501s-12.5 40.5 -12.5 62.5s4.16699 42.833 12.5 62.5s19.833 36.834 34.5 51.501
s31.834 26.167 51.501 34.5s40.5 12.5 62.5 12.5c22.667 0 43.834 -4.16699 63.501 -12.5s36.667 -19.833 51 -34.5s25.666 -31.667 33.999 -51s12.5 -40.333 12.5 -63z" />
    <glyph glyph-name="plusminus" unicode="&#xb1;" horiz-adv-x="559" 
d="M83 0v101h394v-101h-394zM340 315v-157h-118v157h-139v101h139v157h118v-157h137v-101h-137z" />
    <glyph glyph-name="twosuperior" unicode="&#xb2;" horiz-adv-x="292" 
d="M20 224v12.9971c0 26.667 2.16699 49.334 6.5 68.001s10.833 35.167 19.5 49.5s19 27.5 31 39.5s25.667 24.667 41 38l33 29.5c12.667 11 21.334 20.833 26.001 29.5c3.33301 5.33301 5.33301 10 6 14s1 10.667 1 20v47c0 6.66699 -1.83301 14.334 -5.5 23.001
s-13.834 13 -30.501 13c-14 0 -24.667 -2.66699 -32 -8s-11 -15.666 -11 -30.999v-55h-76v56c0 36 10.5 61.667 31.5 77s47.833 23.333 80.5 24c62 0 100.667 -19.333 116 -58c1.33301 -3.33301 2.83301 -9 4.5 -17s2.5 -16 2.5 -24v-55c0 -14 -0.833008 -25.5 -2.5 -34.5
s-5.66699 -17.833 -12 -26.5s-15.666 -18.834 -27.999 -30.501l-49.5 -45.5l-29.5 -27c-7.66699 -7.33301 -13.834 -14.166 -18.501 -20.499s-8 -12.333 -10 -18s-3.33301 -12.5 -4 -20.5h159v-70h-249z" />
    <glyph glyph-name="threesuperior" unicode="&#xb3;" horiz-adv-x="292" 
d="M266 320c0 -24.667 -5.33008 -43.8291 -15.9971 -57.4961s-22.834 -23.834 -36.501 -30.501s-26.834 -10.667 -39.501 -12s-21 -2 -25 -2c-8.66699 0 -18.5 0.666992 -29.5 2s-21.833 4 -32.5 8s-20.834 9.66699 -30.501 17s-17.5 17 -23.5 29
c-3.33301 7.33301 -5.5 14.833 -6.5 22.5s-1.5 12.167 -1.5 13.5v56h81v-49c0 -8.66699 2 -16.834 6 -24.501s14.667 -11.5 32 -11.5c18 0 29.333 2.83301 34 8.5s7 13.834 7 24.501v65c0 7.33301 -0.166992 14.166 -0.5 20.499s-2.16602 11.833 -5.49902 16.5
s-8.66602 8.33398 -15.999 11.001s-18 4 -32 4h-32v56h32c19.333 0 33.666 4.66699 42.999 14c3.33301 3.33301 5.16602 6.33301 5.49902 9s0.833008 4.66699 1.5 6c1.33301 2.66699 2 6.5 2 11.5v10.5v36c0 13.333 -3.5 22.166 -10.5 26.499s-16.5 6.5 -28.5 6.5
c-15.333 0 -25.5 -2.66699 -30.5 -8s-7.5 -12.666 -7.5 -21.999v-47h-77v56c0 1.33301 0.5 6.33301 1.5 15s3.83301 16.667 8.5 24c6 10 13.667 18.167 23 24.5s19 11 29 14s20 5 30 6s19 1.5 27 1.5c26 0 47.667 -4.16699 65 -12.5s30.333 -19.166 39 -32.499
c3.33301 -4.66699 6.16602 -11.334 8.49902 -20.001s3.5 -18.334 3.5 -29.001v-41v-19c0 -6.66699 -1.33301 -13.334 -4 -20.001s-7.5 -13.167 -14.5 -19.5s-17.833 -11.5 -32.5 -15.5c12.667 -1.33301 22.5 -4.33301 29.5 -9s12.333 -10.5 16 -17.5
s5.83398 -14.833 6.50098 -23.5s1 -17.334 1 -26.001v-66z" />
    <glyph glyph-name="acute" unicode="&#xb4;" horiz-adv-x="250" 
d="M102 574h-87l67 132h153z" />
    <glyph glyph-name="mu" unicode="&#xb5;" horiz-adv-x="417" 
d="M259 0l-3.00195 42c-7.33301 -16 -15.166 -27.333 -23.499 -34s-18.833 -10 -31.5 -10c-7.33301 0 -13.666 1.16699 -18.999 3.5s-11.333 6.5 -18 12.5v-191h-120v689h120v-384c0 -30.667 14.333 -46 43 -46c30.667 0 46 19 46 57v373h120v-422
c0 -26.667 1.5 -46.5 4.5 -59.5s9.16699 -23.167 18.5 -30.5h-137z" />
    <glyph glyph-name="paragraph" unicode="&#xb6;" horiz-adv-x="597" 
d="M467 627l-0.000976562 -793.996h-85v794h-91v-794h-85v468c-10.667 3.33301 -18.5 5.66602 -23.5 6.99902s-10.5 3.33301 -16.5 6c-32 14 -57.167 37 -75.5 69s-27.5 69.667 -27.5 113c0 65.333 19.667 117 59 155c15.333 15.333 33.333 27.666 54 36.999
c8 3.33301 15.833 6.16602 23.5 8.49902s16 4.16602 25 5.49902s18.833 2.33301 29.5 3s23.334 1 38.001 1h211v-79h-36z" />
    <glyph glyph-name="periodcentered" unicode="&#xb7;" horiz-adv-x="187" 
d="M35 216v130h117v-130h-117z" />
    <glyph glyph-name="cedilla" unicode="&#xb8;" horiz-adv-x="250" 
d="M225 -121c0 -5.33301 -1.66797 -13.4971 -5.00098 -24.4971s-11.333 -20.833 -24 -29.5c-7.33301 -4.66699 -15.666 -8.16699 -24.999 -10.5s-18.5 -4 -27.5 -5s-16.667 -1.66699 -23 -2s-9.83301 -0.5 -10.5 -0.5c-11.333 0 -23.5 0.666992 -36.5 2s-20.5 2 -22.5 2
c-4 1.33301 -8.16699 2.33301 -12.5 3s-8.83301 1.66699 -13.5 3v30c4 -0.666992 8.83301 -1.16699 14.5 -1.5l17.5 -1c6 -0.333008 11.833 -0.333008 17.5 0s10.167 1.16602 13.5 2.49902c9.33301 3.33301 15.666 7.83301 18.999 13.5s4.66602 10.167 3.99902 13.5
c0 6.66699 -1.66699 12 -5 16s-7.16602 7 -11.499 9s-8.5 3.16699 -12.5 3.5s-6.33301 0.5 -7 0.5v123h44v-79h13.5c7 0 15 -0.666992 24 -2s18.333 -4 28 -8s18.167 -10 25.5 -18c2.66699 -2.66699 5.83398 -7.33398 9.50098 -14.001s5.5 -15.334 5.5 -26.001z" />
    <glyph glyph-name="onesuperior" unicode="&#xb9;" horiz-adv-x="292" 
d="M118 224v331.997c-10.667 -8 -21.167 -13.5 -31.5 -16.5s-25.833 -6.5 -46.5 -10.5v66c14.667 4.66699 27.167 9.33398 37.5 14.001s19.333 9.83398 27 15.501s14.5 11.834 20.5 18.501l20 22h54v-441h-81z" />
    <glyph glyph-name="ordmasculine" unicode="&#xba;" horiz-adv-x="229" 
d="M136 635c0 6.66699 -0.666992 14.167 -2 22.5s-8 12.5 -20 12.5c-14 0 -21 -11 -21 -33v-140c-1.33301 -6.66699 -1.33301 -12.334 0 -17.001c1.33301 -4 3.33301 -7.66699 6 -11s7.66699 -5 15 -5c11.333 0 17.833 3.83301 19.5 11.5s2.5 14.834 2.5 21.501v138z
M204 499c0 -0.666992 -0.332031 -5.50098 -0.999023 -14.501s-2.66699 -17.167 -6 -24.5c-9.33301 -18 -22.166 -29.667 -38.499 -35s-31.166 -8 -44.499 -8c-20.667 0 -36.834 3 -48.501 9s-20.5 13.333 -26.5 22s-9.83301 18.167 -11.5 28.5s-2.5 19.5 -2.5 27.5v127
c0 30.667 9 51.834 27 63.501s39.667 17.5 65 17.5c23.333 0 41.666 -4.33301 54.999 -13s22.666 -19.667 27.999 -33c2 -5.33301 3.16699 -11.5 3.5 -18.5s0.5 -13.167 0.5 -18.5v-130z" />
    <glyph glyph-name="guillemotright" unicode="&#xbb;" horiz-adv-x="313" 
d="M34 127v97l43 45l-43 42v98l103 -94v-94zM179 127v97l40 45l-40 40v100l102 -93v-92z" />
    <glyph glyph-name="onequarter" unicode="&#xbc;" horiz-adv-x="708" 
d="M507 148h77l5 200zM118 224v331.997c-10.667 -8 -21.167 -13.5 -31.5 -16.5s-25.833 -6.5 -46.5 -10.5v66c14.667 4.66699 27.167 9.33398 37.5 14.001s19.333 9.83398 27 15.501s14.5 11.834 20.5 18.501l20 22h54v-441h-81zM254 -45.0029l-64 22l266 738l63 -23z
M659 82.9971v-83h-75v83h-147v64l127 296h95v-294h27v-66h-27z" />
    <glyph glyph-name="onehalf" unicode="&#xbd;" horiz-adv-x="708" 
d="M118 224v331.997c-10.667 -8 -21.167 -13.5 -31.5 -16.5s-25.833 -6.5 -46.5 -10.5v66c14.667 4.66699 27.167 9.33398 37.5 14.001s19.333 9.83398 27 15.501s14.5 11.834 20.5 18.501l20 22h54v-441h-81zM236 -45.0029l-63 22l265 738l64 -23zM437 -0.00292969v12.9971
c0 26.667 2.16699 49.334 6.5 68.001s10.833 35.167 19.5 49.5s19 27.5 31 39.5s25.667 24.667 41 38l33 29.5c12.667 11 21.334 20.833 26.001 29.5c3.33301 5.33301 5.33301 10 6 14s1 10.667 1 20v47c0 6.66699 -1.83301 14.334 -5.5 23.001s-13.834 13 -30.501 13
c-14 0 -24.667 -2.66699 -32 -8s-11 -15.666 -11 -30.999v-55h-76v56c0 36 10.5 61.667 31.5 77s47.833 23.333 80.5 24c62 0 100.667 -19.333 116 -58c1.33301 -3.33301 2.83301 -9 4.5 -17s2.5 -16 2.5 -24v-55c0 -14 -0.833008 -25.5 -2.5 -34.5
s-5.66699 -17.833 -12 -26.5s-15.666 -18.834 -27.999 -30.501l-49.5 -45.5l-29.5 -27c-7.66699 -7.33301 -13.834 -14.166 -18.501 -20.499s-8 -12.333 -10 -18s-3.33301 -12.5 -4 -20.5h159v-70h-249z" />
    <glyph glyph-name="threequarters" unicode="&#xbe;" horiz-adv-x="708" 
d="M507 148h77l5 200zM266 320c0 -24.667 -5.33008 -43.8291 -15.9971 -57.4961s-22.834 -23.834 -36.501 -30.501s-26.834 -10.667 -39.501 -12s-21 -2 -25 -2c-8.66699 0 -18.5 0.666992 -29.5 2s-21.833 4 -32.5 8s-20.834 9.66699 -30.501 17s-17.5 17 -23.5 29
c-3.33301 7.33301 -5.5 14.833 -6.5 22.5s-1.5 12.167 -1.5 13.5v56h81v-49c0 -8.66699 2 -16.834 6 -24.501s14.667 -11.5 32 -11.5c18 0 29.333 2.83301 34 8.5s7 13.834 7 24.501v65c0 7.33301 -0.166992 14.166 -0.5 20.499s-2.16602 11.833 -5.49902 16.5
s-8.66602 8.33398 -15.999 11.001s-18 4 -32 4h-32v56h32c19.333 0 33.666 4.66699 42.999 14c3.33301 3.33301 5.16602 6.33301 5.49902 9s0.833008 4.66699 1.5 6c1.33301 2.66699 2 6.5 2 11.5v10.5v36c0 13.333 -3.5 22.166 -10.5 26.499s-16.5 6.5 -28.5 6.5
c-15.333 0 -25.5 -2.66699 -30.5 -8s-7.5 -12.666 -7.5 -21.999v-47h-77v56c0 1.33301 0.5 6.33301 1.5 15s3.83301 16.667 8.5 24c6 10 13.667 18.167 23 24.5s19 11 29 14s20 5 30 6s19 1.5 27 1.5c26 0 47.667 -4.16699 65 -12.5s30.333 -19.166 39 -32.499
c3.33301 -4.66699 6.16602 -11.334 8.49902 -20.001s3.5 -18.334 3.5 -29.001v-41v-19c0 -6.66699 -1.33301 -13.334 -4 -20.001s-7.5 -13.167 -14.5 -19.5s-17.833 -11.5 -32.5 -15.5c12.667 -1.33301 22.5 -4.33301 29.5 -9s12.333 -10.5 16 -17.5
s5.83398 -14.833 6.50098 -23.5s1 -17.334 1 -26.001v-66zM280.003 -44.9951l-63 22l265 738l64 -23zM659.003 83.0049v-83h-75v83h-147v64l127 296h95v-294h27v-66h-27z" />
    <glyph glyph-name="questiondown" unicode="&#xbf;" horiz-adv-x="417" 
d="M351 170c0 -8.66699 -0.166992 -18.8271 -0.5 -30.4941s-1.33301 -23.5 -3 -35.5s-4.5 -23.667 -8.5 -35s-9.33301 -21.333 -16 -30c-26 -32 -70.667 -48 -134 -48c-74.667 -0.666992 -124 21 -148 65c-5.33301 9.33301 -8.83301 21.166 -10.5 35.499
s-2.5 32.166 -2.5 53.499c0 30 1 54.667 3 74s6.33301 35.666 13 48.999c2.66699 5.33301 6.5 11.666 11.5 18.999s9.16699 13.666 12.5 18.999l50 72c12 16.667 21 30.334 27 41.001s10.167 19.834 12.5 27.501s3.66602 15 3.99902 22s0.5 15.5 0.5 25.5v22h113v-45
c0 -13.333 -1 -24.833 -3 -34.5s-4.66699 -18.334 -8 -26.001s-7.16602 -14.834 -11.499 -21.501l-12.5 -20l-65 -102c-5.33301 -8.66699 -9.83301 -15.667 -13.5 -21s-6.66699 -10.5 -9 -15.5s-4 -10.333 -5 -16s-1.5 -12.834 -1.5 -21.501v-59
c0 -23.333 3.83301 -39.5 11.5 -48.5s19.167 -13.5 34.5 -13.5c12 0 21.333 2.16699 28 6.5s11.5 9.5 14.5 15.5s4.66699 12 5 18s0.5 10.667 0.5 14v117h111v-73zM158 576.007v130h117v-130h-117z" />
    <glyph glyph-name="Agrave" unicode="&#xc0;" horiz-adv-x="437" 
d="M222 527l-47 -303h90zM296 0l-17 115h-120l-19 -115h-130l137 706h149l132 -706h-132zM197 762l-134 133h154l66 -133h-86z" />
    <glyph glyph-name="Aacute" unicode="&#xc1;" horiz-adv-x="437" 
d="M222 527l-47 -303h90zM296 0l-17 115h-120l-19 -115h-130l137 706h149l132 -706h-132zM249 763h-93l64 134h156z" />
    <glyph glyph-name="Acircumflex" unicode="&#xc2;" horiz-adv-x="437" 
d="M222 527l-47 -303h90zM296 0l-17 115h-120l-19 -115h-130l137 706h149l132 -706h-132zM263 762l-44 73l-48 -73h-104l86 133h128l86 -133h-104z" />
    <glyph glyph-name="Atilde" unicode="&#xc3;" horiz-adv-x="437" 
d="M222 527l-47 -303h90zM296 0l-17 115h-120l-19 -115h-130l137 706h149l132 -706h-132zM388 886c0 -10 -0.337891 -20.4971 -1.00488 -31.4971s-2.33398 -21.5 -5.00098 -31.5s-6.66699 -19.5 -12 -28.5s-12.666 -16.5 -21.999 -22.5
c-3.33301 -2 -8.83301 -4.66699 -16.5 -8s-17.167 -5 -28.5 -5c-13.333 0 -28.666 3.16699 -45.999 9.5s-31.666 12.166 -42.999 17.499l-24 11.5c-8 3.66699 -16.333 5.5 -25 5.5s-15.667 -1.66699 -21 -5s-9.66602 -7.33301 -12.999 -12s-5.66602 -9.16699 -6.99902 -13.5
s-2.33301 -7.5 -3 -9.5h-65c0.666992 20 3 38.833 7 56.5s14.333 33.5 31 47.5s36.334 21 59.001 21c10.667 0 22.5 -1.66699 35.5 -5s29.5 -9.66602 49.5 -18.999c12.667 -6 23 -10.667 31 -14s15.667 -5 23 -5c1.33301 0 3 0.166992 5 0.5s4.66699 1.16602 8 2.49902
c5.33301 3.33301 9.33301 7.66602 12 12.999s5 13.666 7 24.999h64z" />
    <glyph glyph-name="Adieresis" unicode="&#xc4;" horiz-adv-x="437" 
d="M222 527l-47 -303h90zM296 0l-17 115h-120l-19 -115h-130l137 706h149l132 -706h-132zM69 762v121h117v-121h-117zM270 762v121h116v-121h-116z" />
    <glyph glyph-name="Aring" unicode="&#xc5;" horiz-adv-x="437" 
d="M222 527l-47 -303h90zM267 828c-0.666992 11.333 -4.99902 21 -12.999 29s-17.667 12 -29 12s-21 -4 -29 -12s-12 -17.667 -12 -29s4.16699 -21 12.5 -29s18.166 -12 29.499 -12s21 4 29 12s12 17.667 12 29zM296.001 0l-17 115h-120l-19 -115h-130l137 706h149l132 -706
h-132zM315.001 829c0 -24.667 -8.66699 -45.667 -26 -63s-38.333 -26 -63 -26s-45.667 8.83301 -63 26.5s-26 38.834 -26 63.501s8.66699 45.667 26 63s38.333 26 63 26c25.333 0 46.5 -8.83301 63.5 -26.5s25.5 -38.834 25.5 -63.501z" />
    <glyph glyph-name="AE" unicode="&#xc6;" horiz-adv-x="708" 
d="M330 553l-102 -300h102v300zM330 0v146h-138l-49 -146h-140l262 706h420v-109h-225v-163h212v-106h-212v-219h226v-109h-356z" />
    <glyph glyph-name="Ccedilla" unicode="&#xc7;" horiz-adv-x="458" 
d="M430 166v-17.5029c0 -5 -0.333008 -10.833 -1 -17.5c-0.666992 -7.33301 -2 -17.333 -4 -30s-6.5 -25.667 -13.5 -39s-17.833 -26.166 -32.5 -38.499s-34.667 -21.833 -60 -28.5c-8.66699 -2.66699 -17 -4.5 -25 -5.5s-20.333 -2.16699 -37 -3.5v-42
c8.66699 0 19.167 -0.666992 31.5 -2s24 -4.16602 35 -8.49902s20.333 -11 28 -20s11.5 -21.167 11.5 -36.5c0.666992 -25.333 -9.5 -43.833 -30.5 -55.5s-49.167 -17.5 -84.5 -17.5c-20 0 -37.333 1.16699 -52 3.5s-25.667 4.5 -33 6.5v30
c2 -0.666992 6.83301 -1.16699 14.5 -1.5s15.167 -0.5 22.5 -0.5c4 0 8.66699 0.166992 14 0.5s10.5 1.5 15.5 3.5s9.5 4.83301 13.5 8.5s6 8.83398 6 15.501c0.666992 6.66699 -0.833008 12.167 -4.5 16.5s-7.66699 7.5 -12 9.5s-8.5 3.33301 -12.5 4s-6.33301 1 -7 1v86
c-14 1.33301 -26.5 2.66602 -37.5 3.99902s-23.5 4.66602 -37.5 9.99902c-20.667 7.33301 -37.167 16.333 -49.5 27s-21.833 22.5 -28.5 35.5s-11 26.833 -13 41.5s-3 29.667 -3 45l1 395c0 14 0.5 28.833 1.5 44.5s5.16699 30.5 12.5 44.5c13.333 28 35 49.333 65 64
s68 22.334 114 23.001c13.333 0 28.333 -0.833008 45 -2.5s33.5 -5.16699 50.5 -10.5s32.833 -13.5 47.5 -24.5s26.667 -25.5 36 -43.5c4 -8 7.16699 -18 9.5 -30s3.5 -27 3.5 -45v-116h-128v89c0 11.333 -0.5 22 -1.5 32s-3.66699 18.833 -8 26.5s-11 13.667 -20 18
s-21.167 6.5 -36.5 6.5c-14 0 -25 -2.16699 -33 -6.5s-14.167 -10.166 -18.5 -17.499s-7 -15.5 -8 -24.5s-1.5 -18.5 -1.5 -28.5v-378c0 -10.667 0.666992 -20.834 2 -30.501s4.16602 -18.167 8.49902 -25.5s10.833 -13.166 19.5 -17.499s20.334 -6.5 35.001 -6.5
c16.667 0 29.167 2.66699 37.5 8s14.333 12 18 20s5.66699 17.167 6 27.5s0.5 20.833 0.5 31.5v92h128v-99z" />
    <glyph glyph-name="Egrave" unicode="&#xc8;" horiz-adv-x="417" 
d="M50 0v706h342v-107h-212v-166h200v-107h-200v-217h222v-109h-352zM186 762l-133 133h153l67 -133h-87z" />
    <glyph glyph-name="Eacute" unicode="&#xc9;" horiz-adv-x="417" 
d="M50 0v706h342v-107h-212v-166h200v-107h-200v-217h222v-109h-352zM238 763h-92l64 134h155z" />
    <glyph glyph-name="Ecircumflex" unicode="&#xca;" horiz-adv-x="417" 
d="M50 0v706h342v-107h-212v-166h200v-107h-200v-217h222v-109h-352zM252 762l-44 73l-48 -73h-104l86 133h129l86 -133h-105z" />
    <glyph glyph-name="Edieresis" unicode="&#xcb;" horiz-adv-x="417" 
d="M50 0v706h342v-107h-212v-166h200v-107h-200v-217h222v-109h-352zM52 762v121h117v-121h-117zM253 762v121h116v-121h-116z" />
    <glyph glyph-name="Igrave" unicode="&#xcc;" horiz-adv-x="229" 
d="M50 0v706h129v-706h-129zM93 762l-134 133h154l66 -133h-86z" />
    <glyph glyph-name="Iacute" unicode="&#xcd;" horiz-adv-x="229" 
d="M50 0v706h129v-706h-129zM145 763h-93l64 134h155z" />
    <glyph glyph-name="Icircumflex" unicode="&#xce;" horiz-adv-x="229" 
d="M50 0v706h129v-706h-129zM159 762l-44 73l-48 -73h-105l86 133h129l86 -133h-104z" />
    <glyph glyph-name="Idieresis" unicode="&#xcf;" horiz-adv-x="229" 
d="M50 0v706h129v-706h-129zM-42 762v121h117v-121h-117zM160 762v121h116v-121h-116z" />
    <glyph glyph-name="Eth" unicode="&#xd0;" horiz-adv-x="479" 
d="M308 531c0 27.333 -4.66797 46.166 -14.001 56.499s-28 15.5 -56 15.5h-58v-197h77v-72h-77v-231h46c14.667 0 27.334 0.833008 38.001 2.5s19.167 5.33398 25.5 11.001s11 13.5 14 23.5s4.5 23 4.5 39v352zM437.999 190c0 -10.667 -0.167969 -22.167 -0.500977 -34.5
s-1.66602 -25 -3.99902 -38s-6.33301 -25.667 -12 -38s-13.5 -23.833 -23.5 -34.5c-10 -11.333 -21 -20 -33 -26s-24.167 -10.333 -36.5 -13s-24.5 -4.33398 -36.5 -5.00098s-23 -1 -33 -1h-209v334h-50v72h50v300h210c2 0 9.83301 0.166992 23.5 0.5s29.5 -2 47.5 -7
s35.833 -13.833 53.5 -26.5s31.5 -32 41.5 -58c5.33301 -15.333 8.5 -29.833 9.5 -43.5s1.5 -22.5 1.5 -26.5c0 -4.66699 0.166992 -8.66699 0.5 -12s0.5 -7.66602 0.5 -12.999v-330z" />
    <glyph glyph-name="Ntilde" unicode="&#xd1;" horiz-adv-x="500" 
d="M286 0l-125 529l11 -529h-122v706h167l127 -518l-13 518h119v-706h-164zM419 886c0 -10 -0.336914 -20.4971 -1.00391 -31.4971s-2.33398 -21.5 -5.00098 -31.5s-6.5 -19.5 -11.5 -28.5s-12.167 -16.5 -21.5 -22.5c-3.33301 -2 -9 -4.66699 -17 -8s-17.667 -5 -29 -5
c-13.333 0 -28.666 3.16699 -45.999 9.5s-31.666 12.166 -42.999 17.499l-23.5 11c-8.33301 4 -16.833 6 -25.5 6s-15.667 -1.83301 -21 -5.5s-9.66602 -7.66699 -12.999 -12s-5.66602 -8.83301 -6.99902 -13.5s-2.33301 -8 -3 -10l-65 1c1.33301 20 4 38.833 8 56.5
s14.333 33.5 31 47.5c16 14 35.667 21 59 21c10.667 0 22.334 -1.66699 35.001 -5s29 -9.66602 49 -18.999c12.667 -6 23.167 -10.667 31.5 -14s15.833 -5 22.5 -5c1.33301 0 3 0.166992 5 0.5s4.66699 1.16602 8 2.49902c5.33301 3.33301 9.33301 7.66602 12 12.999
s5 13.666 7 24.999h64z" />
    <glyph glyph-name="Ograve" unicode="&#xd2;" horiz-adv-x="479" 
d="M304 535l-0.000976562 21.999c0 12.667 -2.66699 24.334 -8 35.001c-3.33301 6.66699 -9 13.5 -17 20.5s-20.333 10.5 -37 10.5c-3.33301 0 -9.16602 -0.666992 -17.499 -2s-16.5 -5 -24.5 -11c-7.33301 -5.33301 -12.666 -11 -15.999 -17s-5.66602 -12.5 -6.99902 -19.5
s-2 -14.167 -2 -21.5v-22v-357c0 -10.667 0.333008 -21.834 1 -33.501s4.33398 -22.167 11.001 -31.5c4 -5.33301 8.66699 -9.33301 14 -12s10.666 -4.66699 15.999 -6s10.166 -2.16602 14.499 -2.49902s7.16602 -0.5 8.49902 -0.5c3.33301 0 9 0.666992 17 2
s16 4.66602 24 9.99902c12 8.66699 18.833 19.334 20.5 32.001s2.5 25.667 2.5 39v365zM434.999 150.999c0 -22.667 -2.5 -44.0029 -7.5 -64.0029s-16.167 -38.333 -33.5 -55c-21.333 -19.333 -45.333 -32 -72 -38s-53.667 -9 -81 -9c-26 0 -51.667 2.5 -77 7.5
s-48.666 16.167 -69.999 33.5c-10.667 8.66699 -18.667 16.834 -24 24.501s-9 14.167 -11 19.5c-6 12.667 -10 26 -12 40s-3 27.667 -3 41v396c0 4 0.166992 10.833 0.5 20.5s1.66602 20.834 3.99902 33.501s6.5 25.5 12.5 38.5s15 24.833 27 35.5
c13.333 11.333 32.333 21.833 57 31.5s57 14.5 97 14.5c50.667 0 90.167 -8.66699 118.5 -26s47.833 -36.333 58.5 -57c5.33301 -11.333 9.33301 -23.666 12 -36.999s4 -32.333 4 -57v-393zM217.999 761.996l-134 133h154l66 -133h-86z" />
    <glyph glyph-name="Oacute" unicode="&#xd3;" horiz-adv-x="479" 
d="M304 535l-0.000976562 21.999c0 12.667 -2.66699 24.334 -8 35.001c-3.33301 6.66699 -9 13.5 -17 20.5s-20.333 10.5 -37 10.5c-3.33301 0 -9.16602 -0.666992 -17.499 -2s-16.5 -5 -24.5 -11c-7.33301 -5.33301 -12.666 -11 -15.999 -17s-5.66602 -12.5 -6.99902 -19.5
s-2 -14.167 -2 -21.5v-22v-357c0 -10.667 0.333008 -21.834 1 -33.501s4.33398 -22.167 11.001 -31.5c4 -5.33301 8.66699 -9.33301 14 -12s10.666 -4.66699 15.999 -6s10.166 -2.16602 14.499 -2.49902s7.16602 -0.5 8.49902 -0.5c3.33301 0 9 0.666992 17 2
s16 4.66602 24 9.99902c12 8.66699 18.833 19.334 20.5 32.001s2.5 25.667 2.5 39v365zM434.999 150.999c0 -22.667 -2.5 -44.0029 -7.5 -64.0029s-16.167 -38.333 -33.5 -55c-21.333 -19.333 -45.333 -32 -72 -38s-53.667 -9 -81 -9c-26 0 -51.667 2.5 -77 7.5
s-48.666 16.167 -69.999 33.5c-10.667 8.66699 -18.667 16.834 -24 24.501s-9 14.167 -11 19.5c-6 12.667 -10 26 -12 40s-3 27.667 -3 41v396c0 4 0.166992 10.833 0.5 20.5s1.66602 20.834 3.99902 33.501s6.5 25.5 12.5 38.5s15 24.833 27 35.5
c13.333 11.333 32.333 21.833 57 31.5s57 14.5 97 14.5c50.667 0 90.167 -8.66699 118.5 -26s47.833 -36.333 58.5 -57c5.33301 -11.333 9.33301 -23.666 12 -36.999s4 -32.333 4 -57v-393zM269.999 762.996h-93l64 134h155z" />
    <glyph glyph-name="Ocircumflex" unicode="&#xd4;" horiz-adv-x="479" 
d="M304 535l-0.000976562 21.999c0 12.667 -2.66699 24.334 -8 35.001c-3.33301 6.66699 -9 13.5 -17 20.5s-20.333 10.5 -37 10.5c-3.33301 0 -9.16602 -0.666992 -17.499 -2s-16.5 -5 -24.5 -11c-7.33301 -5.33301 -12.666 -11 -15.999 -17s-5.66602 -12.5 -6.99902 -19.5
s-2 -14.167 -2 -21.5v-22v-357c0 -10.667 0.333008 -21.834 1 -33.501s4.33398 -22.167 11.001 -31.5c4 -5.33301 8.66699 -9.33301 14 -12s10.666 -4.66699 15.999 -6s10.166 -2.16602 14.499 -2.49902s7.16602 -0.5 8.49902 -0.5c3.33301 0 9 0.666992 17 2
s16 4.66602 24 9.99902c12 8.66699 18.833 19.334 20.5 32.001s2.5 25.667 2.5 39v365zM434.999 150.999c0 -22.667 -2.5 -44.0029 -7.5 -64.0029s-16.167 -38.333 -33.5 -55c-21.333 -19.333 -45.333 -32 -72 -38s-53.667 -9 -81 -9c-26 0 -51.667 2.5 -77 7.5
s-48.666 16.167 -69.999 33.5c-10.667 8.66699 -18.667 16.834 -24 24.501s-9 14.167 -11 19.5c-6 12.667 -10 26 -12 40s-3 27.667 -3 41v396c0 4 0.166992 10.833 0.5 20.5s1.66602 20.834 3.99902 33.501s6.5 25.5 12.5 38.5s15 24.833 27 35.5
c13.333 11.333 32.333 21.833 57 31.5s57 14.5 97 14.5c50.667 0 90.167 -8.66699 118.5 -26s47.833 -36.333 58.5 -57c5.33301 -11.333 9.33301 -23.666 12 -36.999s4 -32.333 4 -57v-393zM283.999 761.996l-44 73l-48 -73h-105l86 133h129l86 -133h-104z" />
    <glyph glyph-name="Otilde" unicode="&#xd5;" horiz-adv-x="479" 
d="M304 535l-0.000976562 21.999c0 12.667 -2.66699 24.334 -8 35.001c-3.33301 6.66699 -9 13.5 -17 20.5s-20.333 10.5 -37 10.5c-3.33301 0 -9.16602 -0.666992 -17.499 -2s-16.5 -5 -24.5 -11c-7.33301 -5.33301 -12.666 -11 -15.999 -17s-5.66602 -12.5 -6.99902 -19.5
s-2 -14.167 -2 -21.5v-22v-357c0 -10.667 0.333008 -21.834 1 -33.501s4.33398 -22.167 11.001 -31.5c4 -5.33301 8.66699 -9.33301 14 -12s10.666 -4.66699 15.999 -6s10.166 -2.16602 14.499 -2.49902s7.16602 -0.5 8.49902 -0.5c3.33301 0 9 0.666992 17 2
s16 4.66602 24 9.99902c12 8.66699 18.833 19.334 20.5 32.001s2.5 25.667 2.5 39v365zM434.999 150.999c0 -22.667 -2.5 -44.0029 -7.5 -64.0029s-16.167 -38.333 -33.5 -55c-21.333 -19.333 -45.333 -32 -72 -38s-53.667 -9 -81 -9c-26 0 -51.667 2.5 -77 7.5
s-48.666 16.167 -69.999 33.5c-10.667 8.66699 -18.667 16.834 -24 24.501s-9 14.167 -11 19.5c-6 12.667 -10 26 -12 40s-3 27.667 -3 41v396c0 4 0.166992 10.833 0.5 20.5s1.66602 20.834 3.99902 33.501s6.5 25.5 12.5 38.5s15 24.833 27 35.5
c13.333 11.333 32.333 21.833 57 31.5s57 14.5 97 14.5c50.667 0 90.167 -8.66699 118.5 -26s47.833 -36.333 58.5 -57c5.33301 -11.333 9.33301 -23.666 12 -36.999s4 -32.333 4 -57v-393zM408.999 885.996c0 -10 -0.337891 -20.4971 -1.00488 -31.4971
s-2.33398 -21.5 -5.00098 -31.5s-6.66699 -19.5 -12 -28.5s-12.666 -16.5 -21.999 -22.5c-3.33301 -2 -8.83301 -4.66699 -16.5 -8s-17.167 -5 -28.5 -5c-13.333 0 -28.666 3.16699 -45.999 9.5s-31.666 12.166 -42.999 17.499l-24 11.5c-8 3.66699 -16.667 5.5 -26 5.5
c-8 0 -14.667 -1.83301 -20 -5.5s-9.66602 -7.66699 -12.999 -12s-5.66602 -8.83301 -6.99902 -13.5s-2.33301 -8 -3 -10l-65 1c0.666992 20 3 38.833 7 56.5s14.333 33.5 31 47.5s36.334 21 59.001 21c10.667 0 22.334 -1.66699 35.001 -5s29 -9.66602 49 -18.999l32 -14
c8 -3.33301 15.667 -5 23 -5c1.33301 0 3 0.166992 5 0.5s4.66699 1.16602 8 2.49902c5.33301 3.33301 9.16602 7.66602 11.499 12.999s4.83301 13.666 7.5 24.999h64z" />
    <glyph glyph-name="Odieresis" unicode="&#xd6;" horiz-adv-x="479" 
d="M304 535l-0.000976562 21.999c0 12.667 -2.66699 24.334 -8 35.001c-3.33301 6.66699 -9 13.5 -17 20.5s-20.333 10.5 -37 10.5c-3.33301 0 -9.16602 -0.666992 -17.499 -2s-16.5 -5 -24.5 -11c-7.33301 -5.33301 -12.666 -11 -15.999 -17s-5.66602 -12.5 -6.99902 -19.5
s-2 -14.167 -2 -21.5v-22v-357c0 -10.667 0.333008 -21.834 1 -33.501s4.33398 -22.167 11.001 -31.5c4 -5.33301 8.66699 -9.33301 14 -12s10.666 -4.66699 15.999 -6s10.166 -2.16602 14.499 -2.49902s7.16602 -0.5 8.49902 -0.5c3.33301 0 9 0.666992 17 2
s16 4.66602 24 9.99902c12 8.66699 18.833 19.334 20.5 32.001s2.5 25.667 2.5 39v365zM434.999 150.999c0 -22.667 -2.5 -44.0029 -7.5 -64.0029s-16.167 -38.333 -33.5 -55c-21.333 -19.333 -45.333 -32 -72 -38s-53.667 -9 -81 -9c-26 0 -51.667 2.5 -77 7.5
s-48.666 16.167 -69.999 33.5c-10.667 8.66699 -18.667 16.834 -24 24.501s-9 14.167 -11 19.5c-6 12.667 -10 26 -12 40s-3 27.667 -3 41v396c0 4 0.166992 10.833 0.5 20.5s1.66602 20.834 3.99902 33.501s6.5 25.5 12.5 38.5s15 24.833 27 35.5
c13.333 11.333 32.333 21.833 57 31.5s57 14.5 97 14.5c50.667 0 90.167 -8.66699 118.5 -26s47.833 -36.333 58.5 -57c5.33301 -11.333 9.33301 -23.666 12 -36.999s4 -32.333 4 -57v-393zM82.999 761.996v121h117v-121h-117zM284.999 761.996v121h116v-121h-116z" />
    <glyph glyph-name="multiply" unicode="&#xd7;" horiz-adv-x="558" 
d="M393 115l-115 107l-99 -108l-75 67l100 109l-116 106l81 88l115 -106l99 107l73 -69l-98 -107l114 -104z" />
    <glyph glyph-name="Oslash" unicode="&#xd8;" horiz-adv-x="479" 
d="M303 402l-125.001 -241v-16c0 -7.33301 0.833008 -13 2.5 -17l4.5 -11c3.33301 -7.33301 9 -13.833 17 -19.5s20.333 -8.5 37 -8.5c2.66699 0 8.33398 0.5 17.001 1.5s17 4.5 25 10.5c11.333 8.66699 17.833 19.167 19.5 31.5s2.5 24.833 2.5 37.5v232zM302.999 564
c0 5.33301 -0.333984 10.501 -1.00098 15.501s-2.66699 10.167 -6 15.5s-9.16602 10.666 -17.499 15.999s-19.833 8 -34.5 8c-2.66699 0 -8.16699 -0.5 -16.5 -1.5s-16.5 -4.16699 -24.5 -9.5c-6.66699 -4 -11.667 -9.16699 -15 -15.5s-5.83301 -12.833 -7.5 -19.5
s-2.5 -13.667 -2.5 -21v-20v-228l125 241v19zM413.998 628.001c5.33301 -9.33301 9.99902 -18.667 13.999 -28s6 -24 6 -44v-403c0 -10 -0.5 -20 -1.5 -30s-3.16699 -20 -6.5 -30c-4 -11.333 -10.167 -23.333 -18.5 -36s-19.666 -24.334 -33.999 -35.001
s-31.833 -19.5 -52.5 -26.5s-45.334 -10.5 -74.001 -10.5c-18 0 -34 1.33301 -48 4s-26.333 6.16699 -37 10.5s-20 9 -28 14s-15.333 9.83301 -22 14.5l-20 -39l-59 31l33 62c-5.33301 8.66699 -10 18.5 -14 29.5s-6 26.5 -6 46.5v395c0 21.333 2 39.833 6 55.5
s13 31.834 27 48.501c13.333 16 27.833 28.333 43.5 37s30.834 15 45.501 19s28.167 6.33301 40.5 7s21.5 1 27.5 1c34 0 62 -4.33301 84 -13s38.667 -17 50 -25l20 38l57 -28z" />
    <glyph glyph-name="Ugrave" unicode="&#xd9;" horiz-adv-x="479" 
d="M431 159c0 -21.333 -1.83008 -41.001 -5.49707 -59.001s-12.5 -36 -26.5 -54c-12.667 -16 -27.5 -28.333 -44.5 -37s-33.5 -14.667 -49.5 -18s-30.5 -5.16602 -43.5 -5.49902s-21.5 -0.5 -25.5 -0.5c-26 0 -51.667 3.5 -77 10.5s-47.666 20.5 -66.999 40.5
c-3.33301 3.33301 -8 9.16602 -14 17.499s-11.333 18.5 -16 30.5c-5.33301 12.667 -8.83301 25.667 -10.5 39s-2.5 26.333 -2.5 39v544h130v-525c0 -9.33301 0.333008 -18.666 1 -27.999s2.66699 -18.333 6 -27c3.33301 -7.33301 7.66602 -13 12.999 -17
s10.666 -7 15.999 -9s10.333 -3.16699 15 -3.5s8 -0.5 10 -0.5c3.33301 0 8.66602 0.5 15.999 1.5s14.666 4.16699 21.999 9.5c12.667 8.66699 19.5 20.167 20.5 34.5s1.5 27.833 1.5 40.5v524h131v-547zM218.003 761.999l-134 133h154l66 -133h-86z" />
    <glyph glyph-name="Uacute" unicode="&#xda;" horiz-adv-x="479" 
d="M431 159c0 -21.333 -1.83008 -41.001 -5.49707 -59.001s-12.5 -36 -26.5 -54c-12.667 -16 -27.5 -28.333 -44.5 -37s-33.5 -14.667 -49.5 -18s-30.5 -5.16602 -43.5 -5.49902s-21.5 -0.5 -25.5 -0.5c-26 0 -51.667 3.5 -77 10.5s-47.666 20.5 -66.999 40.5
c-3.33301 3.33301 -8 9.16602 -14 17.499s-11.333 18.5 -16 30.5c-5.33301 12.667 -8.83301 25.667 -10.5 39s-2.5 26.333 -2.5 39v544h130v-525c0 -9.33301 0.333008 -18.666 1 -27.999s2.66699 -18.333 6 -27c3.33301 -7.33301 7.66602 -13 12.999 -17
s10.666 -7 15.999 -9s10.333 -3.16699 15 -3.5s8 -0.5 10 -0.5c3.33301 0 8.66602 0.5 15.999 1.5s14.666 4.16699 21.999 9.5c12.667 8.66699 19.5 20.167 20.5 34.5s1.5 27.833 1.5 40.5v524h131v-547zM270.003 762.999h-93l64 134h155z" />
    <glyph glyph-name="Ucircumflex" unicode="&#xdb;" horiz-adv-x="479" 
d="M431 159c0 -21.333 -1.83008 -41.001 -5.49707 -59.001s-12.5 -36 -26.5 -54c-12.667 -16 -27.5 -28.333 -44.5 -37s-33.5 -14.667 -49.5 -18s-30.5 -5.16602 -43.5 -5.49902s-21.5 -0.5 -25.5 -0.5c-26 0 -51.667 3.5 -77 10.5s-47.666 20.5 -66.999 40.5
c-3.33301 3.33301 -8 9.16602 -14 17.499s-11.333 18.5 -16 30.5c-5.33301 12.667 -8.83301 25.667 -10.5 39s-2.5 26.333 -2.5 39v544h130v-525c0 -9.33301 0.333008 -18.666 1 -27.999s2.66699 -18.333 6 -27c3.33301 -7.33301 7.66602 -13 12.999 -17
s10.666 -7 15.999 -9s10.333 -3.16699 15 -3.5s8 -0.5 10 -0.5c3.33301 0 8.66602 0.5 15.999 1.5s14.666 4.16699 21.999 9.5c12.667 8.66699 19.5 20.167 20.5 34.5s1.5 27.833 1.5 40.5v524h131v-547zM284.003 761.999l-44 73l-48 -73h-105l86 133h129l86 -133h-104z" />
    <glyph glyph-name="Udieresis" unicode="&#xdc;" horiz-adv-x="479" 
d="M431 159c0 -21.333 -1.83008 -41.001 -5.49707 -59.001s-12.5 -36 -26.5 -54c-12.667 -16 -27.5 -28.333 -44.5 -37s-33.5 -14.667 -49.5 -18s-30.5 -5.16602 -43.5 -5.49902s-21.5 -0.5 -25.5 -0.5c-26 0 -51.667 3.5 -77 10.5s-47.666 20.5 -66.999 40.5
c-3.33301 3.33301 -8 9.16602 -14 17.499s-11.333 18.5 -16 30.5c-5.33301 12.667 -8.83301 25.667 -10.5 39s-2.5 26.333 -2.5 39v544h130v-525c0 -9.33301 0.333008 -18.666 1 -27.999s2.66699 -18.333 6 -27c3.33301 -7.33301 7.66602 -13 12.999 -17
s10.666 -7 15.999 -9s10.333 -3.16699 15 -3.5s8 -0.5 10 -0.5c3.33301 0 8.66602 0.5 15.999 1.5s14.666 4.16699 21.999 9.5c12.667 8.66699 19.5 20.167 20.5 34.5s1.5 27.833 1.5 40.5v524h131v-547zM84.0029 761.999v121h117v-121h-117zM286.003 761.999v121h116v-121
h-116z" />
    <glyph glyph-name="Yacute" unicode="&#xdd;" horiz-adv-x="417" 
d="M275 209v-209h-133v218l-141 488h137l72 -356l69 356h137zM238 763h-92l64 134h155z" />
    <glyph glyph-name="Thorn" unicode="&#xde;" horiz-adv-x="458" 
d="M303 431c0 12 -1.66602 21.501 -4.99902 28.501s-7.5 12.333 -12.5 16s-10.333 6 -16 7s-11.167 1.5 -16.5 1.5h-72v-207h63c8 0 15.667 0.166992 23 0.5s13.666 2.16602 18.999 5.49902s9.5 9 12.5 17s4.5 19.667 4.5 35v96zM431.001 337.001l-0.000976562 -38.9971
c0 -14.667 -1.66699 -29.334 -5 -44.001s-9.66602 -28.334 -18.999 -41.001s-23 -22 -41 -28c-7.33301 -2.66699 -17.333 -4.83398 -30 -6.50098s-27.667 -2.5 -45 -2.5h-110v-176h-131v706h131v-117h131c25.333 0 45.833 -3.66699 61.5 -11s27.667 -17.5 36 -30.5
s14 -28.167 17 -45.5s4.5 -36 4.5 -56v-109z" />
    <glyph glyph-name="germandbls" unicode="&#xdf;" horiz-adv-x="417" 
d="M381 116c0 -3.33301 -0.167969 -10.167 -0.500977 -20.5s-2.16602 -21.166 -5.49902 -32.499c-8 -27.333 -23 -46.166 -45 -56.499s-46 -15.5 -72 -15.5c-12 0 -23.333 0.833008 -34 2.5s-22 3.83398 -34 6.50098l1 69c5.33301 -0.666992 10.333 -1.33398 15 -2.00098
s9.66699 -0.666992 15 0c12 0.666992 21 3.66699 27 9s10 11.333 12 18s3 13.167 3 19.5v13.5v183c0 22.667 -3.5 39.667 -10.5 51s-23.167 17 -48.5 17h-18v81h14c20.667 0 34.834 3.33301 42.501 10s11.5 21.667 11.5 45v73c0 4 -0.166992 8.66699 -0.5 14
s-2 10.666 -5 15.999s-7.5 9.83301 -13.5 13.5s-14.667 5.5 -26 5.5h-6.5c-3.66699 0 -7.83398 -0.666992 -12.501 -2s-9.16699 -3.33301 -13.5 -6s-7.5 -6.33398 -9.5 -11.001c-2 -4 -3.16699 -8.16699 -3.5 -12.5s-0.5 -8.83301 -0.5 -13.5v-591h-119v589
c0 16 1.16699 31 3.5 45s8.83301 27.667 19.5 41c11.333 13.333 27 24.333 47 33s48.333 13 85 13h21.5c7 0 14.167 -0.666992 21.5 -2l20 -3.5c9.33301 -1.66699 19.5 -4.66699 30.5 -9s21.833 -10.833 32.5 -19.5s19 -20 25 -34c4 -10 6.66699 -20 8 -30s2 -20 2 -30v-65
c0 -16.667 -0.5 -30.334 -1.5 -41.001s-3.66699 -19.5 -8 -26.5s-11.333 -12.5 -21 -16.5s-23.167 -7.66699 -40.5 -11c8.66699 -1.33301 17.5 -3 26.5 -5s17.5 -4.66699 25.5 -8s15 -8.16602 21 -14.499s10.667 -14.5 14 -24.5c1.33301 -5.33301 2.5 -14.333 3.5 -27
s1.5 -27 1.5 -43v-195z" />
    <glyph glyph-name="agrave" unicode="&#xe0;" 
d="M233 258l-58.0029 -38.001c-5.33301 -4 -8.66602 -6.66699 -9.99902 -8c-7.33301 -7.33301 -12 -16.5 -14 -27.5s-3 -26.5 -3 -46.5c0 -19.333 1.83301 -34.166 5.5 -44.499s11.5 -15.166 23.5 -14.499c8.66699 0 16.334 1.66699 23.001 5s13.334 7.66602 20.001 12.999
l13 11v150zM249.997 -0.000976562c-5.33301 5.33301 -8.66699 10.999 -10 16.999s-2.66602 15.333 -3.99902 28c-3.33301 -3.33301 -6.33301 -6.5 -9 -9.5s-5.66699 -6.16699 -9 -9.5c-6.66699 -6.66699 -16.667 -14.5 -30 -23.5s-31.666 -13.5 -54.999 -13.5
c-5.33301 0 -14 0.833008 -26 2.5s-24 7.16699 -36 16.5c-10.667 8 -18.667 17.5 -24 28.5s-9.16602 22.667 -11.499 35s-3.5 24.833 -3.5 37.5v36c0 18.667 0.666992 37 2 55s8.66602 34.667 21.999 50c7.33301 8.66699 15.666 15.834 24.999 21.501s19 11.167 29 16.5
l124 62v30c0 15.333 -1 27 -3 35s-6.33301 14.333 -13 19c-2.66699 1.33301 -6 2.83301 -10 4.5s-9.33301 2.5 -16 2.5c-2.66699 0 -8.33398 -0.833008 -17.001 -2.5s-15.334 -7.5 -20.001 -17.5c-2 -4.66699 -3.16699 -11 -3.5 -19s-0.5 -17.667 -0.5 -29v-19h-109v58
c0 6 1.5 16.333 4.5 31s11.167 28.667 24.5 42c10.667 10.667 26.5 19.667 47.5 27s48.167 11 81.5 11c4 0 11.833 -0.333008 23.5 -1s24.667 -3 39 -7s28.5 -10.333 42.5 -19s25.667 -21 35 -37c6 -10.667 9.5 -20.334 10.5 -29.001s1.5 -15.334 1.5 -20.001v-285v-26.5
c0 -10.333 0.333008 -21.166 1 -32.499s2 -22.166 4 -32.499s5.33301 -18.5 10 -24.5c0.666992 -2.66699 3.33398 -5.66699 8.00098 -9h-125zM175.996 573.998l-133 132h153l66 -132h-86z" />
    <glyph glyph-name="aacute" unicode="&#xe1;" 
d="M233 258l-58.0029 -38.001c-5.33301 -4 -8.66602 -6.66699 -9.99902 -8c-7.33301 -7.33301 -12 -16.5 -14 -27.5s-3 -26.5 -3 -46.5c0 -19.333 1.83301 -34.166 5.5 -44.499s11.5 -15.166 23.5 -14.499c8.66699 0 16.334 1.66699 23.001 5s13.334 7.66602 20.001 12.999
l13 11v150zM249.997 -0.000976562c-5.33301 5.33301 -8.66699 10.999 -10 16.999s-2.66602 15.333 -3.99902 28c-3.33301 -3.33301 -6.33301 -6.5 -9 -9.5s-5.66699 -6.16699 -9 -9.5c-6.66699 -6.66699 -16.667 -14.5 -30 -23.5s-31.666 -13.5 -54.999 -13.5
c-5.33301 0 -14 0.833008 -26 2.5s-24 7.16699 -36 16.5c-10.667 8 -18.667 17.5 -24 28.5s-9.16602 22.667 -11.499 35s-3.5 24.833 -3.5 37.5v36c0 18.667 0.666992 37 2 55s8.66602 34.667 21.999 50c7.33301 8.66699 15.666 15.834 24.999 21.501s19 11.167 29 16.5
l124 62v30c0 15.333 -1 27 -3 35s-6.33301 14.333 -13 19c-2.66699 1.33301 -6 2.83301 -10 4.5s-9.33301 2.5 -16 2.5c-2.66699 0 -8.33398 -0.833008 -17.001 -2.5s-15.334 -7.5 -20.001 -17.5c-2 -4.66699 -3.16699 -11 -3.5 -19s-0.5 -17.667 -0.5 -29v-19h-109v58
c0 6 1.5 16.333 4.5 31s11.167 28.667 24.5 42c10.667 10.667 26.5 19.667 47.5 27s48.167 11 81.5 11c4 0 11.833 -0.333008 23.5 -1s24.667 -3 39 -7s28.5 -10.333 42.5 -19s25.667 -21 35 -37c6 -10.667 9.5 -20.334 10.5 -29.001s1.5 -15.334 1.5 -20.001v-285v-26.5
c0 -10.333 0.333008 -21.166 1 -32.499s2 -22.166 4 -32.499s5.33301 -18.5 10 -24.5c0.666992 -2.66699 3.33398 -5.66699 8.00098 -9h-125zM210.996 573.998h-87l67 132h153z" />
    <glyph glyph-name="acircumflex" unicode="&#xe2;" 
d="M233 258l-58.0029 -38.001c-5.33301 -4 -8.66602 -6.66699 -9.99902 -8c-7.33301 -7.33301 -12 -16.5 -14 -27.5s-3 -26.5 -3 -46.5c0 -19.333 1.83301 -34.166 5.5 -44.499s11.5 -15.166 23.5 -14.499c8.66699 0 16.334 1.66699 23.001 5s13.334 7.66602 20.001 12.999
l13 11v150zM249.997 -0.000976562c-5.33301 5.33301 -8.66699 10.999 -10 16.999s-2.66602 15.333 -3.99902 28c-3.33301 -3.33301 -6.33301 -6.5 -9 -9.5s-5.66699 -6.16699 -9 -9.5c-6.66699 -6.66699 -16.667 -14.5 -30 -23.5s-31.666 -13.5 -54.999 -13.5
c-5.33301 0 -14 0.833008 -26 2.5s-24 7.16699 -36 16.5c-10.667 8 -18.667 17.5 -24 28.5s-9.16602 22.667 -11.499 35s-3.5 24.833 -3.5 37.5v36c0 18.667 0.666992 37 2 55s8.66602 34.667 21.999 50c7.33301 8.66699 15.666 15.834 24.999 21.501s19 11.167 29 16.5
l124 62v30c0 15.333 -1 27 -3 35s-6.33301 14.333 -13 19c-2.66699 1.33301 -6 2.83301 -10 4.5s-9.33301 2.5 -16 2.5c-2.66699 0 -8.33398 -0.833008 -17.001 -2.5s-15.334 -7.5 -20.001 -17.5c-2 -4.66699 -3.16699 -11 -3.5 -19s-0.5 -17.667 -0.5 -29v-19h-109v58
c0 6 1.5 16.333 4.5 31s11.167 28.667 24.5 42c10.667 10.667 26.5 19.667 47.5 27s48.167 11 81.5 11c4 0 11.833 -0.333008 23.5 -1s24.667 -3 39 -7s28.5 -10.333 42.5 -19s25.667 -21 35 -37c6 -10.667 9.5 -20.334 10.5 -29.001s1.5 -15.334 1.5 -20.001v-285v-26.5
c0 -10.333 0.333008 -21.166 1 -32.499s2 -22.166 4 -32.499s5.33301 -18.5 10 -24.5c0.666992 -2.66699 3.33398 -5.66699 8.00098 -9h-125zM241.996 573.998l-44 73l-48 -73h-104l86 132h129l86 -132h-105z" />
    <glyph glyph-name="atilde" unicode="&#xe3;" 
d="M233 258l-58.0029 -38.001c-5.33301 -4 -8.66602 -6.66699 -9.99902 -8c-7.33301 -7.33301 -12 -16.5 -14 -27.5s-3 -26.5 -3 -46.5c0 -19.333 1.83301 -34.166 5.5 -44.499s11.5 -15.166 23.5 -14.499c8.66699 0 16.334 1.66699 23.001 5s13.334 7.66602 20.001 12.999
l13 11v150zM249.997 -0.000976562c-5.33301 5.33301 -8.66699 10.999 -10 16.999s-2.66602 15.333 -3.99902 28c-3.33301 -3.33301 -6.33301 -6.5 -9 -9.5s-5.66699 -6.16699 -9 -9.5c-6.66699 -6.66699 -16.667 -14.5 -30 -23.5s-31.666 -13.5 -54.999 -13.5
c-5.33301 0 -14 0.833008 -26 2.5s-24 7.16699 -36 16.5c-10.667 8 -18.667 17.5 -24 28.5s-9.16602 22.667 -11.499 35s-3.5 24.833 -3.5 37.5v36c0 18.667 0.666992 37 2 55s8.66602 34.667 21.999 50c7.33301 8.66699 15.666 15.834 24.999 21.501s19 11.167 29 16.5
l124 62v30c0 15.333 -1 27 -3 35s-6.33301 14.333 -13 19c-2.66699 1.33301 -6 2.83301 -10 4.5s-9.33301 2.5 -16 2.5c-2.66699 0 -8.33398 -0.833008 -17.001 -2.5s-15.334 -7.5 -20.001 -17.5c-2 -4.66699 -3.16699 -11 -3.5 -19s-0.5 -17.667 -0.5 -29v-19h-109v58
c0 6 1.5 16.333 4.5 31s11.167 28.667 24.5 42c10.667 10.667 26.5 19.667 47.5 27s48.167 11 81.5 11c4 0 11.833 -0.333008 23.5 -1s24.667 -3 39 -7s28.5 -10.333 42.5 -19s25.667 -21 35 -37c6 -10.667 9.5 -20.334 10.5 -29.001s1.5 -15.334 1.5 -20.001v-285v-26.5
c0 -10.333 0.333008 -21.166 1 -32.499s2 -22.166 4 -32.499s5.33301 -18.5 10 -24.5c0.666992 -2.66699 3.33398 -5.66699 8.00098 -9h-125zM366.996 696.998c0 -10 -0.335938 -20.3291 -1.00293 -30.9961s-2.33398 -21.167 -5.00098 -31.5s-6.66699 -19.833 -12 -28.5
s-12.666 -16 -21.999 -22c-3.33301 -2 -8.83301 -4.83301 -16.5 -8.5s-17.167 -5.5 -28.5 -5.5c-13.333 0.666992 -28.666 4.16699 -45.999 10.5s-31.666 12.166 -42.999 17.499l-23.5 11c-8.33301 4 -16.833 6 -25.5 6s-15.667 -1.83301 -21 -5.5
s-9.66602 -7.83398 -12.999 -12.501s-5.66602 -9.16699 -6.99902 -13.5s-2.33301 -7.5 -3 -9.5h-65c1.33301 20 4 39 8 57s14 34 30 48c16.667 14 36.667 21 60 21c10 0 21.5 -1.83301 34.5 -5.5s29.5 -10.167 49.5 -19.5c12.667 -5.33301 23 -9.83301 31 -13.5
s15.667 -5.5 23 -5.5c3.33301 0 7.66602 1.33301 12.999 4c5.33301 3.33301 9.33301 7.66602 12 12.999s5 13.666 7 24.999z" />
    <glyph glyph-name="adieresis" unicode="&#xe4;" 
d="M233 258l-58.0029 -38.001c-5.33301 -4 -8.66602 -6.66699 -9.99902 -8c-7.33301 -7.33301 -12 -16.5 -14 -27.5s-3 -26.5 -3 -46.5c0 -19.333 1.83301 -34.166 5.5 -44.499s11.5 -15.166 23.5 -14.499c8.66699 0 16.334 1.66699 23.001 5s13.334 7.66602 20.001 12.999
l13 11v150zM249.997 -0.000976562c-5.33301 5.33301 -8.66699 10.999 -10 16.999s-2.66602 15.333 -3.99902 28c-3.33301 -3.33301 -6.33301 -6.5 -9 -9.5s-5.66699 -6.16699 -9 -9.5c-6.66699 -6.66699 -16.667 -14.5 -30 -23.5s-31.666 -13.5 -54.999 -13.5
c-5.33301 0 -14 0.833008 -26 2.5s-24 7.16699 -36 16.5c-10.667 8 -18.667 17.5 -24 28.5s-9.16602 22.667 -11.499 35s-3.5 24.833 -3.5 37.5v36c0 18.667 0.666992 37 2 55s8.66602 34.667 21.999 50c7.33301 8.66699 15.666 15.834 24.999 21.501s19 11.167 29 16.5
l124 62v30c0 15.333 -1 27 -3 35s-6.33301 14.333 -13 19c-2.66699 1.33301 -6 2.83301 -10 4.5s-9.33301 2.5 -16 2.5c-2.66699 0 -8.33398 -0.833008 -17.001 -2.5s-15.334 -7.5 -20.001 -17.5c-2 -4.66699 -3.16699 -11 -3.5 -19s-0.5 -17.667 -0.5 -29v-19h-109v58
c0 6 1.5 16.333 4.5 31s11.167 28.667 24.5 42c10.667 10.667 26.5 19.667 47.5 27s48.167 11 81.5 11c4 0 11.833 -0.333008 23.5 -1s24.667 -3 39 -7s28.5 -10.333 42.5 -19s25.667 -21 35 -37c6 -10.667 9.5 -20.334 10.5 -29.001s1.5 -15.334 1.5 -20.001v-285v-26.5
c0 -10.333 0.333008 -21.166 1 -32.499s2 -22.166 4 -32.499s5.33301 -18.5 10 -24.5c0.666992 -2.66699 3.33398 -5.66699 8.00098 -9h-125zM45.9961 594.998v124h119v-124h-119zM228.996 594.998v124h119v-124h-119z" />
    <glyph glyph-name="aring" unicode="&#xe5;" 
d="M233 258l-58.0029 -38.001c-5.33301 -4 -8.66602 -6.66699 -9.99902 -8c-7.33301 -7.33301 -12 -16.5 -14 -27.5s-3 -26.5 -3 -46.5c0 -19.333 1.83301 -34.166 5.5 -44.499s11.5 -15.166 23.5 -14.499c8.66699 0 16.334 1.66699 23.001 5s13.334 7.66602 20.001 12.999
l13 11v150zM242.997 659.999c0 12 -3.99902 21.833 -11.999 29.5s-17.667 11.5 -29 11.5s-21 -4 -29 -12s-12 -17.667 -12 -29s4.16699 -21 12.5 -29s18.166 -12 29.499 -12s20.833 4 28.5 12s11.5 17.667 11.5 29zM249.998 -0.000976562
c-5.33301 5.33301 -8.66699 10.999 -10 16.999s-2.66602 15.333 -3.99902 28c-3.33301 -3.33301 -6.33301 -6.5 -9 -9.5s-5.66699 -6.16699 -9 -9.5c-6.66699 -6.66699 -16.667 -14.5 -30 -23.5s-31.666 -13.5 -54.999 -13.5c-5.33301 0 -14 0.833008 -26 2.5
s-24 7.16699 -36 16.5c-10.667 8 -18.667 17.5 -24 28.5s-9.16602 22.667 -11.499 35s-3.5 24.833 -3.5 37.5v36c0 18.667 0.666992 37 2 55s8.66602 34.667 21.999 50c7.33301 8.66699 15.666 15.834 24.999 21.501s19 11.167 29 16.5l124 62v30c0 15.333 -1 27 -3 35
s-6.33301 14.333 -13 19c-2.66699 1.33301 -6 2.83301 -10 4.5s-9.33301 2.5 -16 2.5c-2.66699 0 -8.33398 -0.833008 -17.001 -2.5s-15.334 -7.5 -20.001 -17.5c-2 -4.66699 -3.16699 -11 -3.5 -19s-0.5 -17.667 -0.5 -29v-19h-109v58c0 6 1.5 16.333 4.5 31
s11.167 28.667 24.5 42c10.667 10.667 26.5 19.667 47.5 27s48.167 11 81.5 11c4 0 11.833 -0.333008 23.5 -1s24.667 -3 39 -7s28.5 -10.333 42.5 -19s25.667 -21 35 -37c6 -10.667 9.5 -20.334 10.5 -29.001s1.5 -15.334 1.5 -20.001v-285v-26.5
c0 -10.333 0.333008 -21.166 1 -32.499s2 -22.166 4 -32.499s5.33301 -18.5 10 -24.5c0.666992 -2.66699 3.33398 -5.66699 8.00098 -9h-125zM291.997 660.998c0 -12 -2.33203 -23.335 -6.99902 -34.002s-11 -20.167 -19 -28.5s-17.5 -14.833 -28.5 -19.5
s-22.833 -7 -35.5 -7c-24.667 0 -45.667 8.83301 -63 26.5s-26 38.834 -26 63.501s8.66699 45.667 26 63s38.666 26 63.999 26s46.5 -8.66699 63.5 -26s25.5 -38.666 25.5 -63.999z" />
    <glyph glyph-name="ae" unicode="&#xe6;" horiz-adv-x="604" 
d="M238 251l-24.502 -10.501c-8.33301 -3.66699 -16.166 -7.5 -23.499 -11.5c-12.667 -7.33301 -22.167 -15 -28.5 -23s-10.833 -16 -13.5 -24s-4 -15.833 -4 -23.5v-20.5c0 -2 0.166992 -6.16699 0.5 -12.5s1.83301 -12.666 4.5 -18.999s6.83398 -12.166 12.501 -17.499
s14.167 -8 25.5 -8c14.667 0 26.167 3.66699 34.5 11s13.833 12.666 16.5 15.999v143zM448.998 372.999c0 9.33301 -0.666016 18.167 -1.99902 26.5s-6.33301 15.5 -15 21.5c-8.66699 5.33301 -18 8 -28 8c-4 0 -10.833 -1.33301 -20.5 -4s-16.834 -9.66699 -21.501 -21
c-1.33301 -4 -2.33301 -7.83301 -3 -11.5s-1 -9.16699 -1 -16.5v-67h91v64zM357.999 229l0.000976562 -91.0068c0 -0.666992 -0.166992 -4 -0.5 -10s0.166992 -11.333 1.5 -16c2 -6.66699 6.16699 -13.334 12.5 -20.001s17.166 -10 32.499 -10
c7.33301 0 14.5 1.16699 21.5 3.5s12.5 6.83301 16.5 13.5c4 5.33301 6.33301 11.5 7 18.5s1 13.5 1 19.5v33h119v-35c0 -25.333 -3.83301 -48.166 -11.5 -68.499s-21.167 -37.166 -40.5 -50.499c-10.667 -7.33301 -24.334 -13.666 -41.001 -18.999s-39 -8 -67 -8
c-13.333 0 -25.333 0.833008 -36 2.5s-20.667 4.16699 -30 7.5s-18.666 7.5 -27.999 12.5s-19.333 11.167 -30 18.5c-10 -6 -25.833 -14.167 -47.5 -24.5s-48.5 -15.5 -80.5 -15.5c-3.33301 0 -10.5 0.333008 -21.5 1s-23 3.33398 -36 8.00098s-25.5 12 -37.5 22
s-20.333 24 -25 42c-3.33301 12.667 -5.16602 28.334 -5.49902 47.001s-0.5 34.334 -0.5 47.001c0 14 0.833008 28.167 2.5 42.5s6.5 27.5 14.5 39.5c5.33301 8 12.166 15.167 20.499 21.5s16.5 11.833 24.5 16.5s15 8.33398 21 11.001s9.66699 4.33398 11 5.00098l114 47
v43c0 8 -1 15.333 -3 22s-6.66699 12.334 -14 17.001c-7.33301 5.33301 -16.333 8 -27 8c-11.333 0 -20 -2 -26 -6s-10.5 -8.66699 -13.5 -14s-4.83301 -10.833 -5.5 -16.5s-1 -10.167 -1 -13.5v-31h-107v56c0 3.33301 0.166992 8 0.5 14s1.33301 12.667 3 20s4.5 15 8.5 23
s9.66699 15.667 17 23c14 14 31.167 23.667 51.5 29s39.833 8 58.5 8c13.333 0 27.666 -1.16699 42.999 -3.5s29.333 -5.83301 42 -10.5c4 -1.33301 8.66699 -3 14 -5s12.333 -5.33301 21 -10c4 2 7.83301 4.16699 11.5 6.5s7.16699 4.16602 10.5 5.49902
c12.667 6 28.334 10.333 47.001 13s34.667 4 48 4c6 0 15.333 -0.666992 28 -2s26.167 -5 40.5 -11s28.333 -14.833 42 -26.5s24.167 -27.5 31.5 -47.5c4 -11.333 6.66699 -22 8 -32s2 -16.667 2 -20v-154h-212z" />
    <glyph glyph-name="ccedilla" unicode="&#xe7;" 
d="M367 145c0 -14 -1.16992 -28.167 -3.50293 -42.5s-6.66602 -28 -12.999 -41s-15.333 -24.833 -27 -35.5s-26.834 -19.334 -45.501 -26.001c-9.33301 -3.33301 -19.166 -5.5 -29.499 -6.5s-20.166 -2.16699 -29.499 -3.5v-46c8.66699 0 19.167 -0.666992 31.5 -2
s24 -4.16602 35 -8.49902s20.333 -11 28 -20s11.5 -21.167 11.5 -36.5c0.666992 -24.667 -9.33301 -43 -30 -55s-49 -18 -85 -18c-20 0 -37.333 1.16699 -52 3.5s-25.667 4.5 -33 6.5v30c2.66699 -0.666992 7.66699 -1.16699 15 -1.5s15 -0.5 23 -0.5
c4 0 8.66699 0.166992 14 0.5s10.5 1.5 15.5 3.5s9.33301 4.83301 13 8.5s5.5 8.83398 5.5 15.501c0.666992 6.66699 -0.833008 12.167 -4.5 16.5s-7.66699 7.5 -12 9.5s-8.5 3.33301 -12.5 4s-6.33301 1 -7 1v90c-2.66699 0 -9.83398 0.833008 -21.501 2.5
s-24.5 5.5 -38.5 11.5s-27.833 15.167 -41.5 27.5s-23.5 29.166 -29.5 50.499c-1.33301 4.66699 -2.5 10.334 -3.5 17.001s-1.66699 12.834 -2 18.501s-0.5 10.5 -0.5 14.5v6v227c0 11.333 1 23.833 3 37.5s5.66699 26.167 11 37.5c10 21.333 23.5 37.666 40.5 48.999
s33.667 19.333 50 24s30.666 7.16699 42.999 7.5s18.833 0.5 19.5 0.5c11.333 0 24.333 -1 39 -3s29.334 -6 44.001 -12s28.334 -14.333 41.001 -25s22.334 -24.334 29.001 -41.001c3.33301 -8 5.66602 -16.333 6.99902 -25s2 -21 2 -37v-61h-117v62v10
c0 6 -1.33301 12.5 -4 19.5s-7.16699 13.333 -13.5 19s-15.833 8.5 -28.5 8.5c-14.667 -0.666992 -25.167 -4.5 -31.5 -11.5s-10.833 -14.833 -13.5 -23.5c-2.66699 -10 -3.66699 -21.333 -3 -34v-223l-0.5 -11c-0.333008 -7.33301 0.833984 -15.166 3.50098 -23.499
s7.16699 -15.833 13.5 -22.5s16.5 -10 30.5 -10c16 0 27.667 5.16699 35 15.5s11 27.166 11 50.499v59h118v-58z" />
    <glyph glyph-name="egrave" unicode="&#xe8;" 
d="M242 377c0 2.66699 -0.166016 6.83301 -0.499023 12.5s-1.66602 11.334 -3.99902 17.001s-6.33301 10.667 -12 15s-13.834 6.5 -24.501 6.5s-19 -2 -25 -6s-10.333 -8.83301 -13 -14.5s-4.33398 -11.334 -5.00098 -17.001s-1 -10.167 -1 -13.5v-63h85v63z
M157.001 229.999l-0.00195312 -84.002c0 -9.33301 0.166992 -16.166 0.5 -20.499s1.16602 -8.83301 2.49902 -13.5c4 -13.333 10.5 -21.5 19.5 -24.5s16.167 -4.5 21.5 -4.5c19.333 0 32 9.33301 38 28c1.33301 3.33301 2.33301 8 3 14s1 12 1 18v16v10h115v-41
c0 -9.33301 -0.166992 -17.166 -0.5 -23.499s-1.83301 -13.833 -4.5 -22.5c-5.33301 -18 -13 -33 -23 -45s-21.667 -21.5 -35 -28.5s-28.166 -11.833 -44.499 -14.5s-32.833 -4 -49.5 -4c-26 0 -48 3 -66 9s-33 13.667 -45 23s-21.333 19.833 -28 31.5
s-11.667 23.167 -15 34.5c-3.33301 12.667 -5.66602 26.167 -6.99902 40.5s-2 23.166 -2 26.499v216c0 4 0.666992 13.167 2 27.5s5 28.166 11 41.499c6 14.667 14.5 27.334 25.5 38.001s23.333 19.167 37 25.5s28 11 43 14s30.167 4.5 45.5 4.5
c20.667 0 39.167 -2.33301 55.5 -7s30.333 -10.667 42 -18s21.334 -15.166 29.001 -23.499s13.5 -16.5 17.5 -24.5c4.66699 -9.33301 8.16699 -19 10.5 -29s3.5 -24.667 3.5 -44v-146h-203zM175.999 573.997l-133 132h153l66 -132h-86z" />
    <glyph glyph-name="eacute" unicode="&#xe9;" 
d="M242 377c0 2.66699 -0.166016 6.83301 -0.499023 12.5s-1.66602 11.334 -3.99902 17.001s-6.33301 10.667 -12 15s-13.834 6.5 -24.501 6.5s-19 -2 -25 -6s-10.333 -8.83301 -13 -14.5s-4.33398 -11.334 -5.00098 -17.001s-1 -10.167 -1 -13.5v-63h85v63z
M157.001 229.999l-0.00195312 -84.002c0 -9.33301 0.166992 -16.166 0.5 -20.499s1.16602 -8.83301 2.49902 -13.5c4 -13.333 10.5 -21.5 19.5 -24.5s16.167 -4.5 21.5 -4.5c19.333 0 32 9.33301 38 28c1.33301 3.33301 2.33301 8 3 14s1 12 1 18v16v10h115v-41
c0 -9.33301 -0.166992 -17.166 -0.5 -23.499s-1.83301 -13.833 -4.5 -22.5c-5.33301 -18 -13 -33 -23 -45s-21.667 -21.5 -35 -28.5s-28.166 -11.833 -44.499 -14.5s-32.833 -4 -49.5 -4c-26 0 -48 3 -66 9s-33 13.667 -45 23s-21.333 19.833 -28 31.5
s-11.667 23.167 -15 34.5c-3.33301 12.667 -5.66602 26.167 -6.99902 40.5s-2 23.166 -2 26.499v216c0 4 0.666992 13.167 2 27.5s5 28.166 11 41.499c6 14.667 14.5 27.334 25.5 38.001s23.333 19.167 37 25.5s28 11 43 14s30.167 4.5 45.5 4.5
c20.667 0 39.167 -2.33301 55.5 -7s30.333 -10.667 42 -18s21.334 -15.166 29.001 -23.499s13.5 -16.5 17.5 -24.5c4.66699 -9.33301 8.16699 -19 10.5 -29s3.5 -24.667 3.5 -44v-146h-203zM210.999 573.997h-87l67 132h153z" />
    <glyph glyph-name="ecircumflex" unicode="&#xea;" 
d="M242 377c0 2.66699 -0.166016 6.83301 -0.499023 12.5s-1.66602 11.334 -3.99902 17.001s-6.33301 10.667 -12 15s-13.834 6.5 -24.501 6.5s-19 -2 -25 -6s-10.333 -8.83301 -13 -14.5s-4.33398 -11.334 -5.00098 -17.001s-1 -10.167 -1 -13.5v-63h85v63z
M157.001 229.999l-0.00195312 -84.002c0 -9.33301 0.166992 -16.166 0.5 -20.499s1.16602 -8.83301 2.49902 -13.5c4 -13.333 10.5 -21.5 19.5 -24.5s16.167 -4.5 21.5 -4.5c19.333 0 32 9.33301 38 28c1.33301 3.33301 2.33301 8 3 14s1 12 1 18v16v10h115v-41
c0 -9.33301 -0.166992 -17.166 -0.5 -23.499s-1.83301 -13.833 -4.5 -22.5c-5.33301 -18 -13 -33 -23 -45s-21.667 -21.5 -35 -28.5s-28.166 -11.833 -44.499 -14.5s-32.833 -4 -49.5 -4c-26 0 -48 3 -66 9s-33 13.667 -45 23s-21.333 19.833 -28 31.5
s-11.667 23.167 -15 34.5c-3.33301 12.667 -5.66602 26.167 -6.99902 40.5s-2 23.166 -2 26.499v216c0 4 0.666992 13.167 2 27.5s5 28.166 11 41.499c6 14.667 14.5 27.334 25.5 38.001s23.333 19.167 37 25.5s28 11 43 14s30.167 4.5 45.5 4.5
c20.667 0 39.167 -2.33301 55.5 -7s30.333 -10.667 42 -18s21.334 -15.166 29.001 -23.499s13.5 -16.5 17.5 -24.5c4.66699 -9.33301 8.16699 -19 10.5 -29s3.5 -24.667 3.5 -44v-146h-203zM241.999 573.997l-44 73l-48 -73h-104l86 132h129l86 -132h-105z" />
    <glyph glyph-name="edieresis" unicode="&#xeb;" 
d="M242 377c0 2.66699 -0.166016 6.83301 -0.499023 12.5s-1.66602 11.334 -3.99902 17.001s-6.33301 10.667 -12 15s-13.834 6.5 -24.501 6.5s-19 -2 -25 -6s-10.333 -8.83301 -13 -14.5s-4.33398 -11.334 -5.00098 -17.001s-1 -10.167 -1 -13.5v-63h85v63z
M157.001 229.999l-0.00195312 -84.002c0 -9.33301 0.166992 -16.166 0.5 -20.499s1.16602 -8.83301 2.49902 -13.5c4 -13.333 10.5 -21.5 19.5 -24.5s16.167 -4.5 21.5 -4.5c19.333 0 32 9.33301 38 28c1.33301 3.33301 2.33301 8 3 14s1 12 1 18v16v10h115v-41
c0 -9.33301 -0.166992 -17.166 -0.5 -23.499s-1.83301 -13.833 -4.5 -22.5c-5.33301 -18 -13 -33 -23 -45s-21.667 -21.5 -35 -28.5s-28.166 -11.833 -44.499 -14.5s-32.833 -4 -49.5 -4c-26 0 -48 3 -66 9s-33 13.667 -45 23s-21.333 19.833 -28 31.5
s-11.667 23.167 -15 34.5c-3.33301 12.667 -5.66602 26.167 -6.99902 40.5s-2 23.166 -2 26.499v216c0 4 0.666992 13.167 2 27.5s5 28.166 11 41.499c6 14.667 14.5 27.334 25.5 38.001s23.333 19.167 37 25.5s28 11 43 14s30.167 4.5 45.5 4.5
c20.667 0 39.167 -2.33301 55.5 -7s30.333 -10.667 42 -18s21.334 -15.166 29.001 -23.499s13.5 -16.5 17.5 -24.5c4.66699 -9.33301 8.16699 -19 10.5 -29s3.5 -24.667 3.5 -44v-146h-203zM44.999 594.997v124h119v-124h-119zM227.999 594.997v124h119v-124h-119z" />
    <glyph glyph-name="igrave" unicode="&#xec;" horiz-adv-x="208" 
d="M44 0v512h120v-512h-120zM82 574l-133 132h153l66 -132h-86z" />
    <glyph glyph-name="iacute" unicode="&#xed;" horiz-adv-x="208" 
d="M44 0v512h120v-512h-120zM118 574h-87l67 132h153z" />
    <glyph glyph-name="icircumflex" unicode="&#xee;" horiz-adv-x="208" 
d="M44 0v512h120v-512h-120zM148 574l-44 72l-48 -72h-104l86 132h129l86 -132h-105z" />
    <glyph glyph-name="idieresis" unicode="&#xef;" horiz-adv-x="208" 
d="M44 0v512h120v-512h-120zM-49 595v124h119v-124h-119zM134 595v124h119v-124h-119z" />
    <glyph glyph-name="eth" unicode="&#xf0;" 
d="M240 386c0 6 -0.330078 12.667 -0.99707 20s-2.33398 14.166 -5.00098 20.499s-6.83398 11.5 -12.501 15.5s-13.5 6 -23.5 6c-6.66699 0 -12 -1 -16 -3s-7.33301 -4.33301 -10 -7c-8.66699 -7.33301 -13.334 -16 -14.001 -26s-1 -19 -1 -27v-260v-10.5
c0 -5.66699 1.33301 -11.667 4 -18s7 -12 13 -17s14.667 -7.5 26 -7.5c10.667 0.666992 20 4.33398 28 11.001s12 19.667 12 39v264zM313.003 616c21.333 -39.333 33.999 -76.999 37.999 -112.999s6 -73.333 6 -112l1 -258c0 -10.667 -0.666992 -21.5 -2 -32.5
s-4.66602 -22.167 -9.99902 -33.5c-10 -20.667 -23.167 -36.334 -39.5 -47.001s-32.333 -18.167 -48 -22.5s-29.334 -6.66602 -41.001 -6.99902s-17.834 -0.5 -18.501 -0.5h-21c-12.667 0 -27.5 2.5 -44.5 7.5s-33.833 13.5 -50.5 25.5s-29 30.333 -37 55
c-2.66699 8 -4.66699 16.833 -6 26.5s-2 23.167 -2 40.5v229c0 11.333 0.5 22 1.5 32s3.5 20.667 7.5 32c6 14.667 13.833 27.5 23.5 38.5s20.334 19.833 32.001 26.5s23.667 11.667 36 15s23.833 5 34.5 5c19.333 0 33.833 -2.83301 43.5 -8.5s18.5 -13.834 26.5 -24.501
c-2 9.33301 -4.83301 21.5 -8.5 36.5s-11.167 33.833 -22.5 56.5l-113 -38l-23 53l103 35l-24.5 24c-7 6.66699 -15.5 14 -25.5 22l99 41c10.667 -9.33301 19.834 -18 27.501 -26l25.5 -27l70 23l23 -55z" />
    <glyph glyph-name="ntilde" unicode="&#xf1;" horiz-adv-x="417" 
d="M255 0v376.999c0 16 -1 27.833 -3 35.5s-7 14.167 -15 19.5c-2 1.33301 -4.83301 2.66602 -8.5 3.99902s-8.5 2 -14.5 2c-14 0 -24.5 -3.16699 -31.5 -9.5s-12 -13.5 -15 -21.5s-4.5 -15.667 -4.5 -23v-15v-369h-119v512h121l-1 -37c15.333 15.333 30.333 27 45 35
s33.667 12 57 12s44.833 -6 64.5 -18s32.5 -30 38.5 -54c2 -7.33301 3.16699 -14.166 3.5 -20.499s0.5 -16.166 0.5 -29.499v-400h-118zM378 697.999c0 -10 -0.501953 -20.4961 -1.50195 -31.4961s-2.66699 -21.5 -5 -31.5s-6.16602 -19.5 -11.499 -28.5
s-12.666 -16.5 -21.999 -22.5c-3.33301 -2 -8.83301 -4.83301 -16.5 -8.5s-17.167 -5.5 -28.5 -5.5c-13.333 0.666992 -28.833 4.16699 -46.5 10.5s-32.167 12.166 -43.5 17.499l-23.5 11c-8.33301 4 -16.833 6 -25.5 6c-8 0 -14.667 -1.83301 -20 -5.5
s-9.66602 -7.83398 -12.999 -12.501s-5.83301 -9.16699 -7.5 -13.5s-2.83398 -7.5 -3.50098 -9.5h-65c1.33301 20 4 39 8 57s14.333 34 31 48c16 14 35.667 21 59 21c10.667 0 22.334 -1.83301 35.001 -5.5s29 -10.167 49 -19.5l32 -14c8 -3.33301 15.333 -5 22 -5
c4 0 8.66699 1.33301 14 4c5.33301 3.33301 9.16602 7.66602 11.499 12.999s4.83301 13.666 7.5 24.999h64z" />
    <glyph glyph-name="ograve" unicode="&#xf2;" 
d="M240 386c0 16 -1.16797 28.002 -3.50098 36.002s-7.5 14.667 -15.5 20c-4 3.33301 -8.16699 5.16602 -12.5 5.49902s-7.5 0.5 -9.5 0.5c-6.66699 0 -11.834 -0.833008 -15.501 -2.5s-6.5 -3.16699 -8.5 -4.5c-9.33301 -7.33301 -14.666 -15.833 -15.999 -25.5
s-2 -19.834 -2 -30.501v-260c0 -2 0.166992 -6 0.5 -12s1.66602 -12 3.99902 -18s6.33301 -11.333 12 -16s13.834 -7 24.501 -7c11.333 0 19.833 2.5 25.5 7.5s9.83398 10.5 12.501 16.5s4 12 4 18v12v260zM357.999 132.002c0 -18 -1.83008 -34.0029 -5.49707 -48.0029
s-11.5 -28 -23.5 -42c-11.333 -13.333 -23.833 -23.666 -37.5 -30.999s-27 -12.5 -40 -15.5s-24.833 -4.66699 -35.5 -5s-18.334 -0.5 -23.001 -0.5c-12 0 -22.333 0.5 -31 1.5s-15.334 2.16699 -20.001 3.5c-5.33301 0.666992 -12.166 2.5 -20.499 5.5
s-17.333 7.66699 -27 14s-18.834 14.333 -27.501 24s-15.334 22.167 -20.001 37.5c-3.33301 8.66699 -5.66602 17.834 -6.99902 27.501s-2 23.5 -2 41.5v229c0 17.333 0.833008 30.5 2.5 39.5s4.16699 17.5 7.5 25.5c6 16 14.5 29.333 25.5 40s23.333 19.167 37 25.5
s28.167 10.833 43.5 13.5s30.666 4 45.999 4c4 0 12.333 -0.333008 25 -1s26.667 -3.33398 42 -8.00098s30.333 -12.167 45 -22.5s26 -24.833 34 -43.5c4 -9.33301 7 -18.666 9 -27.999s3 -22.666 3 -39.999v-247zM176.002 573.999l-133 132h153l66 -132h-86z" />
    <glyph glyph-name="oacute" unicode="&#xf3;" 
d="M240 386c0 16 -1.16797 28.002 -3.50098 36.002s-7.5 14.667 -15.5 20c-4 3.33301 -8.16699 5.16602 -12.5 5.49902s-7.5 0.5 -9.5 0.5c-6.66699 0 -11.834 -0.833008 -15.501 -2.5s-6.5 -3.16699 -8.5 -4.5c-9.33301 -7.33301 -14.666 -15.833 -15.999 -25.5
s-2 -19.834 -2 -30.501v-260c0 -2 0.166992 -6 0.5 -12s1.66602 -12 3.99902 -18s6.33301 -11.333 12 -16s13.834 -7 24.501 -7c11.333 0 19.833 2.5 25.5 7.5s9.83398 10.5 12.501 16.5s4 12 4 18v12v260zM357.999 132.002c0 -18 -1.83008 -34.0029 -5.49707 -48.0029
s-11.5 -28 -23.5 -42c-11.333 -13.333 -23.833 -23.666 -37.5 -30.999s-27 -12.5 -40 -15.5s-24.833 -4.66699 -35.5 -5s-18.334 -0.5 -23.001 -0.5c-12 0 -22.333 0.5 -31 1.5s-15.334 2.16699 -20.001 3.5c-5.33301 0.666992 -12.166 2.5 -20.499 5.5
s-17.333 7.66699 -27 14s-18.834 14.333 -27.501 24s-15.334 22.167 -20.001 37.5c-3.33301 8.66699 -5.66602 17.834 -6.99902 27.501s-2 23.5 -2 41.5v229c0 17.333 0.833008 30.5 2.5 39.5s4.16699 17.5 7.5 25.5c6 16 14.5 29.333 25.5 40s23.333 19.167 37 25.5
s28.167 10.833 43.5 13.5s30.666 4 45.999 4c4 0 12.333 -0.333008 25 -1s26.667 -3.33398 42 -8.00098s30.333 -12.167 45 -22.5s26 -24.833 34 -43.5c4 -9.33301 7 -18.666 9 -27.999s3 -22.666 3 -39.999v-247zM211.002 573.999h-87l67 132h153z" />
    <glyph glyph-name="ocircumflex" unicode="&#xf4;" 
d="M240 386c0 16 -1.16797 28.002 -3.50098 36.002s-7.5 14.667 -15.5 20c-4 3.33301 -8.16699 5.16602 -12.5 5.49902s-7.5 0.5 -9.5 0.5c-6.66699 0 -11.834 -0.833008 -15.501 -2.5s-6.5 -3.16699 -8.5 -4.5c-9.33301 -7.33301 -14.666 -15.833 -15.999 -25.5
s-2 -19.834 -2 -30.501v-260c0 -2 0.166992 -6 0.5 -12s1.66602 -12 3.99902 -18s6.33301 -11.333 12 -16s13.834 -7 24.501 -7c11.333 0 19.833 2.5 25.5 7.5s9.83398 10.5 12.501 16.5s4 12 4 18v12v260zM357.999 132.002c0 -18 -1.83008 -34.0029 -5.49707 -48.0029
s-11.5 -28 -23.5 -42c-11.333 -13.333 -23.833 -23.666 -37.5 -30.999s-27 -12.5 -40 -15.5s-24.833 -4.66699 -35.5 -5s-18.334 -0.5 -23.001 -0.5c-12 0 -22.333 0.5 -31 1.5s-15.334 2.16699 -20.001 3.5c-5.33301 0.666992 -12.166 2.5 -20.499 5.5
s-17.333 7.66699 -27 14s-18.834 14.333 -27.501 24s-15.334 22.167 -20.001 37.5c-3.33301 8.66699 -5.66602 17.834 -6.99902 27.501s-2 23.5 -2 41.5v229c0 17.333 0.833008 30.5 2.5 39.5s4.16699 17.5 7.5 25.5c6 16 14.5 29.333 25.5 40s23.333 19.167 37 25.5
s28.167 10.833 43.5 13.5s30.666 4 45.999 4c4 0 12.333 -0.333008 25 -1s26.667 -3.33398 42 -8.00098s30.333 -12.167 45 -22.5s26 -24.833 34 -43.5c4 -9.33301 7 -18.666 9 -27.999s3 -22.666 3 -39.999v-247zM242.002 573.999l-44 73l-48 -73h-104l86 132h129l86 -132
h-105z" />
    <glyph glyph-name="otilde" unicode="&#xf5;" 
d="M240 386c0 16 -1.16797 28.002 -3.50098 36.002s-7.5 14.667 -15.5 20c-4 3.33301 -8.16699 5.16602 -12.5 5.49902s-7.5 0.5 -9.5 0.5c-6.66699 0 -11.834 -0.833008 -15.501 -2.5s-6.5 -3.16699 -8.5 -4.5c-9.33301 -7.33301 -14.666 -15.833 -15.999 -25.5
s-2 -19.834 -2 -30.501v-260c0 -2 0.166992 -6 0.5 -12s1.66602 -12 3.99902 -18s6.33301 -11.333 12 -16s13.834 -7 24.501 -7c11.333 0 19.833 2.5 25.5 7.5s9.83398 10.5 12.501 16.5s4 12 4 18v12v260zM357.999 132.002c0 -18 -1.83008 -34.0029 -5.49707 -48.0029
s-11.5 -28 -23.5 -42c-11.333 -13.333 -23.833 -23.666 -37.5 -30.999s-27 -12.5 -40 -15.5s-24.833 -4.66699 -35.5 -5s-18.334 -0.5 -23.001 -0.5c-12 0 -22.333 0.5 -31 1.5s-15.334 2.16699 -20.001 3.5c-5.33301 0.666992 -12.166 2.5 -20.499 5.5
s-17.333 7.66699 -27 14s-18.834 14.333 -27.501 24s-15.334 22.167 -20.001 37.5c-3.33301 8.66699 -5.66602 17.834 -6.99902 27.501s-2 23.5 -2 41.5v229c0 17.333 0.833008 30.5 2.5 39.5s4.16699 17.5 7.5 25.5c6 16 14.5 29.333 25.5 40s23.333 19.167 37 25.5
s28.167 10.833 43.5 13.5s30.666 4 45.999 4c4 0 12.333 -0.333008 25 -1s26.667 -3.33398 42 -8.00098s30.333 -12.167 45 -22.5s26 -24.833 34 -43.5c4 -9.33301 7 -18.666 9 -27.999s3 -22.666 3 -39.999v-247zM367.002 697.999
c0 -10 -0.335938 -20.4961 -1.00293 -31.4961s-2.33398 -21.5 -5.00098 -31.5s-6.66699 -19.5 -12 -28.5s-12.666 -16.5 -21.999 -22.5c-3.33301 -2 -8.83301 -4.83301 -16.5 -8.5s-17.167 -5.5 -28.5 -5.5c-13.333 0.666992 -28.666 4.16699 -45.999 10.5
s-31.666 12.166 -42.999 17.499l-23.5 11c-8.33301 4 -16.833 6 -25.5 6s-15.667 -1.83301 -21 -5.5s-9.66602 -7.83398 -12.999 -12.501s-5.66602 -9.16699 -6.99902 -13.5s-2.33301 -7.5 -3 -9.5h-65c1.33301 20 4 39 8 57s14 34 30 48c16.667 14 36.667 21 60 21
c10 0 21.5 -1.83301 34.5 -5.5s29.5 -10.167 49.5 -19.5c12.667 -5.33301 23 -9.83301 31 -13.5s15.667 -5.5 23 -5.5c3.33301 0 7.66602 1.33301 12.999 4c5.33301 3.33301 9.33301 7.66602 12 12.999s5 13.666 7 24.999h64z" />
    <glyph glyph-name="odieresis" unicode="&#xf6;" 
d="M240 386c0 16 -1.16797 28.002 -3.50098 36.002s-7.5 14.667 -15.5 20c-4 3.33301 -8.16699 5.16602 -12.5 5.49902s-7.5 0.5 -9.5 0.5c-6.66699 0 -11.834 -0.833008 -15.501 -2.5s-6.5 -3.16699 -8.5 -4.5c-9.33301 -7.33301 -14.666 -15.833 -15.999 -25.5
s-2 -19.834 -2 -30.501v-260c0 -2 0.166992 -6 0.5 -12s1.66602 -12 3.99902 -18s6.33301 -11.333 12 -16s13.834 -7 24.501 -7c11.333 0 19.833 2.5 25.5 7.5s9.83398 10.5 12.501 16.5s4 12 4 18v12v260zM357.999 132.002c0 -18 -1.83008 -34.0029 -5.49707 -48.0029
s-11.5 -28 -23.5 -42c-11.333 -13.333 -23.833 -23.666 -37.5 -30.999s-27 -12.5 -40 -15.5s-24.833 -4.66699 -35.5 -5s-18.334 -0.5 -23.001 -0.5c-12 0 -22.333 0.5 -31 1.5s-15.334 2.16699 -20.001 3.5c-5.33301 0.666992 -12.166 2.5 -20.499 5.5
s-17.333 7.66699 -27 14s-18.834 14.333 -27.501 24s-15.334 22.167 -20.001 37.5c-3.33301 8.66699 -5.66602 17.834 -6.99902 27.501s-2 23.5 -2 41.5v229c0 17.333 0.833008 30.5 2.5 39.5s4.16699 17.5 7.5 25.5c6 16 14.5 29.333 25.5 40s23.333 19.167 37 25.5
s28.167 10.833 43.5 13.5s30.666 4 45.999 4c4 0 12.333 -0.333008 25 -1s26.667 -3.33398 42 -8.00098s30.333 -12.167 45 -22.5s26 -24.833 34 -43.5c4 -9.33301 7 -18.666 9 -27.999s3 -22.666 3 -39.999v-247zM43.002 594.999v124h119v-124h-119zM226.002 594.999v124
h119v-124h-119z" />
    <glyph glyph-name="divide" unicode="&#xf7;" horiz-adv-x="559" 
d="M224 64v128h112v-128h-112zM74 248v101h411v-101h-411zM224 405v128h112v-128h-112z" />
    <glyph glyph-name="oslash" unicode="&#xf8;" 
d="M246 299l-100.001 -157.999v-14c0 -8.66699 1.16699 -16.334 3.5 -23.001s7.5 -12.667 15.5 -18c2.66699 -2 6.33398 -3.83301 11.001 -5.5s11 -2.5 19 -2.5c14 0 24.5 2.83301 31.5 8.5s11.833 11.167 14.5 16.5c3.33301 6 5 12.333 5 19v12v165zM246.999 399.001
c-2 27.333 -17.668 41 -47.001 41c-3.33301 0 -7.66602 -0.333008 -12.999 -1s-11 -3 -17 -7c-10 -6.66699 -16.333 -15.167 -19 -25.5s-4 -20.833 -4 -31.5v-143l101 156zM342.998 449.001c7.33301 -12 11.5 -23.8311 12.5 -35.498s1.5 -24.5 1.5 -38.5v-243
c0 -4.66699 -0.166992 -10.834 -0.5 -18.501s-1.83301 -16.167 -4.5 -25.5s-6.5 -19 -11.5 -29s-12.5 -19.667 -22.5 -29c-16.667 -16.667 -34.5 -27.5 -53.5 -32.5s-39.833 -7.5 -62.5 -7.5c-14 0 -26.333 0.666992 -37 2s-20.667 3.5 -30 6.5s-18.5 7.33301 -27.5 13
s-19.167 12.5 -30.5 20.5l-28 -41l-40 25l36 57c-3.33301 9.33301 -5.16602 17.333 -5.49902 24s-0.5 18.334 -0.5 35.001v247c0 4.66699 0.166992 11.167 0.5 19.5s1.66602 17.5 3.99902 27.5s6.33301 20.167 12 30.5s14.167 20.166 25.5 29.499
c16.667 14 35.167 23.5 55.5 28.5s40.833 7.5 61.5 7.5c30 0 53.833 -3.83301 71.5 -11.5s32.167 -14.834 43.5 -21.501l25 38l41 -26z" />
    <glyph glyph-name="ugrave" unicode="&#xf9;" horiz-adv-x="417" 
d="M253 0l-0.00390625 41.9971c-3.33301 -3.33301 -8.16602 -7.83301 -14.499 -13.5s-14.166 -11.167 -23.499 -16.5s-20 -10.166 -32 -14.499s-25 -6.5 -39 -6.5c-5.33301 0 -13.666 1 -24.999 3s-23 7 -35 15c-10 7.33301 -17.833 15.5 -23.5 24.5s-9.66699 18.5 -12 28.5
s-3.66602 20.5 -3.99902 31.5s-0.5 21.833 -0.5 32.5v386h120v-368c0 -9.33301 0.166992 -18.166 0.5 -26.499s3.83301 -15.833 10.5 -22.5c8.66699 -8.66699 19.334 -13 32.001 -13c2 0 6.16699 0.5 12.5 1.5s12.166 3.83301 17.499 8.5
c4.66699 4 8.16699 9.16699 10.5 15.5s4 12.5 5 18.5s1.33301 11.333 1 16s-0.5 7.33398 -0.5 8.00098v362h120v-512h-120zM186.996 573.997l-133 132h153l66 -132h-86z" />
    <glyph glyph-name="uacute" unicode="&#xfa;" horiz-adv-x="417" 
d="M253 0l-0.00390625 41.9971c-3.33301 -3.33301 -8.16602 -7.83301 -14.499 -13.5s-14.166 -11.167 -23.499 -16.5s-20 -10.166 -32 -14.499s-25 -6.5 -39 -6.5c-5.33301 0 -13.666 1 -24.999 3s-23 7 -35 15c-10 7.33301 -17.833 15.5 -23.5 24.5s-9.66699 18.5 -12 28.5
s-3.66602 20.5 -3.99902 31.5s-0.5 21.833 -0.5 32.5v386h120v-368c0 -9.33301 0.166992 -18.166 0.5 -26.499s3.83301 -15.833 10.5 -22.5c8.66699 -8.66699 19.334 -13 32.001 -13c2 0 6.16699 0.5 12.5 1.5s12.166 3.83301 17.499 8.5
c4.66699 4 8.16699 9.16699 10.5 15.5s4 12.5 5 18.5s1.33301 11.333 1 16s-0.5 7.33398 -0.5 8.00098v362h120v-512h-120zM220.996 573.997h-87l67 132h153z" />
    <glyph glyph-name="ucircumflex" unicode="&#xfb;" horiz-adv-x="417" 
d="M253 0l-0.00390625 41.9971c-3.33301 -3.33301 -8.16602 -7.83301 -14.499 -13.5s-14.166 -11.167 -23.499 -16.5s-20 -10.166 -32 -14.499s-25 -6.5 -39 -6.5c-5.33301 0 -13.666 1 -24.999 3s-23 7 -35 15c-10 7.33301 -17.833 15.5 -23.5 24.5s-9.66699 18.5 -12 28.5
s-3.66602 20.5 -3.99902 31.5s-0.5 21.833 -0.5 32.5v386h120v-368c0 -9.33301 0.166992 -18.166 0.5 -26.499s3.83301 -15.833 10.5 -22.5c8.66699 -8.66699 19.334 -13 32.001 -13c2 0 6.16699 0.5 12.5 1.5s12.166 3.83301 17.499 8.5
c4.66699 4 8.16699 9.16699 10.5 15.5s4 12.5 5 18.5s1.33301 11.333 1 16s-0.5 7.33398 -0.5 8.00098v362h120v-512h-120zM252.996 573.997l-44 72l-48 -72h-104l86 132h129l86 -132h-105z" />
    <glyph glyph-name="udieresis" unicode="&#xfc;" horiz-adv-x="417" 
d="M253 0l-0.00390625 41.9971c-3.33301 -3.33301 -8.16602 -7.83301 -14.499 -13.5s-14.166 -11.167 -23.499 -16.5s-20 -10.166 -32 -14.499s-25 -6.5 -39 -6.5c-5.33301 0 -13.666 1 -24.999 3s-23 7 -35 15c-10 7.33301 -17.833 15.5 -23.5 24.5s-9.66699 18.5 -12 28.5
s-3.66602 20.5 -3.99902 31.5s-0.5 21.833 -0.5 32.5v386h120v-368c0 -9.33301 0.166992 -18.166 0.5 -26.499s3.83301 -15.833 10.5 -22.5c8.66699 -8.66699 19.334 -13 32.001 -13c2 0 6.16699 0.5 12.5 1.5s12.166 3.83301 17.499 8.5
c4.66699 4 8.16699 9.16699 10.5 15.5s4 12.5 5 18.5s1.33301 11.333 1 16s-0.5 7.33398 -0.5 8.00098v362h120v-512h-120zM52.9961 594.997v124h119v-124h-119zM235.996 594.997v124h119v-124h-119z" />
    <glyph glyph-name="yacute" unicode="&#xfd;" horiz-adv-x="354" 
d="M236 -37c-5.33301 -26.667 -11.168 -47.832 -17.501 -63.499s-13.833 -28.834 -22.5 -39.501c-9.33301 -11.333 -21.5 -20.333 -36.5 -27s-37.167 -10 -66.5 -10c-15.333 0 -28.166 0.833008 -38.499 2.5l-38.5 6.5l18 94c4 -1.33301 9.66699 -2.83301 17 -4.5
s16.666 -2.5 27.999 -2.5c10 0 18.5 2.33301 25.5 7s12.5 10.5 16.5 17.5s6.83301 14.333 8.5 22s2.83398 14.5 3.50098 20.5l1 14l-133 512h118l66 -329l51 329h117zM189.998 574.002h-87l67 132h153z" />
    <glyph glyph-name="thorn" unicode="&#xfe;" horiz-adv-x="417" 
d="M259 377c0 2 -0.166016 6.16797 -0.499023 12.501s-2 12.666 -5 18.999s-7.66699 12 -14 17s-15.5 7.5 -27.5 7.5c-12.667 0 -22.334 -2.66699 -29.001 -8s-11.5 -11.5 -14.5 -18.5s-4.66699 -13.667 -5 -20s-0.5 -10.5 -0.5 -12.5v-237
c0 -10.667 1.66699 -19.167 5 -25.5s7.5 -11.333 12.5 -15s10.333 -6.16699 16 -7.5s10.5 -2 14.5 -2c12 0 21.333 2.16699 28 6.5s11.5 9.5 14.5 15.5s4.66699 12 5 18s0.5 10.333 0.5 13v237zM379.001 116.001c0 -24 -2.99902 -44.001 -8.99902 -60.001
s-14 -28.833 -24 -38.5s-21.333 -16.667 -34 -21s-25.667 -6.5 -39 -6.5c-14 0 -26.5 1.83301 -37.5 5.5s-20.833 8.16699 -29.5 13.5s-16.5 11 -23.5 17l-19.5 17v-220h-119v883h119v-233c4.66699 4.66699 10.5 9.83398 17.5 15.501s15 11 24 16s19 9.16699 30 12.5
s22.5 5 34.5 5c15.333 0 28.166 -2 38.499 -6s18.5 -8.33301 24.5 -13c12 -8.66699 21.167 -18.334 27.5 -29.001s11 -21.667 14 -33s4.66699 -22.666 5 -33.999s0.5 -22 0.5 -32v-259z" />
    <glyph glyph-name="ydieresis" unicode="&#xff;" horiz-adv-x="354" 
d="M236 -37c-5.33301 -26.667 -11.168 -47.832 -17.501 -63.499s-13.833 -28.834 -22.5 -39.501c-9.33301 -11.333 -21.5 -20.333 -36.5 -27s-37.167 -10 -66.5 -10c-15.333 0 -28.166 0.833008 -38.499 2.5l-38.5 6.5l18 94c4 -1.33301 9.66699 -2.83301 17 -4.5
s16.666 -2.5 27.999 -2.5c10 0 18.5 2.33301 25.5 7s12.5 10.5 16.5 17.5s6.83301 14.333 8.5 22s2.83398 14.5 3.50098 20.5l1 14l-133 512h118l66 -329l51 329h117zM23.998 595.002v124h119v-124h-119zM206.998 595.002v124h119v-124h-119z" />
    <glyph glyph-name="OE" unicode="&#x152;" horiz-adv-x="688" 
d="M302 531c0 18 -0.670898 31.332 -2.00391 39.999s-4.66602 17.334 -9.99902 26.001c-4 6 -9.83301 11.333 -17.5 16s-19.167 7 -34.5 7c-16 0 -27.667 -2.66699 -35 -8s-12.666 -11 -15.999 -17c-5.33301 -8 -8.66602 -16.5 -9.99902 -25.5s-2 -22.167 -2 -39.5v-366
c0 -8 0.166992 -14.167 0.5 -18.5s1.16602 -8.5 2.49902 -12.5s3.33301 -8.5 6 -13.5s6.33398 -9.83301 11.001 -14.5s10.667 -8.5 18 -11.5s16 -4.5 26 -4.5c14.667 0 27.667 4 39 12c12.667 9.33301 19.834 20 21.501 32s2.5 24.667 2.5 38v360zM358.996 -0.000976562
l-1.00391 31.002c-5.33301 -5.33301 -10 -9.33301 -14 -12s-9.66699 -6 -17 -10c-10 -5.33301 -23.5 -10.666 -40.5 -15.999s-39.167 -8 -66.5 -8c-5.33301 0 -15.666 0.666992 -30.999 2s-31.666 5.16602 -48.999 11.499s-34.166 16.166 -50.499 29.499
s-28.5 32.333 -36.5 57c-3.33301 10 -5.66602 19.833 -6.99902 29.5s-2 24.167 -2 43.5v366v19.5c0 6.33301 0.333008 12.833 1 19.5c1.33301 30.667 7.83301 57.667 19.5 81s31.834 42 60.501 56c15.333 7.33301 31.166 12.666 47.499 15.999s32.5 5 48.5 5
c4 0 10 -0.166992 18 -0.5s17 -1.5 27 -3.5s20.667 -5.16699 32 -9.5s22.666 -10.166 33.999 -17.499c6.66699 -4.66699 12.334 -9.33398 17.001 -14.001l10 -10v40h297v-109h-223v-165h211v-104h-211v-217h231v-111h-305z" />
    <glyph glyph-name="oe" unicode="&#x153;" horiz-adv-x="604" 
d="M244 378c0 14 -1.33594 24.335 -4.00293 31.002s-7 12 -13 16c-5.33301 3.33301 -10.166 5.33301 -14.499 6s-7.5 1 -9.5 1c-10 0 -18 -2 -24 -6s-10.333 -8.33301 -13 -13s-4.5 -9.33398 -5.5 -14.001s-1.5 -9 -1.5 -13v-8v-251v-7.5
c0 -3.66699 0.666992 -7.83398 2 -12.501c2 -6.66699 4.66699 -11.834 8 -15.501s6.83301 -6.5 10.5 -8.5s7.33398 -3.33301 11.001 -4s6.5 -1 8.5 -1c2.66699 0 5.83398 0.333008 9.50098 1s8.16699 2.33398 13.5 5.00098c7.33301 4 12.833 9 16.5 15s5.5 16.333 5.5 31
v248zM448.997 378.002c0 10 -1.00098 19.167 -3.00098 27.5s-7.66699 15.5 -17 21.5c-2 1.33301 -4.83301 2.83301 -8.5 4.5s-8.5 2.5 -14.5 2.5c-1.33301 0 -4.16602 -0.333008 -8.49902 -1s-8.83301 -2.33398 -13.5 -5.00098c-10 -5.33301 -16.167 -12.166 -18.5 -20.499
s-3.5 -17.833 -3.5 -28.5v-69h87v68zM565.996 130.002c0 -2 -0.168945 -9.33398 -0.501953 -22.001s-2.16602 -24.667 -5.49902 -36c-6 -22 -16 -38.667 -30 -50s-28.5 -19.5 -43.5 -24.5s-29.167 -7.66699 -42.5 -8s-22.333 -0.5 -27 -0.5
c-31.333 0 -55.833 3.83301 -73.5 11.5s-32.5 15.167 -44.5 22.5c-10.667 -6.66699 -24.667 -13.834 -42 -21.501s-41 -11.5 -71 -11.5s-58 6.83301 -84 20.5s-44.333 35.834 -55 66.501c-3.33301 8 -5.66602 16.833 -6.99902 26.5s-2 23.167 -2 40.5v219
c0 16 0.666992 28.833 2 38.5s3.33301 18.167 6 25.5c4.66699 16 12.167 30 22.5 42s22 21.833 35 29.5s27.167 13.5 42.5 17.5s31 6 47 6c14.667 0 30 -2 46 -6s36.333 -14.667 61 -32c4 2.66699 9.83301 6.16699 17.5 10.5s16.667 8.5 27 12.5s21.833 7.5 34.5 10.5
s26.334 4.5 41.001 4.5c28.667 0 55.667 -7 81 -21s43.666 -35 54.999 -63c3.33301 -8 5.83301 -16.667 7.5 -26s2.5 -22.333 2.5 -39v-143h-203v-94c0 -9.33301 0.833008 -18.166 2.5 -26.499s6.83398 -15.166 15.501 -20.499c2 -1.33301 5.33301 -3 10 -5s10.667 -3 18 -3
c5.33301 0 10.166 0.666992 14.499 2s7.16602 2.66602 8.49902 3.99902c10.667 7.33301 16.334 16.5 17.001 27.5s1 17.833 1 20.5l1 37h115v-42z" />
    <glyph glyph-name="Scaron" unicode="&#x160;" horiz-adv-x="458" 
d="M424 197l-0.00585938 -34.998c0 -10 -0.333008 -19 -1 -27s-1.33398 -15.333 -2.00098 -22s-2 -13.334 -4 -20.001c-4 -14 -10.167 -27.5 -18.5 -40.5s-19.666 -24.5 -33.999 -34.5s-32.166 -18 -53.499 -24s-47 -9 -77 -9c-25.333 0 -50.5 2.5 -75.5 7.5
s-48.167 15.833 -69.5 32.5c-11.333 9.33301 -19.666 18.333 -24.999 27s-9.33301 15.667 -12 21c-4 10 -7.33301 19.667 -10 29s-4 24 -4 44v103h129v-82c0 -13.333 0.666992 -26.666 2 -39.999s8.33301 -24 21 -32c4 -2.66699 9.16699 -5 15.5 -7s14.5 -3 24.5 -3
c11.333 0 20.5 1.16699 27.5 3.5s12.833 5.5 17.5 9.5c9.33301 7.33301 14.833 18.833 16.5 34.5s2.5 35.5 2.5 59.5c0 4.66699 -0.333008 13.667 -1 27s-5 26 -13 38c-5.33301 7.33301 -11 13.333 -17 18l-13 10l-123 83c-13.333 9.33301 -24.166 17.666 -32.499 24.999
s-17.166 18.333 -26.499 33c-7.33301 12.667 -13.333 27 -18 43s-7 39 -7 69v14.5c0 7 0.5 15 1.5 24s2.66699 18.667 5 29s5.83301 20.166 10.5 29.499c10 21.333 24 37.833 42 49.5s36.333 20.167 55 25.5s35.5 8.5 50.5 9.5s24.167 1.5 27.5 1.5
c5.33301 0 15.5 -0.5 30.5 -1.5s31.333 -4.33301 49 -10s35 -14.834 52 -27.501s30.167 -30.667 39.5 -54l5 -12c1.33301 -3.33301 2.5 -7.16602 3.5 -11.499s1.66699 -9.16602 2 -14.499s0.5 -12.333 0.5 -21v-70h-130v72c0 5.33301 -0.666992 11 -2 17s-4 11.5 -8 16.5
s-9.83301 9.16699 -17.5 12.5s-17.834 5 -30.501 5c-15.333 0 -28.833 -4.33301 -40.5 -13s-17.5 -27.667 -17.5 -57v-8.5c0 -5 0.333008 -11 1 -18s2 -14.167 4 -21.5s5 -14 9 -20c3.33301 -4.66699 12.333 -12.334 27 -23.001l126 -87
c4.66699 -3.33301 12.834 -9.83301 24.501 -19.5s22.834 -21.5 33.501 -35.5c8 -10 13.833 -19.667 17.5 -29s6.33398 -18.833 8.00098 -28.5s2.5 -19.667 2.5 -30v-34.5zM293.994 762.002h-132l-85 133h105l45 -74l48 74h104z" />
    <glyph glyph-name="scaron" unicode="&#x161;" horiz-adv-x="375" 
d="M341 148c0 -19.333 -1.16699 -38.666 -3.5 -57.999s-10.166 -37.333 -23.499 -54c-11.333 -13.333 -26.833 -24.333 -46.5 -33s-47.834 -13 -84.501 -13c-14 0 -28.333 0.833008 -43 2.5s-28.5 5.16699 -41.5 10.5s-24.833 12.5 -35.5 21.5s-19 21.167 -25 36.5
c-5.33301 13.333 -8.5 26.5 -9.5 39.5s-1.5 21.833 -1.5 26.5v53h110v-40c0 -8.66699 0.166992 -15 0.5 -19s1.16602 -8.33301 2.49902 -13c1.33301 -6 5 -13 11 -21s16.667 -12 32 -12c2 0 5.66699 0.333008 11 1s10.666 2.66699 15.999 6s10 9 14 17s6 18.667 6 32
c0 9.33301 -0.5 17 -1.5 23s-2.66699 11.333 -5 16s-5.83301 9 -10.5 13s-10.667 8.66699 -18 14l-100 71c-24 16.667 -40.167 34 -48.5 52s-12.5 41.667 -12.5 71c0 25.333 3.83301 46.5 11.5 63.5s18.334 30.5 32.001 40.5s29.834 17 48.501 21s39.667 6 63 6
c38 0 67.5 -5.5 88.5 -16.5s35.5 -23.833 43.5 -38.5c6 -10 9.83301 -20.167 11.5 -30.5s2.5 -20.833 2.5 -31.5v-57h-103v37c0 2 -0.166992 6 -0.5 12s-1.83301 12.333 -4.5 19s-7 12.5 -13 17.5s-14.667 7.5 -26 7.5c-2.66699 0 -5.66699 -0.166992 -9 -0.5
s-7.66602 -1.83301 -12.999 -4.5c-7.33301 -4.66699 -12.333 -10.667 -15 -18s-4 -15 -4 -23c0 -15.333 2.83301 -26.5 8.5 -33.5s14.167 -14.5 25.5 -22.5l110 -77c5.33301 -3.33301 10.666 -8 15.999 -14l15 -17c6 -8.66699 10.667 -19.334 14 -32.001s5 -29.667 5 -51z
M252 574h-132l-85 132h105l45 -73l48 73h104z" />
    <glyph glyph-name="Ydieresis" unicode="&#x178;" horiz-adv-x="417" 
d="M275 209v-209h-133v218l-141 488h137l72 -356l69 356h137zM52 762v121h117v-121h-117zM253 762v121h116v-121h-116z" />
    <glyph glyph-name="florin" unicode="&#x192;" horiz-adv-x="354" 
d="M312 575c-5.33301 0.666992 -9.6748 1.16797 -13.0078 1.50098s-7.66602 0.5 -12.999 0.5c-8 0 -14.167 -1.5 -18.5 -4.5s-7.66602 -6.5 -9.99902 -10.5s-4 -8 -5 -12s-1.5 -7 -1.5 -9l-3 -29h52l-9 -79h-53l-56 -489c-2.66699 -23.333 -8.5 -42 -17.5 -56
s-20.167 -24.667 -33.5 -32s-28.166 -12.166 -44.499 -14.499s-33.166 -3.5 -50.499 -3.5c-7.33301 0 -14.166 0.166992 -20.499 0.5s-13.5 0.833008 -21.5 1.5l12 97c4.66699 -0.666992 8.83398 -1 12.501 -1h12.5c8 0 14.167 1.5 18.5 4.5s7.83301 6.5 10.5 10.5
s4.5 7.83301 5.5 11.5s1.5 6.5 1.5 8.5l52 462h-52l8 79h54l6 56c0.666992 4.66699 1.83398 11.667 3.50098 21s5.33398 19.166 11.001 29.499s13.834 20.166 24.501 29.499s25 16.333 43 21c7.33301 2 18 3.33301 32 4s24.667 1 32 1c8 0 15.167 -0.166992 21.5 -0.5
s13.166 -0.5 20.499 -0.5z" />
    <glyph glyph-name="circumflex" unicode="&#x2c6;" horiz-adv-x="250" 
d="M171 574l-44 73l-48 -73h-105l86 132h129l87 -132h-105z" />
    <glyph glyph-name="tilde" unicode="&#x2dc;" horiz-adv-x="250" 
d="M291 697c0 -10 -0.333984 -20.3291 -1.00098 -30.9961s-2.33398 -21.167 -5.00098 -31.5s-6.5 -19.833 -11.5 -28.5s-12.167 -16 -21.5 -22c-3.33301 -2 -9 -4.83301 -17 -8.5s-17.667 -5.5 -29 -5.5c-13.333 0.666992 -28.666 4.16699 -45.999 10.5
s-31.666 12.166 -42.999 17.499l-23.5 11c-8.33301 4 -16.833 6 -25.5 6c-8 0 -14.667 -1.83301 -20 -5.5s-9.66602 -7.83398 -12.999 -12.501s-5.83301 -9.16699 -7.5 -13.5s-2.83398 -7.5 -3.50098 -9.5h-65c1.33301 20 4 39 8 57s14.333 34 31 48c16 14 35.667 21 59 21
c10.667 0 22.334 -1.83301 35.001 -5.5s29 -10.167 49 -19.5l31.5 -13.5c8.33301 -3.66699 15.833 -5.5 22.5 -5.5c3.33301 0 7.66602 1.33301 12.999 4c5.33301 3.33301 9.33301 7.66602 12 12.999s5 13.666 7 24.999z" />
    <glyph glyph-name="endash" unicode="&#x2013;" horiz-adv-x="421" 
d="M33 243v98h355v-98h-355z" />
    <glyph glyph-name="emdash" unicode="&#x2014;" horiz-adv-x="626" 
d="M33 242v99h560v-99h-560z" />
    <glyph glyph-name="quoteleft" unicode="&#x2018;" horiz-adv-x="187" 
d="M34 438v134l75 134h43l-61 -134h61v-134h-118z" />
    <glyph glyph-name="quoteright" unicode="&#x2019;" horiz-adv-x="187" 
d="M70 438h-46l70 135h-62v133h118v-133z" />
    <glyph glyph-name="quotesinglbase" unicode="&#x201a;" horiz-adv-x="187" 
d="M70 -135h-44l68 135h-58v129h117v-129z" />
    <glyph glyph-name="quotedblleft" unicode="&#x201c;" horiz-adv-x="375" 
d="M90 570h62v-130h-118v130l83 136h46zM275 570h61v-130h-120v130l80 136h47z" />
    <glyph glyph-name="quotedblright" unicode="&#x201d;" horiz-adv-x="375" 
d="M77 440h-47l68 136h-62v130h121v-130zM255 440h-46l74 136h-62v130h118v-130z" />
    <glyph glyph-name="quotedblbase" unicode="&#x201e;" horiz-adv-x="375" 
d="M86 -137h-43l58 137h-63v130h117v-130zM264 -137h-45l64 137h-64v130h118v-130z" />
    <glyph glyph-name="dagger" unicode="&#x2020;" horiz-adv-x="437" 
d="M278 423v-423h-119v423h-136v113h136v170h119v-170h139v-113h-139z" />
    <glyph glyph-name="daggerdbl" unicode="&#x2021;" horiz-adv-x="437" 
d="M278 142v-142h-116v142h-139v108h139v209h-139v109h139v138h116v-138h140v-109h-140v-209h140v-108h-140z" />
    <glyph glyph-name="bullet" unicode="&#x2022;" horiz-adv-x="333" 
d="M51 214v276h231v-276h-231z" />
    <glyph glyph-name="ellipsis" unicode="&#x2026;" horiz-adv-x="1000" 
d="M113 0v125h107v-125h-107zM447 0v125h106v-125h-106zM780 0v125h106v-125h-106z" />
    <glyph glyph-name="perthousand" unicode="&#x2030;" horiz-adv-x="1000" 
d="M185 562v13.502c0 5 -1 10 -3 15s-5.66699 9.33301 -11 13s-13.333 5.5 -24 5.5c-11.333 0 -19.666 -1.5 -24.999 -4.5s-9.33301 -6.83301 -12 -11.5s-4 -9.66699 -4 -15v-13v-245c0 -4 0.333008 -8.33301 1 -13s2.33398 -8.83398 5.00098 -12.501
s6.66699 -6.66699 12 -9s12.666 -3.5 21.999 -3.5c10.667 0 18.667 1.66699 24 5s9.16602 7.16602 11.499 11.499s3.5 9 3.5 14v12.5v237zM602 338.002c0 15.333 -1.99902 26.833 -5.99902 34.5s-15 11.834 -33 12.501c-16.667 0 -27.5 -3.83301 -32.5 -11.5
s-7.5 -18.5 -7.5 -32.5v-245c0 -4 0.333008 -8.33301 1 -13s2.33398 -8.83398 5.00098 -12.501s6.66699 -6.66699 12 -9s12.666 -3.5 21.999 -3.5c10.667 0 18.667 1.66699 24 5s9.16602 7.33301 11.499 12s3.5 9.5 3.5 14.5v12.5v236zM894.001 338.002
c0 15.333 -2.00098 26.833 -6.00098 34.5s-15 11.834 -33 12.501c-16.667 0 -27.667 -3.83301 -33 -11.5s-8 -18.5 -8 -32.5v-245c0 -4 0.333008 -8.33301 1 -13s2.33398 -8.83398 5.00098 -12.501s6.66699 -6.66699 12 -9s12.666 -3.5 21.999 -3.5
c10.667 0 18.834 1.66699 24.501 5s9.66699 7.33301 12 12s3.5 9.5 3.5 14.5v12.5v236zM266 326.002c0 -12 -1.66602 -24.501 -4.99902 -37.501s-9.5 -24.667 -18.5 -35s-21.333 -18.833 -37 -25.5s-35.834 -10 -60.501 -10c-26 0 -46.833 3.33301 -62.5 10
s-27.667 15.167 -36 25.5s-13.833 22 -16.5 35s-4 26.167 -4 39.5v225c0 2 0.166992 9.33301 0.5 22s2.83301 24.334 7.5 35.001c6 12.667 13.333 23 22 31s18.167 14.333 28.5 19s20.666 7.66699 30.999 9s20.166 2 29.499 2c8.66699 0 18.334 -0.666992 29.001 -2
s21.334 -4 32.001 -8s20.5 -9.83301 29.5 -17.5s16.5 -17.5 22.5 -29.5c5.33301 -12 8 -29.667 8 -53v-235zM254.001 -44.999l-64 22l266 738l63 -23zM683.001 102.001c0 -12 -1.66211 -24.501 -4.99512 -37.501s-9.5 -24.667 -18.5 -35s-21.333 -18.833 -37 -25.5
s-35.834 -10 -60.501 -10c-26 0 -46.833 3.33301 -62.5 10s-27.834 15.334 -36.501 26.001s-14.334 22.5 -17.001 35.5s-4 25.833 -4 38.5v226v6c0 4 0.166992 8.83301 0.5 14.5s1.16602 11.667 2.49902 18s3 12.166 5 17.499c5.33301 12.667 12.5 23 21.5 31
s18.833 14.333 29.5 19s21.167 7.66699 31.5 9s19.833 2 28.5 2c9.33301 0 19.666 -0.666992 30.999 -2s22.333 -4.16602 33 -8.49902s20.5 -10.5 29.5 -18.5s16.167 -18.667 21.5 -32c2.66699 -6 4.5 -12.5 5.5 -19.5s1.5 -16.833 1.5 -29.5v-235zM974.006 102
c0 -12 -1.66699 -24.501 -5 -37.501s-9.5 -24.667 -18.5 -35s-21.333 -18.833 -37 -25.5s-35.834 -10 -60.501 -10c-26 0 -46.833 3.33301 -62.5 10s-27.667 15.334 -36 26.001s-13.833 22.5 -16.5 35.5s-4 25.833 -4 38.5v226v6c0 4 0.166992 8.83301 0.5 14.5
s1.16602 11.667 2.49902 18s3 12.166 5 17.499c5.33301 12.667 12.5 23 21.5 31s18.667 14.333 29 19s20.833 7.66699 31.5 9s20.334 2 29.001 2c9.33301 0 19.5 -0.666992 30.5 -2s22 -4.16602 33 -8.49902s21 -10.5 30 -18.5s16.167 -18.667 21.5 -32
c2.66699 -6 4.33398 -12.5 5.00098 -19.5s1 -16.833 1 -29.5v-235z" />
    <glyph glyph-name="guilsinglleft" unicode="&#x2039;" horiz-adv-x="167" 
d="M31 220v92l101 97v-97l-39 -45l39 -40v-100z" />
    <glyph glyph-name="guilsinglright" unicode="&#x203a;" horiz-adv-x="167" 
d="M34 127v97l43 45l-43 42v98l102 -94v-94z" />
    <glyph glyph-name="Euro" unicode="&#x20ac;" horiz-adv-x="481" 
d="M419 558c-17.333 15.333 -34.0059 26.5039 -50.0059 33.5039s-35.667 10.5 -59 10.5c-20 0 -35.833 -3 -47.5 -9s-20.5 -14.167 -26.5 -24.5s-9.66699 -22.833 -11 -37.5s-2 -30.667 -2 -48v-47h167l-15 -67h-152v-49h139l-14 -67h-125v-63
c0 -16.667 1.16699 -31.334 3.5 -44.001s6.83301 -23.334 13.5 -32.001s15.834 -15.167 27.501 -19.5s26.834 -6.5 45.501 -6.5c14 0 26.833 1 38.5 3s22.5 5.16699 32.5 9.5s19.833 10 29.5 17s19.834 15.167 30.501 24.5v-124c-24 -13.333 -50.167 -22.166 -78.5 -26.499
s-56.166 -6.5 -83.499 -6.5c-46 0 -81.667 6 -107 18s-44.166 28.5 -56.499 49.5s-19.833 46 -22.5 75s-4 60.5 -4 94.5v31h-59l14 67h45v48h-61l15 68h46v49c0 16 0.166992 31.667 0.5 47s2 30.166 5 44.499s7.83301 28.166 14.5 41.499s16.334 25.666 29.001 36.999
c21.333 18.667 45.5 31 72.5 37s54.5 9 82.5 9c27.333 0 53 -2.33301 77 -7s48 -13.667 72 -27z" />
    <glyph glyph-name="trademark" unicode="&#x2122;" horiz-adv-x="627" 
d="M167 638v-264h-81v264h-77v68h231v-68h-73zM509 374l1 253l-52 -253h-63l-57 257l4 -257h-73v332h115l42 -195l40 195h114v-332h-71z" />
    <glyph glyph-name=".null" horiz-adv-x="0" 
 />
    <glyph glyph-name="nonmarkingreturn" horiz-adv-x="229" 
 />
    </font>
</defs>
</svg>
